<?xml version="1.0" standalone="no"?>
<!DOCTYPE svg PUBLIC "-//W3C//DTD SVG 20010904//EN"
 "http://www.w3.org/TR/2001/REC-SVG-20010904/DTD/svg10.dtd">
<svg version="1.0" xmlns="http://www.w3.org/2000/svg"
 width="3584.000000pt" height="3584.000000pt" viewBox="0 0 3584.000000 3584.000000"
 preserveAspectRatio="xMidYMid meet">
<metadata>
Created by potrace 1.11, written by Peter Selinger 2001-2013
</metadata>
<g transform="translate(0.000000,3584.000000) scale(0.100000,-0.100000)"
fill="#000000" stroke="none">
<path d="M430 21952 l-46 -3 0 -1209 c0 -1077 2 -1210 16 -1216 12 -5 44 -6
155 -3 6 0 70 -1 143 -2 73 -1 135 0 137 3 3 2 27 2 55 -2 27 -4 50 -4 50 -1
0 4 15 6 33 5 32 -2 82 -4 159 -5 23 0 45 -2 50 -5 4 -3 8 -2 8 3 0 4 26 7 57
5 32 -1 63 -3 68 -3 14 -1 85 1 120 2 17 1 35 1 40 1 73 -4 317 -3 320 0 3 2
27 2 55 -2 27 -4 50 -4 50 -1 0 3 26 5 57 3 32 -1 78 -2 103 -1 25 0 51 0 58
0 6 -1 18 -1 25 -2 6 0 48 0 92 1 44 1 85 1 90 0 8 -1 105 0 150 1 20 1 111 0
145 -2 19 -1 42 -1 50 0 42 3 103 0 111 -5 5 -3 9 -2 9 3 0 4 23 8 50 8 28 0
50 -3 50 -6 0 -3 20 -3 45 1 24 4 49 4 55 0 6 -4 28 -4 48 0 20 3 48 4 61 0
13 -3 49 -3 80 0 31 3 72 3 92 -1 20 -3 44 -2 54 1 10 3 38 3 62 0 23 -4 43
-4 43 -1 0 3 23 6 50 6 28 0 50 -3 50 -6 0 -3 20 -3 45 1 24 4 50 3 57 -1 6
-4 15 -6 18 -4 4 2 22 4 41 5 61 1 214 2 229 1 8 0 35 0 60 0 25 0 51 0 58 0
6 -1 18 -1 25 -2 15 -1 114 0 142 1 11 1 27 1 35 1 8 0 40 0 70 0 30 0 60 0
65 0 178 -3 297 -2 301 1 2 3 26 2 54 -2 27 -4 50 -4 50 -1 0 4 15 6 33 5 32
-2 82 -4 159 -5 23 0 45 -2 50 -5 4 -3 8 -2 8 3 0 8 135 7 157 -1 7 -3 15 -2
17 3 3 4 26 5 51 1 25 -4 47 -4 49 -1 2 3 34 4 71 3 51 -3 65 -7 61 -18 -3 -7
-1 -16 4 -19 5 -3 7 -12 4 -19 -9 -23 -10 -96 -1 -96 4 0 3 -9 -3 -19 -7 -13
-7 -22 0 -26 6 -4 7 -13 1 -23 -6 -11 -6 -24 0 -34 6 -11 6 -19 -1 -23 -6 -4
-7 -13 -1 -23 5 -9 5 -26 1 -37 -4 -11 -4 -28 1 -37 6 -10 5 -19 -1 -23 -6 -4
-6 -15 0 -30 6 -16 6 -25 0 -25 -6 0 -6 -9 0 -25 6 -15 6 -26 0 -30 -7 -4 -6
-13 0 -25 7 -13 7 -21 0 -25 -7 -4 -7 -12 0 -25 6 -10 7 -21 3 -23 -9 -6 -9
-64 0 -73 3 -4 2 -15 -3 -25 -7 -12 -7 -20 0 -24 7 -4 7 -12 0 -25 -6 -12 -7
-21 0 -25 6 -4 6 -15 0 -30 -6 -16 -6 -25 0 -25 6 0 6 -9 0 -25 -6 -15 -6 -26
0 -30 6 -4 7 -13 1 -24 -5 -9 -6 -23 -1 -31 4 -7 5 -23 0 -35 -4 -11 -4 -28 1
-37 6 -10 6 -19 0 -23 -7 -4 -7 -15 -1 -30 6 -16 6 -25 0 -25 -6 0 -6 -9 0
-25 6 -15 6 -26 0 -30 -7 -4 -6 -13 0 -25 7 -13 7 -21 0 -25 -7 -4 -7 -12 0
-25 6 -10 7 -21 3 -23 -9 -6 -9 -64 0 -73 3 -4 2 -15 -3 -25 -7 -12 -7 -20 0
-24 7 -4 7 -12 0 -25 -6 -12 -7 -21 0 -25 6 -4 6 -15 0 -30 -6 -16 -6 -25 0
-25 6 0 6 -9 0 -25 -6 -15 -6 -26 0 -30 6 -4 7 -13 1 -24 -5 -9 -6 -23 -1 -31
4 -7 5 -23 0 -35 -4 -11 -4 -28 1 -37 6 -10 6 -19 0 -23 -7 -4 -7 -15 -1 -30
6 -16 6 -25 0 -25 -6 0 -6 -9 0 -25 6 -15 6 -26 0 -30 -7 -4 -6 -13 0 -25 7
-13 7 -21 0 -25 -7 -4 -7 -12 0 -25 6 -10 7 -21 3 -23 -9 -6 -9 -64 0 -73 3
-4 2 -15 -3 -25 -7 -12 -7 -20 0 -24 7 -4 7 -12 0 -25 -6 -12 -7 -21 0 -25 6
-4 6 -15 0 -30 -6 -16 -6 -25 0 -25 6 0 6 -9 0 -25 -6 -15 -6 -26 0 -30 6 -4
7 -13 1 -24 -5 -9 -6 -23 -1 -31 4 -7 5 -23 0 -35 -4 -11 -4 -28 1 -37 6 -10
6 -19 0 -23 -7 -4 -7 -15 -1 -30 6 -16 6 -25 0 -25 -6 0 -6 -9 0 -25 6 -15 6
-26 0 -30 -7 -4 -6 -13 0 -25 7 -13 7 -21 0 -25 -7 -4 -7 -12 0 -25 6 -10 7
-21 3 -23 -9 -6 -9 -64 0 -73 3 -4 2 -15 -3 -25 -7 -12 -7 -20 0 -24 7 -4 7
-12 0 -25 -6 -12 -7 -21 0 -25 6 -4 6 -15 0 -30 -6 -16 -6 -25 0 -25 6 0 6 -9
0 -25 -6 -15 -6 -26 0 -30 6 -4 7 -13 1 -24 -5 -9 -6 -23 -1 -31 4 -7 5 -23 0
-35 -4 -11 -4 -28 1 -37 6 -10 6 -19 0 -23 -7 -4 -7 -15 -1 -30 6 -16 6 -25 0
-25 -6 0 -6 -9 0 -25 6 -15 6 -26 0 -30 -7 -4 -6 -13 0 -25 7 -13 7 -21 0 -25
-7 -4 -7 -12 0 -25 6 -10 7 -21 3 -23 -9 -6 -9 -64 0 -73 3 -4 2 -15 -3 -25
-7 -12 -7 -20 0 -24 7 -4 7 -12 0 -25 -6 -12 -7 -21 0 -25 6 -4 6 -15 0 -30
-6 -16 -6 -25 0 -25 6 0 6 -9 0 -25 -6 -15 -6 -26 0 -30 6 -4 7 -13 1 -24 -5
-9 -6 -23 -1 -31 4 -7 5 -23 0 -35 -4 -11 -4 -28 1 -37 6 -10 6 -19 0 -23 -7
-4 -7 -15 -1 -30 6 -16 6 -25 0 -25 -6 0 -6 -9 0 -25 6 -15 6 -26 0 -30 -7 -4
-6 -13 0 -25 7 -13 7 -21 0 -25 -7 -4 -7 -12 0 -25 6 -10 7 -21 3 -23 -9 -6
-9 -64 0 -73 3 -4 2 -15 -3 -25 -7 -12 -7 -20 0 -24 7 -4 7 -12 0 -25 -6 -12
-7 -21 0 -25 6 -4 6 -15 0 -30 -6 -16 -6 -25 0 -25 6 0 6 -9 0 -25 -6 -15 -6
-26 0 -30 7 -4 7 -13 0 -24 -5 -10 -7 -21 -4 -24 10 -10 11 -42 3 -59 -6 -10
-5 -19 1 -23 7 -4 7 -12 0 -25 -7 -13 -7 -21 0 -25 6 -4 7 -13 1 -23 -6 -11
-6 -24 0 -34 6 -11 6 -19 -1 -23 -7 -4 -7 -12 0 -25 7 -13 7 -21 0 -25 -7 -4
-7 -12 0 -24 5 -10 6 -21 3 -25 -8 -8 -8 -68 0 -89 3 -9 2 -19 -3 -22 -6 -3
-6 -15 0 -30 6 -16 6 -25 0 -25 -6 0 -6 -9 0 -25 6 -16 6 -25 0 -25 -6 0 -6
-9 0 -25 6 -16 6 -25 0 -25 -6 0 -6 -9 0 -25 5 -14 6 -25 2 -25 -8 0 -8 -68 1
-76 4 -4 2 -15 -3 -25 -7 -12 -7 -20 0 -24 7 -4 7 -12 0 -25 -7 -13 -7 -21 0
-25 7 -4 7 -12 0 -25 -7 -13 -7 -21 0 -25 6 -4 7 -13 1 -24 -6 -10 -6 -23 -1
-31 5 -8 5 -21 0 -31 -5 -9 -7 -19 -4 -21 10 -11 12 -48 3 -53 -5 -4 -5 -13 1
-25 7 -13 7 -21 0 -25 -7 -4 -7 -12 0 -25 6 -12 7 -21 0 -25 -6 -4 -6 -15 0
-30 6 -16 6 -25 0 -25 -6 0 -6 -9 0 -25 6 -16 6 -25 0 -25 -6 0 -6 -9 0 -25 5
-14 6 -25 2 -25 -4 0 -7 -20 -7 -45 0 -25 3 -45 7 -45 4 0 3 -11 -2 -25 -6
-15 -6 -26 1 -30 5 -4 7 -11 3 -16 -9 -15 -11 -79 -2 -79 4 0 3 -11 -2 -25 -6
-16 -6 -25 0 -25 6 0 6 -9 0 -25 -6 -17 -6 -25 1 -25 6 0 7 -4 4 -10 -4 -7
532 -10 1600 -10 1586 0 1606 0 1595 19 -5 11 -7 22 -2 25 8 5 7 80 -2 103 -3
7 -1 13 4 13 5 0 5 13 0 30 -5 17 -6 30 -2 30 4 0 7 31 7 70 0 38 -3 70 -7 70
-4 0 -3 11 2 25 6 15 6 27 0 30 -6 3 -6 15 0 30 6 16 6 25 0 25 -6 0 -6 9 0
25 6 15 6 27 0 30 -6 3 -6 15 0 29 5 13 6 26 3 29 -9 9 -10 68 -1 73 4 3 4 13
-1 23 -6 10 -6 23 -1 31 5 8 5 21 -1 31 -6 11 -5 20 1 24 7 4 7 12 0 25 -7 13
-7 21 0 25 6 4 7 13 1 24 -6 10 -6 23 -1 31 5 8 5 21 -1 31 -5 10 -5 20 -1 23
9 5 8 59 -2 75 -4 5 -2 12 3 16 7 3 7 15 1 30 -6 15 -6 27 0 30 7 4 6 13 0 25
-7 13 -7 21 0 25 7 4 7 12 0 25 -6 12 -7 21 0 25 6 3 6 15 0 30 -6 15 -6 27 0
30 7 4 6 13 0 25 -6 12 -7 21 0 25 6 4 6 15 0 30 -5 14 -6 25 -2 25 8 0 7 124
-2 138 -4 6 -2 13 3 17 7 3 7 15 1 30 -6 15 -6 27 0 30 7 4 6 13 0 25 -6 12
-7 21 0 25 6 4 6 15 0 30 -5 14 -6 25 -2 25 8 0 6 85 -2 106 -3 8 -1 14 4 14
5 0 5 13 0 30 -5 17 -6 30 -2 30 4 0 7 27 7 60 0 33 -3 60 -7 60 -4 0 -3 11 2
25 6 15 6 27 0 30 -6 3 -6 15 0 30 6 15 6 25 0 25 -5 0 -5 12 0 30 5 17 5 30
0 30 -5 0 -5 13 0 30 5 16 5 32 0 35 -5 3 -5 18 -1 33 5 15 4 37 0 50 -5 12
-5 22 -1 22 8 0 6 85 -2 106 -3 8 -1 14 4 14 5 0 5 13 0 30 -5 17 -6 30 -2 30
4 0 7 27 7 60 0 33 -3 60 -7 60 -4 0 -3 11 2 25 6 15 6 27 0 30 -6 3 -6 15 0
30 6 15 6 25 0 25 -5 0 -5 12 0 30 5 17 5 30 0 30 -5 0 -5 13 0 30 5 17 5 32
0 35 -5 3 -6 15 -1 28 5 13 5 30 0 39 -6 11 -5 19 1 23 7 4 7 12 0 25 -6 12
-7 21 0 25 6 3 6 15 0 30 -6 15 -6 27 0 30 6 3 6 15 0 30 -6 15 -6 27 0 30 6
3 6 15 0 30 -6 16 -6 25 0 25 6 0 6 9 0 25 -6 15 -6 27 0 30 6 3 6 15 0 30 -5
14 -6 25 -2 25 8 0 7 124 -2 138 -4 6 -2 13 3 17 7 3 7 15 1 30 -6 15 -6 27 0
30 7 4 6 13 0 25 -7 12 -7 27 0 44 6 16 6 26 0 26 -6 0 -6 9 0 25 6 15 6 26 0
30 -7 4 -6 13 0 25 6 12 7 21 0 25 -6 4 -6 15 0 30 6 16 6 25 0 25 -6 0 -6 9
0 25 6 15 6 26 0 30 -6 4 -7 13 -1 23 5 9 10 19 12 22 1 3 -3 15 -9 27 -7 12
-9 24 -4 27 8 5 7 80 -2 103 -3 7 -1 13 4 13 5 0 5 13 0 30 -5 17 -6 30 -2 30
4 0 7 31 7 70 0 38 -3 70 -7 70 -4 0 -3 11 2 25 6 15 6 27 0 30 -6 3 -6 15 0
30 6 16 6 25 0 25 -6 0 -6 9 0 25 6 15 6 27 0 30 -6 3 -6 15 0 29 5 13 6 26 3
29 -9 9 -10 68 -1 73 4 3 4 13 -1 23 -6 10 -6 23 -1 31 5 8 5 21 -1 31 -6 11
-5 20 1 24 7 4 7 12 0 25 -7 13 -7 21 0 25 6 4 7 13 1 24 -6 10 -6 23 -1 31 5
8 5 21 -1 31 -5 10 -5 20 -1 23 9 5 8 59 -2 75 -4 5 -2 12 3 16 7 3 7 15 1 30
-6 15 -6 27 0 30 7 4 6 13 0 25 -7 13 -7 21 0 25 7 4 7 12 0 25 -6 12 -7 21 0
25 6 3 6 15 0 30 -6 15 -6 27 0 30 7 4 6 13 0 25 -6 12 -7 21 0 25 6 4 6 15 0
30 -5 14 -6 25 -2 25 8 0 7 124 -2 138 -4 6 -2 13 3 17 7 3 7 15 1 30 -6 15
-6 27 0 30 7 4 6 13 0 26 -8 13 -7 19 0 19 7 0 8 6 1 19 -6 10 -8 21 -4 25 9
8 9 166 1 166 -4 0 -3 11 2 25 5 13 6 27 1 29 -15 10 0 54 20 59 10 3 19 2 19
-1 0 -4 21 -6 47 -4 65 4 125 2 135 -4 4 -3 8 -2 8 3 0 4 26 7 57 5 32 -1 63
-3 68 -3 14 -1 85 1 120 2 17 1 35 1 40 1 73 -4 317 -3 320 0 3 2 27 2 55 -2
27 -4 50 -4 50 -1 0 3 26 5 57 3 32 -1 78 -2 103 -1 25 0 51 0 58 0 6 -1 18
-1 25 -2 6 0 48 0 92 1 44 1 85 1 90 0 8 -1 84 -1 150 1 6 0 70 -1 143 -2 73
-1 135 0 137 3 3 2 27 2 55 -2 27 -4 50 -4 50 -1 0 4 15 6 33 5 32 -2 82 -4
159 -5 23 0 45 -2 50 -5 4 -3 8 -2 8 3 0 4 26 7 57 5 32 -1 63 -3 68 -3 14 -1
85 1 120 2 17 1 35 1 40 1 73 -4 317 -3 320 0 3 2 27 2 55 -2 27 -4 50 -2 50
2 0 5 4 7 9 4 11 -7 199 -11 206 -4 3 2 27 2 55 -2 27 -4 50 -4 50 -1 0 4 15
6 33 5 31 -2 58 -3 156 -4 25 -1 48 -3 53 -6 4 -3 8 -2 8 3 0 4 30 7 67 6 70
-2 97 -2 172 -3 25 -1 48 -3 53 -6 4 -3 8 0 8 6 0 6 4 8 10 5 5 -3 45 -6 87
-5 43 0 87 0 98 0 85 0 108 1 115 5 5 3 11 1 14 -3 3 -5 25 -6 48 -3 24 4 62
4 86 1 24 -4 45 -3 47 0 2 4 24 4 48 0 24 -3 52 -3 62 0 10 3 34 4 53 1 39 -7
43 -12 132 -176 24 -44 55 -100 70 -125 14 -25 29 -52 33 -60 4 -8 17 -31 29
-50 11 -19 36 -64 55 -99 18 -35 37 -69 42 -75 8 -10 25 -41 109 -196 19 -36
46 -82 59 -102 13 -21 21 -38 17 -38 -3 0 2 -7 10 -16 9 -8 16 -22 16 -30 0
-8 3 -14 8 -14 4 0 13 -15 21 -32 8 -18 22 -44 31 -58 10 -14 33 -54 52 -90
20 -36 48 -87 63 -115 16 -27 34 -62 42 -77 8 -15 18 -30 24 -33 5 -4 9 -15 9
-26 0 -10 3 -19 8 -19 4 0 20 -26 37 -58 16 -31 32 -59 35 -62 3 -3 13 -21 22
-40 10 -19 26 -48 36 -65 9 -16 40 -70 67 -120 27 -49 59 -106 70 -126 11 -19
65 -116 120 -215 54 -98 102 -181 105 -184 3 -3 16 -27 30 -55 14 -27 27 -52
30 -55 3 -3 16 -25 30 -50 13 -25 34 -63 46 -85 13 -22 35 -62 49 -89 44 -80
50 -91 55 -96 3 -3 11 -16 17 -30 13 -27 52 -95 68 -120 5 -8 10 -17 10 -20 0
-3 19 -36 41 -75 40 -67 58 -101 86 -155 7 -14 15 -27 18 -30 5 -5 41 -71 79
-145 9 -16 19 -31 24 -33 4 -2 7 -7 7 -12 0 -7 95 -183 120 -220 5 -8 20 -35
33 -60 13 -25 34 -61 45 -80 12 -19 28 -48 37 -65 8 -16 28 -52 44 -80 16 -27
44 -78 62 -112 18 -35 36 -63 39 -63 4 0 7 -6 7 -12 0 -7 21 -48 47 -91 25
-43 46 -79 46 -81 0 -2 42 -78 94 -170 52 -91 97 -175 101 -186 3 -11 10 -20
15 -20 4 0 15 -17 24 -37 19 -44 48 -96 66 -118 7 -8 9 -15 5 -15 -5 0 -1 -8
8 -18 10 -10 14 -22 10 -25 -3 -4 -2 -7 3 -7 5 0 25 -30 44 -68 19 -37 37 -69
40 -72 3 -3 33 -54 66 -115 34 -60 71 -128 84 -150 12 -22 32 -58 43 -80 12
-22 24 -42 28 -45 3 -3 13 -21 22 -40 10 -19 35 -66 58 -105 22 -38 42 -78 46
-87 3 -10 9 -18 14 -18 5 0 9 -5 9 -11 0 -6 19 -45 42 -85 l42 -74 2165 2
2164 3 35 70 c19 39 39 72 43 73 5 2 9 9 9 16 0 11 33 78 131 265 22 40 39 79
39 86 0 8 4 15 8 17 5 2 36 57 69 123 142 280 235 461 245 473 6 6 7 12 3 12
-4 0 -2 7 5 15 13 15 83 155 84 168 1 4 7 11 14 16 8 5 13 10 12 12 -4 7 54
124 65 131 6 4 6 8 1 8 -5 0 -4 6 1 13 9 11 101 188 332 642 45 88 86 164 92
169 5 6 9 18 9 27 0 10 3 19 8 21 4 2 45 80 92 173 46 94 91 178 99 188 8 9
11 17 6 17 -4 0 -3 6 3 13 10 13 140 264 296 572 53 105 100 195 105 201 5 6
12 21 16 35 4 13 11 29 15 34 8 10 71 133 280 540 56 110 105 205 108 210 4 6
7 12 7 15 1 3 12 25 25 50 30 57 173 335 285 555 250 492 354 690 362 692 5 2
15 -13 22 -32 7 -19 17 -35 22 -35 5 0 9 -7 9 -15 0 -8 9 -31 20 -51 27 -47
104 -198 105 -204 0 -3 4 -12 9 -20 6 -7 48 -88 94 -180 46 -91 88 -169 93
-174 5 -6 9 -18 9 -27 0 -10 3 -19 8 -21 4 -1 36 -59 71 -128 35 -69 68 -131
73 -137 6 -7 7 -13 3 -13 -4 0 1 -12 10 -27 17 -25 99 -185 268 -518 39 -77
75 -143 80 -146 5 -3 8 -9 8 -13 -1 -3 25 -57 56 -119 31 -61 77 -152 102
-202 25 -49 50 -93 56 -97 5 -4 7 -8 4 -8 -4 0 17 -44 45 -98 28 -54 71 -138
96 -187 24 -50 48 -91 52 -93 5 -2 8 -11 8 -21 0 -9 4 -21 9 -27 15 -17 161
-305 161 -319 0 -7 4 -15 8 -17 5 -1 32 -48 59 -103 188 -371 219 -431 226
-436 5 -3 9 -13 11 -21 1 -9 8 -23 15 -32 7 -9 10 -16 6 -16 -4 0 -3 -6 3 -12
5 -7 40 -71 77 -143 37 -71 72 -136 77 -142 6 -7 7 -13 3 -13 -4 0 0 -11 8
-23 8 -13 59 -109 112 -213 54 -104 102 -195 107 -201 6 -7 7 -13 3 -13 -4 0
-3 -6 3 -12 19 -25 82 -149 82 -162 0 -8 4 -16 9 -18 4 -2 29 -43 53 -93 65
-130 228 -447 239 -465 5 -8 14 -26 19 -40 6 -14 39 -79 73 -145 35 -66 98
-189 141 -273 l77 -152 2166 2 2165 3 36 70 c21 39 40 72 43 75 3 3 18 31 34
63 16 31 33 57 37 57 4 0 8 6 8 14 0 7 23 52 50 100 28 49 64 114 81 147 17
32 35 62 40 65 5 3 7 10 4 15 -4 5 -1 9 4 9 6 0 11 4 11 9 0 5 18 40 39 78 43
76 88 158 134 243 16 30 33 60 37 65 7 9 50 87 108 195 13 25 37 68 53 95 15
28 38 70 51 95 13 25 26 47 29 50 3 3 8 10 10 15 12 31 114 211 121 213 4 2 8
10 8 18 0 8 16 39 35 69 19 30 32 55 30 55 -3 0 5 17 18 38 12 20 28 46 35 57
11 19 52 95 76 142 6 13 14 23 19 23 4 0 7 6 7 14 0 7 11 29 24 49 13 19 22
37 20 40 -3 2 2 10 11 17 8 7 15 16 15 20 0 5 17 39 39 77 21 37 56 100 77
138 21 39 48 88 61 110 12 22 31 56 41 75 39 74 96 177 119 213 13 20 20 37
16 37 -5 0 -3 4 2 8 6 4 15 16 21 27 6 11 26 47 44 80 18 32 45 81 59 108 35
66 45 82 58 98 6 8 12 19 14 24 5 23 33 75 41 75 4 0 8 5 8 11 0 9 36 77 137
257 17 31 44 82 60 112 15 30 31 57 34 60 4 3 15 23 26 45 11 22 30 58 43 80
13 22 39 69 58 105 20 36 39 67 44 68 4 2 8 12 8 22 0 10 5 22 10 25 6 4 17
21 25 38 8 18 34 66 57 108 52 93 174 312 219 394 18 33 36 63 42 66 5 3 8 9
8 13 -2 17 1 24 19 44 11 12 19 23 18 24 -4 6 27 68 35 68 5 0 6 4 2 9 -3 5
-1 12 4 15 5 3 21 29 36 58 15 29 33 60 41 69 8 8 14 23 14 32 0 9 4 18 9 22
10 5 23 29 64 110 11 22 22 42 26 45 3 3 15 24 26 47 11 24 23 43 28 43 4 0 7
5 7 11 0 9 50 102 130 244 12 22 32 58 43 80 12 22 24 42 27 45 3 3 11 16 17
30 7 14 30 57 51 95 132 237 158 284 179 325 13 25 33 61 45 80 11 19 52 94
91 165 39 72 74 132 78 135 4 3 11 18 14 33 4 15 11 27 16 27 5 0 9 4 9 9 0 5
27 56 60 114 33 59 60 111 60 116 0 5 3 11 8 13 4 2 22 32 41 68 19 36 40 72
47 80 7 8 12 17 11 20 -1 3 24 51 56 107 31 55 57 106 57 112 0 6 5 11 10 11
6 0 10 5 10 11 0 6 17 41 39 77 49 85 82 145 139 252 25 47 48 87 51 90 3 3
16 25 29 50 12 25 27 52 32 60 34 54 160 290 160 299 0 6 3 11 8 11 4 0 13 15
21 33 8 17 17 34 20 37 3 3 14 20 23 38 l17 32 -27 0 c-196 4 -3523 0 -3529
-3 -4 -3 -71 -130 -148 -284 -77 -153 -146 -284 -152 -291 -7 -7 -13 -21 -13
-31 0 -9 -4 -21 -9 -26 -5 -6 -71 -134 -147 -285 -77 -151 -141 -277 -144
-280 -3 -3 -23 -43 -45 -90 -22 -47 -43 -86 -47 -88 -5 -2 -8 -8 -8 -13 0 -12
-33 -81 -60 -126 -11 -18 -17 -33 -14 -33 4 0 1 -6 -5 -14 -19 -23 -160 -306
-153 -306 4 0 2 -4 -4 -8 -6 -4 -126 -234 -266 -512 -243 -480 -511 -1008
-714 -1407 -51 -101 -89 -183 -86 -183 4 0 2 -4 -4 -8 -7 -4 -45 -74 -86 -157
-42 -82 -108 -214 -147 -292 -40 -78 -71 -145 -71 -149 1 -4 -2 -10 -7 -13 -5
-3 -65 -116 -133 -251 -68 -135 -182 -360 -253 -500 -71 -140 -140 -277 -154
-305 -13 -27 -27 -57 -32 -65 -5 -8 -82 -160 -172 -338 -110 -219 -165 -318
-171 -310 -9 13 -28 52 -118 243 -23 50 -73 154 -111 233 -38 79 -69 148 -69
153 0 5 -4 9 -10 9 -5 0 -10 6 -10 14 0 8 -34 86 -76 173 -76 158 -131 273
-206 433 -22 47 -57 119 -78 162 -21 42 -36 79 -33 82 4 3 1 6 -5 6 -7 0 -12
5 -12 11 0 6 -26 66 -59 132 -105 218 -236 495 -262 555 -8 17 -18 32 -23 32
-4 0 -6 7 -2 15 3 8 2 15 -3 15 -5 0 -16 17 -24 38 -16 39 -72 159 -177 377
-34 72 -76 159 -92 195 -17 36 -47 99 -68 142 -21 42 -36 79 -33 82 4 3 1 6
-5 6 -7 0 -12 5 -12 10 0 6 -30 72 -66 148 -36 75 -91 191 -122 257 -30 66
-60 123 -65 126 -5 3 -9 10 -9 15 -1 15 -13 42 -83 189 -37 77 -85 178 -107
225 -54 114 -109 230 -179 376 -31 66 -75 158 -97 205 -22 46 -63 132 -91 192
-28 59 -74 155 -102 215 -28 59 -68 143 -89 187 -21 44 -52 109 -69 144 -17
36 -31 69 -31 73 0 5 -7 16 -15 24 -8 9 -15 24 -15 33 0 10 -7 24 -15 31 -8 7
-15 17 -15 22 0 9 -47 111 -126 273 -19 39 -34 74 -34 79 0 4 -9 20 -19 34
-10 15 -19 31 -19 35 0 4 -14 36 -30 70 -17 34 -55 115 -86 180 l-56 117 -53
0 c-272 3 -3809 1 -3812 -2 -11 -11 -115 -233 -115 -244 0 -8 -4 -14 -10 -14
-5 0 -10 -4 -10 -10 0 -5 -22 -56 -49 -112 -27 -57 -79 -166 -116 -243 -36
-77 -83 -176 -103 -220 -20 -44 -40 -81 -44 -83 -5 -2 -8 -8 -8 -14 0 -6 -14
-41 -31 -77 -17 -36 -35 -75 -40 -86 -5 -11 -13 -27 -19 -35 -13 -20 -34 -73
-32 -82 1 -5 -3 -8 -8 -8 -6 0 -10 -4 -10 -10 0 -5 -20 -51 -45 -101 -25 -50
-45 -97 -45 -105 0 -8 -4 -14 -10 -14 -5 0 -10 -4 -10 -10 0 -5 -24 -60 -54
-122 -29 -62 -73 -153 -96 -203 -23 -49 -69 -145 -101 -213 -33 -67 -59 -127
-59 -132 0 -6 -4 -10 -10 -10 -5 0 -9 -3 -8 -7 1 -5 -11 -35 -27 -68 -16 -33
-29 -62 -30 -65 -1 -5 -79 -170 -118 -250 -12 -25 -26 -48 -30 -51 -5 -3 -8
-8 -7 -10 1 -2 -4 -17 -11 -34 -7 -16 -13 -32 -14 -35 -1 -3 -29 -63 -63 -133
-34 -70 -62 -132 -62 -138 0 -5 -4 -9 -10 -9 -5 0 -9 -3 -8 -7 1 -5 -10 -33
-24 -63 -81 -172 -151 -320 -278 -585 -77 -160 -130 -275 -130 -282 0 -2 -8
-17 -19 -31 -10 -15 -22 -38 -26 -51 -4 -14 -39 -90 -78 -170 -39 -80 -72
-148 -72 -151 -4 -15 -31 -66 -40 -72 -5 -4 -7 -8 -3 -8 5 0 -5 -26 -21 -57
-16 -32 -53 -107 -82 -168 -28 -60 -74 -156 -100 -213 -27 -56 -49 -107 -49
-112 0 -6 -4 -10 -10 -10 -5 0 -9 -3 -8 -7 0 -5 -12 -35 -27 -68 -16 -33 -29
-62 -30 -65 -1 -3 -35 -75 -77 -161 -42 -86 -79 -167 -83 -180 -4 -13 -11 -26
-14 -29 -4 -3 -22 -39 -41 -80 -18 -41 -72 -154 -118 -250 -46 -96 -99 -206
-117 -245 -18 -38 -63 -132 -99 -208 -36 -76 -66 -142 -66 -148 0 -27 -25 16
-120 203 -57 112 -163 322 -237 468 -74 145 -138 269 -143 275 -4 5 -9 15 -10
20 -3 18 -73 155 -81 161 -5 3 -9 14 -9 24 0 10 -3 20 -7 22 -5 2 -60 107
-123 233 -63 127 -118 232 -121 235 -3 3 -11 21 -19 40 -8 19 -16 37 -19 40
-3 3 -69 131 -146 285 -77 154 -143 282 -147 283 -5 2 -8 9 -8 15 0 7 -26 63
-59 125 -32 61 -57 112 -55 112 3 0 -6 17 -19 38 -23 36 -32 56 -36 77 -2 6
-8 17 -15 25 -7 8 -78 146 -158 305 -80 160 -225 445 -322 635 -97 190 -179
352 -182 360 -3 8 -9 22 -14 30 -4 8 -57 112 -116 230 -60 118 -114 222 -120
230 -7 8 -13 20 -14 25 -1 10 -43 92 -271 540 -155 304 -181 356 -185 373 -1
7 -7 19 -13 26 -10 12 -71 131 -381 746 -52 102 -95 187 -96 188 -3 5 -14830
8 -14894 4z"/>
</g>
</svg>
