<?xml version="1.0" standalone="no"?>
<!DOCTYPE svg PUBLIC "-//W3C//DTD SVG 1.1//EN" "http://www.w3.org/Graphics/SVG/1.1/DTD/svg11.dtd" >
<svg xmlns="http://www.w3.org/2000/svg" xmlns:xlink="http://www.w3.org/1999/xlink" version="1.1">
<metadata>
Created by FontForge 20170924 at Tue Jan 24 11:25:48 2017
 By www-data
\(c\) TIGHTYPE 2016
</metadata>
<defs>
<font id="Sneak-Light" horiz-adv-x="565" >
  <font-face 
    font-family="Sneak"
    font-weight="300"
    font-stretch="normal"
    units-per-em="1000"
    panose-1="0 0 4 0 0 0 0 0 0 0"
    ascent="800"
    descent="-200"
    x-height="500"
    cap-height="700"
    bbox="-250 -265 2137 936"
    underline-thickness="50"
    underline-position="-100"
    stemh="52"
    stemv="59"
    unicode-range="U+000D-27FC"
  />
<missing-glyph horiz-adv-x="854" 
d="M787 350c0 -200 -160 -360 -360 -360c-202 0 -360 164 -360 360c0 199 161 360 360 360c203 0 360 -163 360 -360zM239 533v-45h44v-128h46v128h44v45h-134zM481 533v-45h45v-128h45v128h45v45h-135zM427 81c145 0 264 116 268 259l-46 8c0 -122 -99 -221 -222 -221
c-122 0 -221 99 -221 221l-46 -8c4 -143 123 -259 267 -259z" />
    <glyph glyph-name="f_f.liga" unicode="ff" horiz-adv-x="672" 
d="M590 648c-57 0 -86 -33 -86 -109v-39h120v-52h-120v-448h-60v448h-250v-448h-60v448h-90v52h90v50c0 92 50 150 138 150h63v-52h-55c-57 0 -86 -33 -86 -109v-39h250v50c0 92 50 150 138 150h63v-52h-55z" />
    <glyph glyph-name="f_f_i.liga" unicode="ffi" horiz-adv-x="887" 
d="M807 500v-500h-60v448h-243v-448h-60v448h-250v-448h-60v448h-90v52h90v50c0 92 50 150 138 150h63v-52h-55c-57 0 -86 -33 -86 -109v-39h250v50c0 92 50 150 138 150h63v-52h-55c-57 0 -86 -33 -86 -109v-39h303zM739 674h76v-78h-76v78z" />
    <glyph glyph-name="f_f_j.liga" unicode="ffj" horiz-adv-x="887" 
d="M807 500v-574c0 -90 -51 -146 -146 -146h-69v52h61c64 0 95 32 94 104v512h-243v-448h-60v448h-250v-448h-60v448h-90v52h90v50c0 92 50 150 138 150h63v-52h-55c-57 0 -86 -33 -86 -109v-39h250v50c0 92 50 150 138 150h63v-52h-55c-57 0 -86 -33 -86 -109v-39h303z
M739 674h76v-78h-76v78z" />
    <glyph glyph-name="f_f_l.liga" unicode="ffl" horiz-adv-x="893" 
d="M753 710h60v-710h-60v448h-249v-448h-60v448h-250v-448h-60v448h-90v52h90v50c0 92 50 150 138 150h63v-52h-55c-57 0 -86 -33 -86 -109v-39h250v50c0 92 50 150 138 150h63v-52h-55c-57 0 -86 -33 -86 -109v-39h249v210z" />
    <glyph glyph-name="f_i.liga" unicode="fi" horiz-adv-x="581" 
d="M501 500v-500h-60v448h-247v-448h-60v448h-90v52h90v50c0 92 50 150 138 150h63v-52h-55c-57 0 -86 -33 -86 -109v-39h307zM433 674h76v-78h-76v78z" />
    <glyph glyph-name="f_j.liga" unicode="fj" horiz-adv-x="575" 
d="M495 500v-574c0 -90 -51 -146 -146 -146h-69v52h61c64 0 95 32 94 104v512h-241v-448h-60v448h-90v52h90v50c0 92 50 150 138 150h63v-52h-55c-57 0 -86 -33 -86 -109v-39h301zM427 674h76v-78h-76v78z" />
    <glyph glyph-name="f_l.liga" unicode="fl" horiz-adv-x="577" 
d="M437 710h60v-710h-60v448h-243v-448h-60v448h-90v52h90v50c0 92 50 150 138 150h63v-52h-55c-57 0 -86 -33 -86 -109v-39h243v210z" />
    <glyph glyph-name=".notdef" horiz-adv-x="854" 
d="M787 350c0 -200 -160 -360 -360 -360c-202 0 -360 164 -360 360c0 199 161 360 360 360c203 0 360 -163 360 -360zM239 533v-45h44v-128h46v128h44v45h-134zM481 533v-45h45v-128h45v128h45v45h-135zM427 81c145 0 264 116 268 259l-46 8c0 -122 -99 -221 -222 -221
c-122 0 -221 99 -221 221l-46 -8c4 -143 123 -259 267 -259z" />
    <glyph glyph-name="NULL" horiz-adv-x="0" 
 />
    <glyph glyph-name="NULL" horiz-adv-x="0" 
 />
    <glyph glyph-name="CR" unicode="&#xd;" horiz-adv-x="250" 
 />
    <glyph glyph-name="space" unicode=" " horiz-adv-x="260" 
 />
    <glyph glyph-name="exclam" unicode="!" horiz-adv-x="176" 
d="M53 700h70l-11 -520h-48zM50 0v78h76v-78h-76z" />
    <glyph glyph-name="quotedbl" unicode="&#x22;" horiz-adv-x="342" 
d="M81 420l-11 280h62l-11 -280h-40zM221 420l-11 280h62l-11 -280h-40z" />
    <glyph glyph-name="numbersign" unicode="#" horiz-adv-x="694" 
d="M624 402h-100l-34 -184h107v-50h-116l-31 -168h-59l31 168h-202l-31 -168h-59l31 168h-91v50h100l34 184h-107v50h116l31 168h59l-31 -168h202l31 168h59l-31 -168h91v-50zM431 218l34 184h-202l-34 -184h202z" />
    <glyph glyph-name="dollar" unicode="$" horiz-adv-x="580" 
d="M309 331c92 -41 166 -82 166 -183c0 -93 -71 -146 -166 -156v-92h-58v91c-111 10 -176 96 -183 199h59c8 -87 59 -135 124 -144v250c-3 2 -6 3 -9 4c-123 49 -189 105 -189 208c0 104 83 183 198 191v91h58v-92c126 -15 196 -105 202 -227h-59c-9 104 -63 160 -143 173
v-313zM113 513c0 -91 66 -125 138 -156v289c-69 -8 -138 -56 -138 -133zM309 46c63 7 106 38 106 100c0 67 -49 101 -106 127v-227z" />
    <glyph glyph-name="percent" unicode="%" horiz-adv-x="753" 
d="M220 410c-85 0 -152 65 -152 150c0 86 67 150 152 150s152 -64 152 -150c0 -85 -67 -150 -152 -150zM90 0l504 700h69l-504 -700h-69zM220 462c55 0 92 43 92 98s-37 98 -92 98s-92 -43 -92 -98s37 -98 92 -98zM533 -10c-85 0 -152 65 -152 150c0 86 67 150 152 150
s152 -64 152 -150c0 -85 -67 -150 -152 -150zM533 42c55 0 92 43 92 98s-37 98 -92 98s-92 -43 -92 -98s37 -98 92 -98z" />
    <glyph glyph-name="ampersand" unicode="&#x26;" horiz-adv-x="623" 
d="M616 52h37v-52h-38c-70 0 -116 42 -156 83c-40 -47 -109 -93 -210 -93c-123 0 -214 68 -214 178c0 85 53 143 147 194c-57 57 -97 107 -97 174c0 90 70 174 181 174c102 0 176 -70 176 -165c0 -100 -81 -154 -168 -198c13 -12 26 -24 39 -38l137 -139
c21 45 31 103 31 190h55c0 -72 -7 -161 -46 -232c33 -35 71 -76 126 -76zM144 534c0 -56 34 -94 89 -147c66 31 150 72 150 157c0 65 -49 114 -119 114c-77 0 -120 -60 -120 -124zM249 42c75 0 133 33 171 80l-148 152c-17 17 -33 33 -49 48c-63 -32 -129 -73 -129 -153
s67 -127 155 -127z" />
    <glyph glyph-name="quotesingle" unicode="'" horiz-adv-x="202" 
d="M81 420l-11 280h62l-11 -280h-40z" />
    <glyph glyph-name="parenleft" unicode="(" horiz-adv-x="273" 
d="M235 790l38 -32c-74 -91 -150 -257 -150 -438s76 -347 150 -438l-38 -32c-60 60 -168 241 -168 470s108 410 168 470z" />
    <glyph glyph-name="parenright" unicode=")" horiz-adv-x="273" 
d="M38 -150l-38 32c74 91 150 257 150 438s-76 347 -150 438l38 32c60 -60 168 -241 168 -470s-108 -410 -168 -470z" />
    <glyph glyph-name="asterisk" unicode="*" horiz-adv-x="404" 
d="M363 565l-127 -36l81 -103l-41 -30l-73 110l-74 -110l-41 30l81 103l-127 36l16 49l124 -45l-5 131h51l-5 -131l124 45z" />
    <glyph glyph-name="plus" unicode="+" horiz-adv-x="590" 
d="M520 272v-52h-195v-220h-60v220h-195v52h195v208h60v-208h195z" />
    <glyph glyph-name="comma" unicode="," horiz-adv-x="181" 
d="M51 78h80v-54c0 -89 -19 -123 -91 -135v33c41 11 48 30 48 78h-37v78z" />
    <glyph glyph-name="hyphen" unicode="-" horiz-adv-x="521" 
d="M70 322h381v-52h-381v52z" />
    <glyph glyph-name="period" unicode="." horiz-adv-x="176" 
d="M50 0v78h76v-78h-76z" />
    <glyph glyph-name="slash" unicode="/" horiz-adv-x="443" 
d="M20 -50l344 800h59l-344 -800h-59z" />
    <glyph glyph-name="zero" unicode="0" horiz-adv-x="640" 
d="M320 -10c-185 0 -253 186 -253 360c0 175 68 360 253 360s253 -185 253 -360c0 -174 -68 -360 -253 -360zM320 46c112 0 188 111 188 304s-76 305 -188 305s-188 -112 -188 -305s76 -304 188 -304z" />
    <glyph glyph-name="one" unicode="1" horiz-adv-x="463" 
d="M309 700h57v-700h-63v531c-47 -49 -124 -82 -240 -86v54c112 7 246 51 246 201z" />
    <glyph glyph-name="two" unicode="2" horiz-adv-x="612" 
d="M528 0h-461l-1 46l189 165c98 85 192 167 192 294c0 88 -60 149 -149 149c-112 0 -155 -86 -146 -199h-65c-12 125 53 255 212 255c136 0 212 -92 212 -211c0 -139 -99 -237 -235 -352l-107 -91h359v-56z" />
    <glyph glyph-name="three" unicode="3" horiz-adv-x="619" 
d="M411 337c62 -27 110 -83 110 -162c0 -101 -80 -185 -213 -185c-134 0 -211 75 -225 203h62c11 -104 75 -146 165 -146c100 0 148 61 148 128c0 75 -52 137 -154 137h-64v57h64c110 0 171 58 171 140c0 96 -70 144 -162 144c-101 0 -182 -56 -188 -168h-60
c4 149 112 225 243 225c124 0 231 -66 231 -202c0 -89 -56 -146 -128 -171z" />
    <glyph glyph-name="four" unicode="4" horiz-adv-x="612" 
d="M573 203v-55h-112v-148h-62v148h-340v45l306 507h96v-497h112zM132 203h267v451z" />
    <glyph glyph-name="five" unicode="5" horiz-adv-x="619" 
d="M299 438c142 0 239 -83 239 -229c0 -149 -104 -219 -234 -219c-134 0 -222 87 -237 213h62c11 -83 68 -157 180 -157c100 0 165 56 165 158c0 115 -69 176 -180 176c-101 0 -154 -56 -154 -55l-47 29l51 346h357v-56h-302l-41 -248c29 20 69 42 141 42z" />
    <glyph glyph-name="six" unicode="6" horiz-adv-x="634" 
d="M330 451c126 0 224 -87 224 -234c0 -129 -83 -227 -227 -227c-146 0 -246 107 -246 340c0 238 81 380 255 380c132 0 210 -100 223 -210h-61c-8 52 -45 152 -167 152c-134 0 -194 -126 -192 -321c26 64 90 120 191 120zM327 46c95 0 168 70 168 174
c0 111 -77 173 -167 173c-92 0 -168 -64 -168 -170c0 -112 79 -177 167 -177z" />
    <glyph glyph-name="seven" unicode="7" horiz-adv-x="564" 
d="M54 700h457v-46l-324 -654h-75l323 644h-381v56z" />
    <glyph glyph-name="eight" unicode="8" horiz-adv-x="632" 
d="M399 325c68 -22 139 -71 139 -159c0 -104 -99 -176 -222 -176s-222 72 -222 176c0 88 71 137 139 159c-80 22 -163 78 -163 185c0 119 102 200 246 200s246 -81 246 -200c0 -107 -83 -163 -163 -185zM135 508c0 -135 181 -156 181 -156s181 21 181 155
c0 78 -61 147 -181 147s-181 -70 -181 -146zM316 46c98 0 157 55 157 122c0 108 -157 127 -157 127s-157 -19 -157 -127c0 -67 60 -122 157 -122z" />
    <glyph glyph-name="nine" unicode="9" horiz-adv-x="624" 
d="M302 710c146 0 246 -107 246 -340c0 -238 -81 -380 -255 -380c-132 0 -210 100 -223 210h61c8 -52 45 -152 167 -152c134 0 194 126 192 321c-26 -64 -90 -120 -191 -120c-126 0 -224 87 -224 234c0 129 83 227 227 227zM301 307c92 0 168 64 168 170
c0 112 -79 177 -167 177c-95 0 -168 -70 -168 -174c0 -111 77 -173 167 -173z" />
    <glyph glyph-name="colon" unicode=":" horiz-adv-x="176" 
d="M50 422v78h76v-78h-76zM50 0v78h76v-78h-76z" />
    <glyph glyph-name="semicolon" unicode=";" horiz-adv-x="181" 
d="M129 500v-78h-76v78h76zM51 78h80v-54c0 -89 -19 -123 -91 -135v33c41 11 48 30 48 78h-37v78z" />
    <glyph glyph-name="less" unicode="&#x3c;" horiz-adv-x="573" 
d="M95 263l383 227v-70l-307 -180l307 -180v-70l-383 227v46z" />
    <glyph glyph-name="equal" unicode="=" horiz-adv-x="590" 
d="M70 376h450v-52h-450v52zM70 166h450v-52h-450v52z" />
    <glyph glyph-name="greater" unicode="&#x3e;" horiz-adv-x="573" 
d="M478 217l-383 -227v70l307 180l-307 180v70l383 -227v-46z" />
    <glyph glyph-name="question" unicode="?" horiz-adv-x="497" 
d="M252 710c112 0 188 -61 188 -178c0 -164 -185 -159 -185 -310v-42h-62v40c0 181 187 180 187 313c0 82 -52 123 -126 123c-89 0 -143 -71 -138 -196h-59c-8 158 75 250 195 250zM186 0v78h76v-78h-76z" />
    <glyph glyph-name="at" unicode="@" horiz-adv-x="1014" 
d="M507 710c241 0 440 -175 440 -437c0 -148 -63 -248 -172 -248c-55 0 -103 26 -127 87c-15 -37 -67 -87 -156 -87c-134 0 -211 112 -211 240c0 127 76 240 209 240c62 0 112 -31 139 -77l2 -2v69h60v-280c0 -106 35 -138 82 -138c68 0 114 66 114 188
c0 231 -165 393 -380 393s-380 -163 -380 -390c0 -224 160 -386 392 -386c108 0 162 35 190 60l36 -40c-28 -25 -101 -72 -230 -72c-248 0 -448 176 -448 440c0 263 197 440 440 440zM498 78c87 0 133 59 133 195c0 115 -53 179 -140 179c-100 0 -150 -99 -150 -191
c0 -84 41 -183 157 -183z" />
    <glyph glyph-name="A" unicode="A" horiz-adv-x="644" 
d="M546 0l-67 187h-314l-67 -187h-68l255 700h74l255 -700h-68zM186 245h272l-136 377z" />
    <glyph glyph-name="B" unicode="B" horiz-adv-x="625" 
d="M409 346c94 -27 125 -91 125 -163c0 -112 -64 -183 -200 -183h-179h-65v700h65h202c146 0 210 -73 210 -178c0 -83 -37 -155 -158 -176zM357 642h-202v-263h195c89 0 153 52 153 142c0 75 -46 121 -146 121zM324 58c99 0 144 49 144 128c0 83 -64 135 -163 135h-150v-263
h169z" />
    <glyph glyph-name="C" unicode="C" horiz-adv-x="736" 
d="M670 230c-22 -157 -128 -240 -281 -240c-205 0 -322 149 -322 352c0 212 124 368 325 368c154 0 251 -93 272 -230h-67c-16 95 -85 172 -209 172c-164 0 -256 -136 -256 -309c0 -169 92 -295 262 -295c114 0 187 55 211 182h65z" />
    <glyph glyph-name="D" unicode="D" horiz-adv-x="692" 
d="M292 700c224 0 333 -142 333 -350s-109 -350 -333 -350h-202v700h202zM282 57c218 0 276 144 276 295c0 145 -53 291 -276 291h-128v-586h128z" />
    <glyph glyph-name="E" unicode="E" horiz-adv-x="575" 
d="M500 642h-345v-257h325v-58h-325v-269h345v-58h-410v700h410v-58z" />
    <glyph glyph-name="F" unicode="F" horiz-adv-x="550" 
d="M480 642h-325v-257h315v-58h-315v-327h-65v700h390v-58z" />
    <glyph glyph-name="G" unicode="G" horiz-adv-x="763" 
d="M361 347h320v-347h-49l-7 136c-41 -98 -122 -146 -234 -146c-202 0 -324 152 -324 358c0 210 128 362 327 362c169 0 273 -90 285 -237h-64c-14 113 -98 179 -224 179c-164 0 -259 -131 -259 -302s94 -302 263 -302c134 0 222 89 222 241h-256v58z" />
    <glyph glyph-name="H" unicode="H" horiz-adv-x="713" 
d="M558 700h65v-700h-65v327h-403v-327h-65v700h65v-315h403v315z" />
    <glyph glyph-name="I" unicode="I" horiz-adv-x="245" 
d="M155 0h-65v700h65v-700z" />
    <glyph glyph-name="J" unicode="J" horiz-adv-x="626" 
d="M474 700h65v-440c0 -176 -88 -270 -241 -270c-150 0 -236 94 -236 255v32h64v-32c0 -131 66 -197 169 -197c114 0 179 75 179 221v431z" />
    <glyph glyph-name="K" unicode="K" horiz-adv-x="588" 
d="M481 0l-266 324l-60 -68v-256h-65v700h65v-346l306 346h84l-286 -326l303 -374h-81z" />
    <glyph glyph-name="L" unicode="L" horiz-adv-x="577" 
d="M158 58h361v-58h-429v700h68v-642z" />
    <glyph glyph-name="M" unicode="M" horiz-adv-x="860" 
d="M770 700v-700h-64v623l-236 -623h-80l-236 623v-623h-64v700h98l242 -642l242 642h98z" />
    <glyph glyph-name="N" unicode="N" horiz-adv-x="720" 
d="M566 700h64v-700h-84l-392 626v-626h-64v700h85l391 -626v626z" />
    <glyph glyph-name="O" unicode="O" horiz-adv-x="776" 
d="M388 -10c-201 0 -321 142 -321 360s120 360 321 360s321 -142 321 -360s-120 -360 -321 -360zM388 48c158 0 256 119 256 302s-98 302 -256 302s-256 -119 -256 -302s98 -302 256 -302z" />
    <glyph glyph-name="P" unicode="P" horiz-adv-x="568" 
d="M297 700c167 0 240 -98 240 -219c0 -124 -76 -225 -240 -225h-142v-256h-65v700h65h142zM314 314c112 0 158 79 158 168s-47 160 -158 160h-159v-328h159z" />
    <glyph glyph-name="Q" unicode="Q" horiz-adv-x="776" 
d="M769 0h-80l-76 76c-55 -55 -131 -86 -225 -86c-201 0 -321 142 -321 360s120 360 321 360s321 -142 321 -360c0 -91 -21 -169 -60 -229zM388 48c74 0 135 26 179 73l-182 182l41 41l175 -176c28 49 43 111 43 182c0 183 -98 302 -256 302s-256 -119 -256 -302
s98 -302 256 -302z" />
    <glyph glyph-name="R" unicode="R" horiz-adv-x="628" 
d="M519 174l56 -174h-69l-56 169c-43 131 -119 117 -295 117v-286h-65v700h222c170 0 235 -103 235 -204c0 -82 -43 -159 -143 -188c51 -17 90 -55 115 -134zM329 642h-174v-298h174c112 0 153 84 153 152c0 69 -42 146 -153 146z" />
    <glyph glyph-name="S" unicode="S" horiz-adv-x="636" 
d="M135 200c13 -105 78 -152 184 -152c102 0 141 44 141 112c0 80 -51 112 -209 155c-132 36 -198 96 -198 201c0 120 109 194 238 194c167 0 259 -79 276 -240h-64c-14 105 -66 182 -210 182c-92 0 -175 -45 -175 -136c0 -80 43 -117 198 -159c104 -28 209 -73 209 -193
c0 -108 -75 -174 -208 -174c-150 0 -234 82 -246 210h64z" />
    <glyph glyph-name="T" unicode="T" horiz-adv-x="635" 
d="M588 700v-58h-238v-642h-65v642h-238v58h541z" />
    <glyph glyph-name="U" unicode="U" horiz-adv-x="704" 
d="M87 700h65v-401c0 -166 62 -251 200 -251s200 85 200 251v401h65v-410c0 -191 -84 -300 -265 -300s-265 109 -265 300v410z" />
    <glyph glyph-name="V" unicode="V" horiz-adv-x="670" 
d="M557 700h73l-258 -700h-74l-258 700h73l222 -614z" />
    <glyph glyph-name="W" unicode="W" horiz-adv-x="984" 
d="M867 700h64l-156 -700h-73l-210 636l-210 -636h-73l-156 700h64l132 -619l204 619h78l204 -619z" />
    <glyph glyph-name="X" unicode="X" horiz-adv-x="635" 
d="M602 0h-80l-204 306l-205 -306h-80l245 366l-224 334h80l184 -274l183 274h80l-223 -334z" />
    <glyph glyph-name="Y" unicode="Y" horiz-adv-x="625" 
d="M509 700h70l-331 -700h-70l125 265l-271 435h73l230 -368z" />
    <glyph glyph-name="Z" unicode="Z" horiz-adv-x="617" 
d="M147 58h398v-58h-484v48l384 594h-359v58h446v-48z" />
    <glyph glyph-name="bracketleft" unicode="[" horiz-adv-x="275" 
d="M275 730h-125v-816h125v-52h-185v920h185v-52z" />
    <glyph glyph-name="backslash" unicode="\" horiz-adv-x="443" 
d="M423 -50h-59l-344 800h59z" />
    <glyph glyph-name="bracketright" unicode="]" horiz-adv-x="275" 
d="M185 782v-920h-185v52h125v816h-125v52h185z" />
    <glyph glyph-name="asciicircum" unicode="^" horiz-adv-x="584" 
d="M323 700l211 -379h-75l-167 303l-167 -302h-75l211 378h62z" />
    <glyph glyph-name="underscore" unicode="_" horiz-adv-x="501" 
d="M60 10h381v-52h-381v52z" />
    <glyph glyph-name="grave" unicode="`" horiz-adv-x="400" 
d="M189 699l90 -125h-67l-103 125h80z" />
    <glyph glyph-name="a" unicode="a" horiz-adv-x="539" 
d="M280 509c99 0 181 -52 181 -157v-352h-60v104c-20 -45 -76 -114 -179 -114c-87 0 -161 49 -161 144c0 85 58 123 189 144c99 16 151 24 151 82c0 56 -51 97 -124 97c-87 0 -129 -46 -135 -127h-58c4 100 62 179 196 179zM231 42c95 0 170 71 170 183v47
c-34 -19 -83 -31 -137 -41c-88 -16 -145 -36 -145 -100c0 -62 53 -89 112 -89z" />
    <glyph glyph-name="b" unicode="b" horiz-adv-x="568" 
d="M297 510c124 0 216 -101 216 -264c0 -153 -80 -256 -211 -256c-102 0 -148 63 -162 92v-82h-60v710h60v-294c24 57 83 94 157 94zM298 44c106 0 156 82 156 197c0 114 -50 216 -161 216c-102 0 -153 -79 -153 -203c0 -132 56 -210 158 -210z" />
    <glyph glyph-name="c" unicode="c" horiz-adv-x="560" 
d="M436 330c-11 80 -73 127 -149 127c-109 0 -172 -96 -172 -209c0 -120 70 -207 182 -207c89 0 132 52 146 118h58c-18 -101 -88 -169 -205 -169c-156 0 -241 119 -241 260s88 259 231 259c113 0 198 -73 209 -179h-59z" />
    <glyph glyph-name="d" unicode="d" horiz-adv-x="568" 
d="M428 710h60v-710h-60v82c-14 -29 -60 -92 -162 -92c-131 0 -211 103 -211 256c0 163 92 264 216 264c74 0 133 -37 157 -94v294zM270 44c102 0 158 78 158 210c0 124 -51 203 -153 203c-111 0 -161 -102 -161 -216c0 -115 50 -197 156 -197z" />
    <glyph glyph-name="e" unicode="e" horiz-adv-x="560" 
d="M442 158h55c-8 -88 -78 -168 -205 -168c-154 0 -237 118 -237 260c0 143 82 259 228 259c138 0 213 -105 213 -260v-16h-380c6 -114 74 -191 177 -191c80 0 135 46 149 116zM284 457c-105 0 -158 -78 -167 -172h320c-7 92 -48 172 -153 172z" />
    <glyph glyph-name="f" unicode="f" horiz-adv-x="362" 
d="M280 648c-57 0 -86 -33 -86 -109v-39h120v-52h-120v-448h-60v448h-90v52h90v50c0 92 50 150 138 150h63v-52h-55z" />
    <glyph glyph-name="g" unicode="g" 
d="M426 500h59v-501c0 -145 -70 -229 -211 -229c-138 0 -200 87 -205 182h56c5 -57 37 -128 150 -128c124 0 151 84 151 185v76c-13 -31 -58 -95 -160 -95c-131 0 -211 103 -211 256c0 163 92 264 215 264c74 0 132 -37 156 -93v83zM269 44c102 0 157 79 157 208
c0 125 -51 203 -150 203c-112 0 -160 -101 -160 -214c0 -114 49 -197 153 -197z" />
    <glyph glyph-name="h" unicode="h" 
d="M336 510c95 0 151 -61 151 -188v-322h-60v296c0 112 -29 163 -101 163c-93 0 -187 -121 -187 -303v-156h-59v710h59v-376c34 104 93 176 197 176z" />
    <glyph glyph-name="i" unicode="i" horiz-adv-x="220" 
d="M72 596v78h76v-78h-76zM140 0h-60v500h60v-500z" />
    <glyph glyph-name="j" unicode="j" horiz-adv-x="220" 
d="M72 674h76v-78h-76v78zM80 500h60v-574c0 -90 -51 -146 -146 -146h-69v52h61c64 0 95 32 94 104v564z" />
    <glyph glyph-name="k" unicode="k" horiz-adv-x="486" 
d="M392 0l-196 234l-59 -61v-173h-57v710h57v-455l240 245h75l-215 -223l227 -277h-72z" />
    <glyph glyph-name="l" unicode="l" horiz-adv-x="220" 
d="M140 0h-60v710h60v-710z" />
    <glyph glyph-name="m" unicode="m" horiz-adv-x="855" 
d="M623 509c99 0 154 -74 154 -163v-346h-59v302c0 102 -33 153 -105 153c-90 0 -155 -111 -155 -254v-201h-59v302c0 102 -33 153 -105 153c-90 0 -155 -101 -155 -254v-201h-59v500h59v-129c20 66 73 138 165 138c81 0 133 -52 149 -142c29 90 91 142 170 142z" />
    <glyph glyph-name="n" unicode="n" 
d="M336 510c95 0 151 -61 151 -188v-322h-60v296c0 112 -29 163 -101 163c-93 0 -187 -121 -187 -303v-156h-59v500h59v-166c34 104 93 176 197 176z" />
    <glyph glyph-name="o" unicode="o" horiz-adv-x="574" 
d="M287 -10c-143 0 -232 111 -232 259c0 149 89 260 232 260s232 -111 232 -260c0 -148 -89 -259 -232 -259zM287 41c111 0 173 92 173 208c0 117 -62 208 -173 208s-173 -91 -173 -208c0 -116 62 -208 173 -208z" />
    <glyph glyph-name="p" unicode="p" horiz-adv-x="567" 
d="M296 510c124 0 216 -101 216 -264c0 -153 -80 -256 -211 -256c-101 0 -148 63 -162 92v-302h-59v720h59v-84c25 57 83 94 157 94zM297 44c106 0 156 82 156 197c0 114 -50 216 -161 216c-101 0 -153 -79 -153 -203c0 -132 56 -210 158 -210z" />
    <glyph glyph-name="q" unicode="q" horiz-adv-x="567" 
d="M428 500h59v-720h-59v302c-14 -29 -61 -92 -162 -92c-131 0 -211 103 -211 256c0 163 92 264 216 264c74 0 132 -37 157 -94v84zM270 44c102 0 158 78 158 210c0 124 -52 203 -153 203c-111 0 -161 -102 -161 -216c0 -115 50 -197 156 -197z" />
    <glyph glyph-name="r" unicode="r" horiz-adv-x="415" 
d="M308 500h62v-51h-66c-81 0 -164 -54 -164 -231v-218h-60v500h60v-126c28 79 72 126 168 126z" />
    <glyph glyph-name="s" unicode="s" horiz-adv-x="493" 
d="M124 148c5 -70 52 -106 130 -106c67 0 108 22 108 77c0 73 -85 83 -159 105c-92 27 -149 64 -149 146c0 86 74 139 183 139c99 0 192 -44 206 -181h-57c-5 93 -72 130 -152 130c-88 0 -123 -42 -123 -87c0 -59 41 -79 137 -105c84 -23 175 -54 175 -147
c0 -89 -79 -129 -171 -129c-107 0 -179 56 -185 158h57z" />
    <glyph glyph-name="t" unicode="t" horiz-adv-x="364" 
d="M277 52h55v-52h-63c-88 0 -138 56 -138 146v302h-95v52h95v120l60 10v-130h120v-52h-120v-292c0 -72 29 -104 86 -104z" />
    <glyph glyph-name="u" unicode="u" 
d="M426 500h59v-500h-59v166c-34 -104 -93 -176 -197 -176c-95 0 -151 61 -151 188v322h60v-296c0 -112 29 -163 101 -163c93 0 187 121 187 303v156z" />
    <glyph glyph-name="v" unicode="v" horiz-adv-x="529" 
d="M431 501h68l-198 -501h-73l-198 501h68l167 -434z" />
    <glyph glyph-name="w" unicode="w" horiz-adv-x="748" 
d="M646 501h59l-122 -501h-71l-138 438l-138 -438h-71l-122 501h59l102 -427l136 427h68l136 -427z" />
    <glyph glyph-name="x" unicode="x" horiz-adv-x="505" 
d="M474 0h-72l-149 215l-150 -215h-72l188 265l-168 236h72l130 -187l129 187h72l-167 -236z" />
    <glyph glyph-name="y" unicode="y" horiz-adv-x="541" 
d="M445 500h61l-219 -591c-34 -90 -65 -129 -163 -129h-80v51h68c62 0 89 16 110 72l26 70l-217 527h66l182 -445z" />
    <glyph glyph-name="z" unicode="z" horiz-adv-x="493" 
d="M135 52h289v-52h-371v42l282 407h-262v52h341v-43z" />
    <glyph glyph-name="braceleft" unicode="{" horiz-adv-x="296" 
d="M197 474c0 -91 -21 -137 -73 -152c52 -15 73 -61 73 -152v-163c0 -80 29 -93 82 -93h17v-52h-17c-100 0 -142 25 -142 159v173c0 75 -23 94 -92 104v48c69 10 92 29 92 104v173c0 134 42 159 142 159h17v-52h-17c-53 0 -82 -13 -82 -93v-163z" />
    <glyph glyph-name="bar" unicode="|" horiz-adv-x="240" 
d="M150 -100h-60v900h60v-900z" />
    <glyph glyph-name="braceright" unicode="}" horiz-adv-x="296" 
d="M159 450c0 -75 23 -94 92 -104v-48c-69 -10 -92 -29 -92 -104v-173c0 -134 -42 -159 -142 -159h-17v52h17c53 0 82 13 82 93v163c0 91 21 137 73 152c-52 15 -73 61 -73 152v163c0 80 -29 93 -82 93h-17v52h17c100 0 142 -25 142 -159v-173z" />
    <glyph glyph-name="asciitilde" unicode="~" horiz-adv-x="590" 
d="M70 181c5 94 61 138 134 138c88 0 117 -86 185 -86c55 0 77 37 83 79h48c-5 -93 -62 -137 -135 -137c-88 0 -117 86 -185 86c-56 0 -77 -39 -83 -80h-47z" />
    <glyph glyph-name="uni00A0" unicode="&#xa0;" horiz-adv-x="240" 
 />
    <glyph glyph-name="exclamdown" unicode="&#xa1;" horiz-adv-x="176" 
d="M126 480v-78h-76v78h76zM123 -220h-70l11 520h48z" />
    <glyph glyph-name="cent" unicode="&#xa2;" horiz-adv-x="582" 
d="M521 258c-17 -97 -88 -162 -197 -168v-90h-58v93c-123 20 -205 123 -205 257c0 136 85 240 205 257v93h58v-91c101 -8 178 -69 191 -174h-59c-10 68 -58 111 -132 118v-407c72 5 120 42 139 112h58zM123 349c0 -111 59 -181 143 -199v400c-83 -16 -143 -89 -143 -201z
" />
    <glyph glyph-name="sterling" unicode="&#xa3;" horiz-adv-x="601" 
d="M248 55h287v-55h-474v44c161 12 223 71 223 142c0 36 -16 64 -39 90h-155v54h101c-46 44 -92 96 -92 185c0 122 94 195 211 195c106 0 198 -58 217 -208h-60c-13 92 -64 153 -156 153s-150 -60 -150 -142c0 -83 58 -133 109 -183h201v-54h-153c17 -24 28 -51 28 -83
c0 -55 -33 -106 -98 -138z" />
    <glyph glyph-name="currency" unicode="&#xa4;" horiz-adv-x="617" 
d="M515 250c0 -48 -15 -92 -40 -127l87 -92l-41 -41l-88 91c-34 -25 -77 -40 -124 -40c-48 0 -90 15 -125 40l-88 -91l-41 41l88 93c-25 34 -40 78 -40 126c0 47 15 90 40 125l-88 94l41 41l88 -93c34 26 77 42 125 42s91 -15 125 -41l87 92l41 -41l-87 -93
c25 -35 40 -79 40 -126zM309 95c93 0 146 75 146 155s-53 155 -146 155s-146 -75 -146 -155s53 -155 146 -155z" />
    <glyph glyph-name="yen" unicode="&#xa5;" horiz-adv-x="626" 
d="M594 700l-217 -319h155v-54h-189v-108h189v-54h-189v-165h-60v165h-189v54h189v108h-189v54h157l-219 319h74l208 -304l207 304h73z" />
    <glyph glyph-name="brokenbar" unicode="&#xa6;" horiz-adv-x="240" 
d="M150 480h-60v320h60v-320zM150 -100h-60v320h60v-320z" />
    <glyph glyph-name="section" unicode="&#xa7;" horiz-adv-x="533" 
d="M380 198c40 -25 66 -61 66 -118c0 -88 -72 -140 -176 -140c-136 0 -203 72 -217 188h65c14 -96 70 -130 155 -130c67 0 108 28 108 85c0 64 -49 79 -155 111c-90 27 -158 69 -158 146c0 59 41 92 81 110c-41 23 -73 58 -73 115c0 92 78 145 180 145
c123 0 190 -87 203 -181h-65c-10 64 -47 123 -141 123c-49 0 -112 -22 -112 -86s63 -82 165 -110c101 -28 158 -76 158 -145c0 -60 -44 -94 -84 -113zM133 348c0 -67 65 -86 158 -113c17 -5 33 -10 48 -16c33 14 60 44 60 87c0 64 -61 82 -157 109c-16 5 -34 10 -51 16
c-32 -14 -58 -41 -58 -83z" />
    <glyph glyph-name="dieresis" unicode="&#xa8;" horiz-adv-x="400" 
d="M71 587v70h68v-70h-68zM261 587v70h68v-70h-68z" />
    <glyph glyph-name="copyright" unicode="&#xa9;" horiz-adv-x="850" 
d="M425 -10c-202 0 -358 156 -358 360s156 360 358 360s358 -156 358 -360s-156 -360 -358 -360zM425 34c175 0 306 141 306 316s-131 316 -306 316s-306 -141 -306 -316s131 -316 306 -316zM591 291c-13 -93 -73 -141 -163 -141c-117 0 -184 83 -184 196
c0 119 71 204 184 204c91 0 147 -55 159 -134h-53c-9 50 -44 89 -107 89c-83 0 -131 -68 -131 -158c0 -89 48 -152 134 -152c61 0 97 33 108 96h53z" />
    <glyph glyph-name="guillemotleft" unicode="&#xab;" horiz-adv-x="609" 
d="M309 490l-170 -195l170 -195h-77l-167 195l167 195h77zM529 490l-170 -195l170 -195h-77l-167 195l167 195h77z" />
    <glyph glyph-name="logicalnot" unicode="&#xac;" horiz-adv-x="590" 
d="M520 349v-213h-60v161h-390v52h450z" />
    <glyph glyph-name="uni00AD" unicode="&#xad;" horiz-adv-x="521" 
d="M70 322h381v-52h-381v52z" />
    <glyph glyph-name="registered" unicode="&#xae;" horiz-adv-x="850" 
d="M425 710c202 0 358 -156 358 -360s-156 -360 -358 -360s-358 156 -358 360s156 360 358 360zM425 34c175 0 306 141 306 316s-131 316 -306 316s-306 -141 -306 -316s131 -316 306 -316zM477 331c33 -9 57 -29 72 -77l30 -94h-56l-30 90c-23 68 -61 61 -137 61v-151h-52
v390h120c102 0 137 -59 137 -116c0 -49 -25 -89 -84 -103zM430 503h-74v-148h74c56 0 78 41 78 76s-22 72 -78 72z" />
    <glyph glyph-name="macron" unicode="&#xaf;" horiz-adv-x="400" 
d="M65 637h270v-52h-270v52z" />
    <glyph glyph-name="degree" unicode="&#xb0;" horiz-adv-x="384" 
d="M192 410c-85 0 -152 65 -152 150c0 86 67 150 152 150s152 -64 152 -150c0 -85 -67 -150 -152 -150zM192 462c55 0 92 43 92 98s-37 98 -92 98s-92 -43 -92 -98s37 -98 92 -98z" />
    <glyph glyph-name="plusminus" unicode="&#xb1;" horiz-adv-x="590" 
d="M325 320h195v-52h-195v-160h-60v160h-195v52h195v160h60v-160zM70 0v52h450v-52h-450z" />
    <glyph glyph-name="uni00B2" unicode="&#xb2;" horiz-adv-x="356" 
d="M307 410h-258v33l95 76c57 46 103 85 103 145c0 39 -26 67 -67 67c-54 0 -74 -43 -71 -97h-51c-5 71 32 141 123 141c75 0 118 -48 118 -112c0 -69 -48 -117 -115 -170l-51 -40h174v-43z" />
    <glyph glyph-name="uni00B3" unicode="&#xb3;" horiz-adv-x="356" 
d="M244 579c34 -12 58 -39 58 -78c0 -51 -42 -101 -122 -101c-76 0 -124 46 -130 113h50c5 -50 42 -69 80 -69c49 0 72 31 72 62c0 33 -25 57 -76 57h-33v39h35c54 0 85 26 85 66c0 42 -35 64 -82 64c-50 0 -88 -25 -94 -81h-48c7 79 58 124 141 124c75 0 134 -38 134 -106
c0 -47 -29 -77 -70 -90z" />
    <glyph glyph-name="acute" unicode="&#xb4;" horiz-adv-x="400" 
d="M217 699h80l-103 -125h-67z" />
    <glyph glyph-name="uni00B5" unicode="&#xb5;" 
d="M426 500h59v-500h-59v166c-34 -104 -93 -176 -197 -176c-37 0 -68 9 -92 28v-238h-59v720h60v-296c0 -112 29 -163 101 -163c93 0 187 121 187 303v156z" />
    <glyph glyph-name="paragraph" unicode="&#xb6;" horiz-adv-x="614" 
d="M65 511c0 78 46 140 108 168c31 14 65 21 101 21h280v-52h-80v-648h-60v648h-80v-648h-60v320c-53 0 -105 17 -143 49c-40 31 -66 82 -66 142z" />
    <glyph glyph-name="periodcentered" unicode="&#xb7;" horiz-adv-x="216" 
d="M70 245v78h76v-78h-76z" />
    <glyph glyph-name="cedilla" unicode="&#xb8;" horiz-adv-x="400" 
d="M211 2c45 -24 73 -59 73 -102c0 -52 -42 -100 -124 -100h-44v50h36c50 0 75 21 75 55c0 36 -36 75 -72 95z" />
    <glyph glyph-name="uni00B9" unicode="&#xb9;" horiz-adv-x="290" 
d="M210 770v-360h-49v255c-28 -22 -68 -35 -124 -37v40c60 3 131 27 131 102h42z" />
    <glyph glyph-name="guillemotright" unicode="&#xbb;" horiz-adv-x="609" 
d="M157 490l167 -195l-167 -195h-77l170 195l-170 195h77zM377 490l167 -195l-167 -195h-77l170 195l-170 195h77z" />
    <glyph glyph-name="onequarter" unicode="&#xbc;" horiz-adv-x="762" 
d="M210 700v-360h-49v255c-28 -22 -68 -35 -124 -37v40c60 3 131 27 131 102h42zM66 0l586 700h67l-586 -700h-67zM731 116v-42h-59v-74h-49v74h-179v32l161 254h67v-244h59zM501 116h122v199z" />
    <glyph glyph-name="onehalf" unicode="&#xbd;" horiz-adv-x="836" 
d="M210 700v-360h-49v255c-28 -22 -68 -35 -124 -37v40c60 3 131 27 131 102h42zM66 0l586 700h67l-586 -700h-67zM787 0h-258v33l95 76c57 46 103 85 103 145c0 39 -26 67 -67 67c-54 0 -74 -43 -71 -97h-51c-5 71 32 141 123 141c75 0 118 -48 118 -112
c0 -69 -48 -117 -115 -170l-51 -40h174v-43z" />
    <glyph glyph-name="threequarters" unicode="&#xbe;" horiz-adv-x="797" 
d="M244 509c34 -12 58 -39 58 -78c0 -51 -42 -101 -122 -101c-76 0 -124 46 -130 113h50c5 -50 42 -69 80 -69c49 0 72 31 72 62c0 33 -25 57 -76 57h-33v39h35c54 0 85 26 85 66c0 42 -35 64 -82 64c-50 0 -88 -25 -94 -81h-48c7 79 58 124 141 124c75 0 134 -38 134 -106
c0 -47 -29 -77 -70 -90zM101 0l586 700h67l-586 -700h-67zM766 116v-42h-59v-74h-49v74h-179v32l161 254h67v-244h59zM536 116h122v199z" />
    <glyph glyph-name="questiondown" unicode="&#xbf;" horiz-adv-x="454" 
d="M227 398v78h76v-78h-76zM237 -229c-112 0 -188 61 -188 178c0 164 185 159 185 310v42h62v-40c0 -181 -187 -180 -187 -313c0 -82 52 -123 126 -123c89 0 143 71 138 196h59c8 -158 -75 -250 -195 -250z" />
    <glyph glyph-name="Agrave" unicode="&#xc0;" horiz-adv-x="644" 
d="M396 776h-74l-113 138h88zM546 0l-67 187h-314l-67 -187h-68l255 700h74l255 -700h-68zM186 245h272l-136 377z" />
    <glyph glyph-name="Aacute" unicode="&#xc1;" horiz-adv-x="644" 
d="M435 914l-113 -138h-74l99 138h88zM546 0l-67 187h-314l-67 -187h-68l255 700h74l255 -700h-68zM186 245h272l-136 377z" />
    <glyph glyph-name="Acircumflex" unicode="&#xc2;" horiz-adv-x="644" 
d="M322 857l-68 -90h-70l99 138h77l99 -138h-70zM546 0l-67 187h-314l-67 -187h-68l255 700h74l255 -700h-68zM186 245h272l-136 377z" />
    <glyph glyph-name="Atilde" unicode="&#xc3;" horiz-adv-x="644" 
d="M253 843c-28 0 -50 -23 -57 -52h-46c11 74 59 110 107 110c71 0 83 -57 133 -57c28 0 50 24 57 53h47c-11 -75 -60 -110 -107 -110c-72 0 -84 56 -134 56zM546 0l-67 187h-314l-67 -187h-68l255 700h74l255 -700h-68zM186 245h272l-136 377z" />
    <glyph glyph-name="Adieresis" unicode="&#xc4;" horiz-adv-x="644" 
d="M255 856v-77h-75v77h75zM464 856v-77h-75v77h75zM546 0l-67 187h-314l-67 -187h-68l255 700h74l255 -700h-68zM186 245h272l-136 377z" />
    <glyph glyph-name="Aring" unicode="&#xc5;" horiz-adv-x="644" 
d="M546 0l-67 187h-314l-67 -187h-68l241 661c-34 18 -54 52 -54 92c0 58 42 105 105 105c62 0 104 -47 104 -105c0 -39 -20 -74 -53 -92l241 -661h-68zM322 805c-30 0 -50 -24 -50 -52c0 -27 20 -52 50 -52c29 0 49 25 49 52c0 28 -20 52 -49 52zM186 245h272l-136 377z
" />
    <glyph glyph-name="AE" unicode="&#xc6;" horiz-adv-x="871" 
d="M796 642h-416l94 -257h302v-58h-281l98 -269h203v-58h-250l-67 187h-314l-67 -187h-68l255 700h511v-58zM186 245h272l-136 377z" />
    <glyph glyph-name="Ccedilla" unicode="&#xc7;" horiz-adv-x="736" 
d="M670 230c-20 -142 -109 -224 -239 -238c39 -25 63 -61 63 -102c0 -57 -46 -110 -137 -110h-48v55h40c55 0 82 23 82 60c0 35 -30 72 -64 96c-191 10 -300 155 -300 351c0 212 124 368 325 368c154 0 251 -93 272 -230h-67c-16 95 -85 172 -209 172
c-164 0 -256 -136 -256 -309c0 -169 92 -295 262 -295c114 0 187 55 211 182h65z" />
    <glyph glyph-name="Egrave" unicode="&#xc8;" horiz-adv-x="575" 
d="M369 776h-74l-113 138h88zM500 642h-345v-257h325v-58h-325v-269h345v-58h-410v700h410v-58z" />
    <glyph glyph-name="Eacute" unicode="&#xc9;" horiz-adv-x="575" 
d="M408 914l-113 -138h-74l99 138h88zM500 642h-345v-257h325v-58h-325v-269h345v-58h-410v700h410v-58z" />
    <glyph glyph-name="Ecircumflex" unicode="&#xca;" horiz-adv-x="575" 
d="M295 857l-68 -90h-70l99 138h77l99 -138h-70zM500 642h-345v-257h325v-58h-325v-269h345v-58h-410v700h410v-58z" />
    <glyph glyph-name="Edieresis" unicode="&#xcb;" horiz-adv-x="575" 
d="M228 856v-77h-75v77h75zM437 856v-77h-75v77h75zM500 642h-345v-257h325v-58h-325v-269h345v-58h-410v700h410v-58z" />
    <glyph glyph-name="Igrave" unicode="&#xcc;" horiz-adv-x="245" 
d="M98 914l99 -138h-74l-113 138h88zM155 0h-65v700h65v-700z" />
    <glyph glyph-name="Iacute" unicode="&#xcd;" horiz-adv-x="245" 
d="M148 914h88l-113 -138h-74zM155 0h-65v700h65v-700z" />
    <glyph glyph-name="Icircumflex" unicode="&#xce;" horiz-adv-x="245" 
d="M260 767h-70l-67 90l-68 -90h-70l99 138h77zM155 0h-65v700h65v-700z" />
    <glyph glyph-name="Idieresis" unicode="&#xcf;" horiz-adv-x="245" 
d="M-19 779v77h75v-77h-75zM190 779v77h75v-77h-75zM155 0h-65v700h65v-700z" />
    <glyph glyph-name="Eth" unicode="&#xd0;" horiz-adv-x="692" 
d="M292 700c224 0 333 -142 333 -350s-109 -350 -333 -350h-202v320h-134v58h134v322h202zM282 57c218 0 276 144 276 295c0 145 -53 291 -276 291h-128v-265h264v-58h-264v-263h128z" />
    <glyph glyph-name="Ntilde" unicode="&#xd1;" horiz-adv-x="720" 
d="M291 843c-28 0 -50 -23 -57 -52h-46c11 74 59 110 107 110c71 0 83 -57 133 -57c28 0 50 24 57 53h47c-11 -75 -60 -110 -107 -110c-72 0 -84 56 -134 56zM566 700h64v-700h-84l-392 626v-626h-64v700h85l391 -626v626z" />
    <glyph glyph-name="Ograve" unicode="&#xd2;" horiz-adv-x="776" 
d="M363 914l99 -138h-74l-113 138h88zM388 -10c-201 0 -321 142 -321 360s120 360 321 360s321 -142 321 -360s-120 -360 -321 -360zM388 48c158 0 256 119 256 302s-98 302 -256 302s-256 -119 -256 -302s98 -302 256 -302z" />
    <glyph glyph-name="Oacute" unicode="&#xd3;" horiz-adv-x="776" 
d="M413 914h88l-113 -138h-74zM388 -10c-201 0 -321 142 -321 360s120 360 321 360s321 -142 321 -360s-120 -360 -321 -360zM388 48c158 0 256 119 256 302s-98 302 -256 302s-256 -119 -256 -302s98 -302 256 -302z" />
    <glyph glyph-name="Ocircumflex" unicode="&#xd4;" horiz-adv-x="776" 
d="M525 767h-70l-67 90l-68 -90h-70l99 138h77zM388 -10c-201 0 -321 142 -321 360s120 360 321 360s321 -142 321 -360s-120 -360 -321 -360zM388 48c158 0 256 119 256 302s-98 302 -256 302s-256 -119 -256 -302s98 -302 256 -302z" />
    <glyph glyph-name="Otilde" unicode="&#xd5;" horiz-adv-x="776" 
d="M216 791c11 74 59 110 107 110c71 0 83 -57 133 -57c28 0 50 24 57 53h47c-11 -75 -60 -110 -107 -110c-72 0 -84 56 -134 56c-28 0 -50 -23 -57 -52h-46zM388 -10c-201 0 -321 142 -321 360s120 360 321 360s321 -142 321 -360s-120 -360 -321 -360zM388 48
c158 0 256 119 256 302s-98 302 -256 302s-256 -119 -256 -302s98 -302 256 -302z" />
    <glyph glyph-name="Odieresis" unicode="&#xd6;" horiz-adv-x="776" 
d="M246 779v77h75v-77h-75zM455 779v77h75v-77h-75zM388 -10c-201 0 -321 142 -321 360s120 360 321 360s321 -142 321 -360s-120 -360 -321 -360zM388 48c158 0 256 119 256 302s-98 302 -256 302s-256 -119 -256 -302s98 -302 256 -302z" />
    <glyph glyph-name="multiply" unicode="&#xd7;" horiz-adv-x="590" 
d="M490 398l-156 -152l156 -153l-39 -38l-156 152l-156 -152l-39 38l156 153l-156 152l39 39l156 -153l156 153z" />
    <glyph glyph-name="Oslash" unicode="&#xd8;" horiz-adv-x="776" 
d="M636 597c47 -62 73 -146 73 -247c0 -218 -120 -360 -321 -360c-83 0 -153 24 -206 69l-66 -79l-48 38l72 85c-47 62 -73 146 -73 247c0 218 120 360 321 360c83 0 153 -24 206 -69l66 79l48 -38zM132 350c0 -78 18 -145 51 -196l370 439c-43 38 -98 59 -165 59
c-158 0 -256 -119 -256 -302zM388 48c158 0 256 119 256 302c0 78 -18 145 -51 196l-370 -439c43 -38 98 -59 165 -59z" />
    <glyph glyph-name="Ugrave" unicode="&#xd9;" horiz-adv-x="704" 
d="M327 914l99 -138h-74l-113 138h88zM87 700h65v-401c0 -166 62 -251 200 -251s200 85 200 251v401h65v-410c0 -191 -84 -300 -265 -300s-265 109 -265 300v410z" />
    <glyph glyph-name="Uacute" unicode="&#xda;" horiz-adv-x="704" 
d="M377 914h88l-113 -138h-74zM87 700h65v-401c0 -166 62 -251 200 -251s200 85 200 251v401h65v-410c0 -191 -84 -300 -265 -300s-265 109 -265 300v410z" />
    <glyph glyph-name="Ucircumflex" unicode="&#xdb;" horiz-adv-x="704" 
d="M489 767h-70l-67 90l-68 -90h-70l99 138h77zM87 700h65v-401c0 -166 62 -251 200 -251s200 85 200 251v401h65v-410c0 -191 -84 -300 -265 -300s-265 109 -265 300v410z" />
    <glyph glyph-name="Udieresis" unicode="&#xdc;" horiz-adv-x="704" 
d="M210 779v77h75v-77h-75zM419 779v77h75v-77h-75zM87 700h65v-401c0 -166 62 -251 200 -251s200 85 200 251v401h65v-410c0 -191 -84 -300 -265 -300s-265 109 -265 300v410z" />
    <glyph glyph-name="Yacute" unicode="&#xdd;" horiz-adv-x="625" 
d="M418 914l-113 -138h-74l99 138h88zM509 700h70l-331 -700h-70l125 265l-271 435h73l230 -368z" />
    <glyph glyph-name="Thorn" unicode="&#xde;" horiz-adv-x="584" 
d="M297 572c167 0 240 -98 240 -219c0 -124 -76 -225 -240 -225h-142v-128h-65v700h65v-128h142zM314 186c112 0 158 79 158 168s-47 160 -158 160h-159v-328h159z" />
    <glyph glyph-name="germandbls" unicode="&#xdf;" horiz-adv-x="554" 
d="M320 393c122 -19 174 -102 174 -201c0 -112 -67 -192 -205 -192h-43v53h32c108 0 156 52 156 141c0 88 -48 162 -182 162h-54v52h36c78 0 133 54 133 128c0 67 -42 122 -111 122s-116 -57 -116 -141v-517h-60v531c0 95 64 179 177 179c109 0 170 -82 170 -167
c0 -74 -42 -125 -107 -150z" />
    <glyph glyph-name="agrave" unicode="&#xe0;" horiz-adv-x="539" 
d="M326 574h-67l-103 125h80zM280 509c99 0 181 -52 181 -157v-352h-60v104c-20 -45 -76 -114 -179 -114c-87 0 -161 49 -161 144c0 85 58 123 189 144c99 16 151 24 151 82c0 56 -51 97 -124 97c-87 0 -129 -46 -135 -127h-58c4 100 62 179 196 179zM231 42
c95 0 170 71 170 183v47c-34 -19 -83 -31 -137 -41c-88 -16 -145 -36 -145 -100c0 -62 53 -89 112 -89z" />
    <glyph glyph-name="aacute" unicode="&#xe1;" horiz-adv-x="539" 
d="M382 699l-103 -125h-67l90 125h80zM280 509c99 0 181 -52 181 -157v-352h-60v104c-20 -45 -76 -114 -179 -114c-87 0 -161 49 -161 144c0 85 58 123 189 144c99 16 151 24 151 82c0 56 -51 97 -124 97c-87 0 -129 -46 -135 -127h-58c4 100 62 179 196 179zM231 42
c95 0 170 71 170 183v47c-34 -19 -83 -31 -137 -41c-88 -16 -145 -36 -145 -100c0 -62 53 -89 112 -89z" />
    <glyph glyph-name="acircumflex" unicode="&#xe2;" horiz-adv-x="539" 
d="M269 642l-61 -82h-64l90 125h70l90 -125h-64zM280 509c99 0 181 -52 181 -157v-352h-60v104c-20 -45 -76 -114 -179 -114c-87 0 -161 49 -161 144c0 85 58 123 189 144c99 16 151 24 151 82c0 56 -51 97 -124 97c-87 0 -129 -46 -135 -127h-58c4 100 62 179 196 179z
M231 42c95 0 170 71 170 183v47c-34 -19 -83 -31 -137 -41c-88 -16 -145 -36 -145 -100c0 -62 53 -89 112 -89z" />
    <glyph glyph-name="atilde" unicode="&#xe3;" horiz-adv-x="539" 
d="M206 623c-26 0 -46 -21 -52 -48h-42c10 68 54 100 97 100c65 0 76 -51 121 -51c26 0 46 21 52 48h43c-10 -68 -55 -100 -98 -100c-65 0 -76 51 -121 51zM280 509c99 0 181 -52 181 -157v-352h-60v104c-20 -45 -76 -114 -179 -114c-87 0 -161 49 -161 144
c0 85 58 123 189 144c99 16 151 24 151 82c0 56 -51 97 -124 97c-87 0 -129 -46 -135 -127h-58c4 100 62 179 196 179zM231 42c95 0 170 71 170 183v47c-34 -19 -83 -31 -137 -41c-88 -16 -145 -36 -145 -100c0 -62 53 -89 112 -89z" />
    <glyph glyph-name="adieresis" unicode="&#xe4;" horiz-adv-x="539" 
d="M207 657v-70h-68v70h68zM397 657v-70h-68v70h68zM280 509c99 0 181 -52 181 -157v-352h-60v104c-20 -45 -76 -114 -179 -114c-87 0 -161 49 -161 144c0 85 58 123 189 144c99 16 151 24 151 82c0 56 -51 97 -124 97c-87 0 -129 -46 -135 -127h-58c4 100 62 179 196 179z
M231 42c95 0 170 71 170 183v47c-34 -19 -83 -31 -137 -41c-88 -16 -145 -36 -145 -100c0 -62 53 -89 112 -89z" />
    <glyph glyph-name="aring" unicode="&#xe5;" horiz-adv-x="539" 
d="M269 545c-57 0 -95 43 -95 95c0 53 38 95 95 95s95 -42 95 -95c0 -52 -38 -95 -95 -95zM269 687c-27 0 -45 -22 -45 -47s18 -47 45 -47s45 22 45 47s-18 47 -45 47zM280 509c99 0 181 -52 181 -157v-352h-60v104c-20 -45 -76 -114 -179 -114c-87 0 -161 49 -161 144
c0 85 58 123 189 144c99 16 151 24 151 82c0 56 -51 97 -124 97c-87 0 -129 -46 -135 -127h-58c4 100 62 179 196 179zM231 42c95 0 170 71 170 183v47c-34 -19 -83 -31 -137 -41c-88 -16 -145 -36 -145 -100c0 -62 53 -89 112 -89z" />
    <glyph glyph-name="ae" unicode="&#xe6;" horiz-adv-x="906" 
d="M788 158h55c-8 -88 -78 -168 -205 -168c-102 0 -172 51 -209 127c-33 -82 -110 -127 -207 -127c-87 0 -161 49 -161 144c0 85 58 123 189 144c99 16 151 24 151 82c0 56 -51 97 -124 97c-87 0 -129 -46 -135 -127h-58c4 100 62 179 196 179c74 0 138 -29 166 -95
c39 58 101 95 183 95c138 0 213 -105 213 -260v-16h-380c6 -114 74 -191 177 -191c80 0 135 46 149 116zM630 457c-105 0 -158 -78 -167 -172h320c-7 92 -48 172 -153 172zM231 42c95 0 170 71 170 183v47c-34 -19 -83 -31 -137 -41c-88 -16 -145 -36 -145 -100
c0 -62 53 -89 112 -89z" />
    <glyph glyph-name="ccedilla" unicode="&#xe7;" horiz-adv-x="560" 
d="M501 159c-17 -95 -80 -161 -185 -168c34 -23 54 -54 54 -91c0 -52 -42 -100 -124 -100h-44v50h36c50 0 75 21 75 55c0 32 -29 67 -61 88c-128 21 -197 130 -197 257c0 141 88 259 231 259c113 0 198 -73 209 -179h-59c-11 80 -73 127 -149 127c-109 0 -172 -96 -172 -209
c0 -120 70 -207 182 -207c89 0 132 52 146 118h58z" />
    <glyph glyph-name="egrave" unicode="&#xe8;" horiz-adv-x="560" 
d="M335 574h-67l-103 125h80zM442 158h55c-8 -88 -78 -168 -205 -168c-154 0 -237 118 -237 260c0 143 82 259 228 259c138 0 213 -105 213 -260v-16h-380c6 -114 74 -191 177 -191c80 0 135 46 149 116zM284 457c-105 0 -158 -78 -167 -172h320c-7 92 -48 172 -153 172z
" />
    <glyph glyph-name="eacute" unicode="&#xe9;" horiz-adv-x="560" 
d="M391 699l-103 -125h-67l90 125h80zM442 158h55c-8 -88 -78 -168 -205 -168c-154 0 -237 118 -237 260c0 143 82 259 228 259c138 0 213 -105 213 -260v-16h-380c6 -114 74 -191 177 -191c80 0 135 46 149 116zM284 457c-105 0 -158 -78 -167 -172h320
c-7 92 -48 172 -153 172z" />
    <glyph glyph-name="ecircumflex" unicode="&#xea;" horiz-adv-x="560" 
d="M278 642l-61 -82h-64l90 125h70l90 -125h-64zM442 158h55c-8 -88 -78 -168 -205 -168c-154 0 -237 118 -237 260c0 143 82 259 228 259c138 0 213 -105 213 -260v-16h-380c6 -114 74 -191 177 -191c80 0 135 46 149 116zM284 457c-105 0 -158 -78 -167 -172h320
c-7 92 -48 172 -153 172z" />
    <glyph glyph-name="edieresis" unicode="&#xeb;" horiz-adv-x="560" 
d="M216 657v-70h-68v70h68zM406 657v-70h-68v70h68zM442 158h55c-8 -88 -78 -168 -205 -168c-154 0 -237 118 -237 260c0 143 82 259 228 259c138 0 213 -105 213 -260v-16h-380c6 -114 74 -191 177 -191c80 0 135 46 149 116zM284 457c-105 0 -158 -78 -167 -172h320
c-7 92 -48 172 -153 172z" />
    <glyph glyph-name="igrave" unicode="&#xec;" horiz-adv-x="220" 
d="M77 699l90 -125h-67l-103 125h80zM140 0h-60v500h60v-500z" />
    <glyph glyph-name="iacute" unicode="&#xed;" horiz-adv-x="220" 
d="M143 699h80l-103 -125h-67zM140 0h-60v500h60v-500z" />
    <glyph glyph-name="icircumflex" unicode="&#xee;" horiz-adv-x="220" 
d="M235 560h-64l-61 82l-61 -82h-64l90 125h70zM140 0h-60v500h60v-500z" />
    <glyph glyph-name="idieresis" unicode="&#xef;" horiz-adv-x="220" 
d="M-20 587v70h68v-70h-68zM170 587v70h68v-70h-68zM140 0h-60v500h60v-500z" />
    <glyph glyph-name="eth" unicode="&#xf0;" horiz-adv-x="564" 
d="M409 610c86 -88 100 -221 100 -312c0 -208 -82 -308 -224 -308c-128 0 -230 86 -230 239c0 144 92 241 220 241c87 0 146 -42 173 -90c-7 65 -28 147 -90 203l-138 -70l-23 46l113 57c-38 20 -86 32 -148 32h-36v52h36c89 0 156 -21 205 -55l109 55l22 -45zM280 42
c89 0 164 57 164 187c0 123 -70 189 -164 189c-105 0 -165 -86 -165 -194c0 -123 77 -182 165 -182z" />
    <glyph glyph-name="ntilde" unicode="&#xf1;" 
d="M209 623c-26 0 -46 -21 -52 -48h-42c10 68 54 100 97 100c65 0 76 -51 121 -51c26 0 46 21 52 48h43c-10 -68 -55 -100 -98 -100c-65 0 -76 51 -121 51zM336 510c95 0 151 -61 151 -188v-322h-60v296c0 112 -29 163 -101 163c-93 0 -187 -121 -187 -303v-156h-59v500h59
v-166c34 104 93 176 197 176z" />
    <glyph glyph-name="ograve" unicode="&#xf2;" horiz-adv-x="574" 
d="M254 699l90 -125h-67l-103 125h80zM287 -10c-143 0 -232 111 -232 259c0 149 89 260 232 260s232 -111 232 -260c0 -148 -89 -259 -232 -259zM287 41c111 0 173 92 173 208c0 117 -62 208 -173 208s-173 -91 -173 -208c0 -116 62 -208 173 -208z" />
    <glyph glyph-name="oacute" unicode="&#xf3;" horiz-adv-x="574" 
d="M320 699h80l-103 -125h-67zM287 -10c-143 0 -232 111 -232 259c0 149 89 260 232 260s232 -111 232 -260c0 -148 -89 -259 -232 -259zM287 41c111 0 173 92 173 208c0 117 -62 208 -173 208s-173 -91 -173 -208c0 -116 62 -208 173 -208z" />
    <glyph glyph-name="ocircumflex" unicode="&#xf4;" horiz-adv-x="574" 
d="M412 560h-64l-61 82l-61 -82h-64l90 125h70zM287 -10c-143 0 -232 111 -232 259c0 149 89 260 232 260s232 -111 232 -260c0 -148 -89 -259 -232 -259zM287 41c111 0 173 92 173 208c0 117 -62 208 -173 208s-173 -91 -173 -208c0 -116 62 -208 173 -208z" />
    <glyph glyph-name="otilde" unicode="&#xf5;" horiz-adv-x="574" 
d="M130 575c10 68 54 100 97 100c65 0 76 -51 121 -51c26 0 46 21 52 48h43c-10 -68 -55 -100 -98 -100c-65 0 -76 51 -121 51c-26 0 -46 -21 -52 -48h-42zM287 -10c-143 0 -232 111 -232 259c0 149 89 260 232 260s232 -111 232 -260c0 -148 -89 -259 -232 -259zM287 41
c111 0 173 92 173 208c0 117 -62 208 -173 208s-173 -91 -173 -208c0 -116 62 -208 173 -208z" />
    <glyph glyph-name="odieresis" unicode="&#xf6;" horiz-adv-x="574" 
d="M157 587v70h68v-70h-68zM347 587v70h68v-70h-68zM287 -10c-143 0 -232 111 -232 259c0 149 89 260 232 260s232 -111 232 -260c0 -148 -89 -259 -232 -259zM287 41c111 0 173 92 173 208c0 117 -62 208 -173 208s-173 -91 -173 -208c0 -116 62 -208 173 -208z" />
    <glyph glyph-name="divide" unicode="&#xf7;" horiz-adv-x="590" 
d="M261 382v70h68v-70h-68zM70 272h450v-52h-450v52zM261 40v70h68v-70h-68z" />
    <glyph glyph-name="oslash" unicode="&#xf8;" horiz-adv-x="574" 
d="M531 487l-61 -69c32 -45 49 -103 49 -169c0 -148 -89 -259 -232 -259c-60 0 -110 19 -148 52l-56 -63l-40 32l61 70c-32 44 -49 102 -49 168c0 149 89 260 232 260c60 0 110 -19 149 -53l55 63zM114 249c0 -47 10 -90 29 -124l256 290c-28 26 -66 42 -112 42
c-111 0 -173 -91 -173 -208zM460 249c0 47 -10 90 -29 124l-256 -289c28 -27 66 -43 112 -43c111 0 173 92 173 208z" />
    <glyph glyph-name="ugrave" unicode="&#xf9;" 
d="M339 574h-67l-103 125h80zM426 500h59v-500h-59v166c-34 -104 -93 -176 -197 -176c-95 0 -151 61 -151 188v322h60v-296c0 -112 29 -163 101 -163c93 0 187 121 187 303v156z" />
    <glyph glyph-name="uacute" unicode="&#xfa;" 
d="M395 699l-103 -125h-67l90 125h80zM426 500h59v-500h-59v166c-34 -104 -93 -176 -197 -176c-95 0 -151 61 -151 188v322h60v-296c0 -112 29 -163 101 -163c93 0 187 121 187 303v156z" />
    <glyph glyph-name="ucircumflex" unicode="&#xfb;" 
d="M282 642l-61 -82h-64l90 125h70l90 -125h-64zM426 500h59v-500h-59v166c-34 -104 -93 -176 -197 -176c-95 0 -151 61 -151 188v322h60v-296c0 -112 29 -163 101 -163c93 0 187 121 187 303v156z" />
    <glyph glyph-name="udieresis" unicode="&#xfc;" 
d="M220 657v-70h-68v70h68zM410 657v-70h-68v70h68zM426 500h59v-500h-59v166c-34 -104 -93 -176 -197 -176c-95 0 -151 61 -151 188v322h60v-296c0 -112 29 -163 101 -163c93 0 187 121 187 303v156z" />
    <glyph glyph-name="yacute" unicode="&#xfd;" horiz-adv-x="541" 
d="M380 699l-103 -125h-67l90 125h80zM445 500h61l-219 -591c-34 -90 -65 -129 -163 -129h-80v51h68c62 0 89 16 110 72l26 70l-217 527h66l182 -445z" />
    <glyph glyph-name="thorn" unicode="&#xfe;" horiz-adv-x="567" 
d="M296 510c124 0 216 -101 216 -264c0 -153 -80 -256 -211 -256c-101 0 -148 63 -162 92v-302h-59v930h59v-294c25 57 83 94 157 94zM297 44c106 0 156 82 156 197c0 114 -50 216 -161 216c-101 0 -153 -79 -153 -203c0 -132 56 -210 158 -210z" />
    <glyph glyph-name="ydieresis" unicode="&#xff;" horiz-adv-x="541" 
d="M205 657v-70h-68v70h68zM395 657v-70h-68v70h68zM445 500h61l-219 -591c-34 -90 -65 -129 -163 -129h-80v51h68c62 0 89 16 110 72l26 70l-217 527h66l182 -445z" />
    <glyph glyph-name="Amacron" unicode="&#x100;" horiz-adv-x="644" 
d="M470 850v-57h-297v57h297zM546 0l-67 187h-314l-67 -187h-68l255 700h74l255 -700h-68zM186 245h272l-136 377z" />
    <glyph glyph-name="amacron" unicode="&#x101;" horiz-adv-x="539" 
d="M404 637v-52h-270v52h270zM280 509c99 0 181 -52 181 -157v-352h-60v104c-20 -45 -76 -114 -179 -114c-87 0 -161 49 -161 144c0 85 58 123 189 144c99 16 151 24 151 82c0 56 -51 97 -124 97c-87 0 -129 -46 -135 -127h-58c4 100 62 179 196 179zM231 42
c95 0 170 71 170 183v47c-34 -19 -83 -31 -137 -41c-88 -16 -145 -36 -145 -100c0 -62 53 -89 112 -89z" />
    <glyph glyph-name="Abreve" unicode="&#x102;" horiz-adv-x="644" 
d="M323 768c-81 0 -135 61 -135 132h62c2 -38 24 -77 72 -77c49 0 68 39 71 77h62c0 -71 -50 -132 -132 -132zM546 0l-67 187h-314l-67 -187h-68l255 700h74l255 -700h-68zM186 245h272l-136 377z" />
    <glyph glyph-name="abreve" unicode="&#x103;" horiz-adv-x="539" 
d="M270 570c-74 0 -123 55 -123 120h56c2 -35 22 -70 66 -70s62 35 64 70h57c0 -65 -46 -120 -120 -120zM280 509c99 0 181 -52 181 -157v-352h-60v104c-20 -45 -76 -114 -179 -114c-87 0 -161 49 -161 144c0 85 58 123 189 144c99 16 151 24 151 82c0 56 -51 97 -124 97
c-87 0 -129 -46 -135 -127h-58c4 100 62 179 196 179zM231 42c95 0 170 71 170 183v47c-34 -19 -83 -31 -137 -41c-88 -16 -145 -36 -145 -100c0 -62 53 -89 112 -89z" />
    <glyph glyph-name="Aogonek" unicode="&#x104;" horiz-adv-x="644" 
d="M617 -163h16v-57h-28c-90 0 -136 53 -136 110c0 46 30 84 77 110l-67 187h-314l-67 -187h-68l255 700h74l255 -700c-40 -22 -79 -65 -79 -105c0 -37 27 -58 82 -58zM186 245h272l-136 377z" />
    <glyph glyph-name="aogonek" unicode="&#x105;" horiz-adv-x="539" 
d="M464 -148h14v-52h-25c-82 0 -124 48 -124 100c0 43 28 77 72 101v103c-20 -45 -76 -114 -179 -114c-87 0 -161 49 -161 144c0 85 58 123 189 144c99 16 151 24 151 82c0 56 -51 97 -124 97c-87 0 -129 -46 -135 -127h-58c4 100 62 179 196 179c99 0 181 -52 181 -157
v-352c-36 -20 -72 -59 -72 -95c0 -34 25 -53 75 -53zM231 42c95 0 170 71 170 183v47c-34 -19 -83 -31 -137 -41c-88 -16 -145 -36 -145 -100c0 -62 53 -89 112 -89z" />
    <glyph glyph-name="Cacute" unicode="&#x106;" horiz-adv-x="736" 
d="M407 914h88l-113 -138h-74zM670 230c-22 -157 -128 -240 -281 -240c-205 0 -322 149 -322 352c0 212 124 368 325 368c154 0 251 -93 272 -230h-67c-16 95 -85 172 -209 172c-164 0 -256 -136 -256 -309c0 -169 92 -295 262 -295c114 0 187 55 211 182h65z" />
    <glyph glyph-name="cacute" unicode="&#x107;" horiz-adv-x="560" 
d="M308 699h80l-103 -125h-67zM436 330c-11 80 -73 127 -149 127c-109 0 -172 -96 -172 -209c0 -120 70 -207 182 -207c89 0 132 52 146 118h58c-18 -101 -88 -169 -205 -169c-156 0 -241 119 -241 260s88 259 231 259c113 0 198 -73 209 -179h-59z" />
    <glyph glyph-name="Ccircumflex" unicode="&#x108;" horiz-adv-x="736" 
d="M519 767h-70l-67 90l-68 -90h-70l99 138h77zM670 230c-22 -157 -128 -240 -281 -240c-205 0 -322 149 -322 352c0 212 124 368 325 368c154 0 251 -93 272 -230h-67c-16 95 -85 172 -209 172c-164 0 -256 -136 -256 -309c0 -169 92 -295 262 -295c114 0 187 55 211 182
h65z" />
    <glyph glyph-name="ccircumflex" unicode="&#x109;" horiz-adv-x="560" 
d="M400 560h-64l-61 82l-61 -82h-64l90 125h70zM436 330c-11 80 -73 127 -149 127c-109 0 -172 -96 -172 -209c0 -120 70 -207 182 -207c89 0 132 52 146 118h58c-18 -101 -88 -169 -205 -169c-156 0 -241 119 -241 260s88 259 231 259c113 0 198 -73 209 -179h-59z" />
    <glyph glyph-name="Cdotaccent" unicode="&#x10a;" horiz-adv-x="736" 
d="M340 800v85h84v-85h-84zM670 230c-22 -157 -128 -240 -281 -240c-205 0 -322 149 -322 352c0 212 124 368 325 368c154 0 251 -93 272 -230h-67c-16 95 -85 172 -209 172c-164 0 -256 -136 -256 -309c0 -169 92 -295 262 -295c114 0 187 55 211 182h65z" />
    <glyph glyph-name="cdotaccent" unicode="&#x10b;" horiz-adv-x="560" 
d="M237 596v78h76v-78h-76zM436 330c-11 80 -73 127 -149 127c-109 0 -172 -96 -172 -209c0 -120 70 -207 182 -207c89 0 132 52 146 118h58c-18 -101 -88 -169 -205 -169c-156 0 -241 119 -241 260s88 259 231 259c113 0 198 -73 209 -179h-59z" />
    <glyph glyph-name="Ccaron" unicode="&#x10c;" horiz-adv-x="736" 
d="M449 905h70l-99 -138h-77l-99 138h70l68 -91zM670 230c-22 -157 -128 -240 -281 -240c-205 0 -322 149 -322 352c0 212 124 368 325 368c154 0 251 -93 272 -230h-67c-16 95 -85 172 -209 172c-164 0 -256 -136 -256 -309c0 -169 92 -295 262 -295c114 0 187 55 211 182
h65z" />
    <glyph glyph-name="ccaron" unicode="&#x10d;" horiz-adv-x="560" 
d="M336 685h64l-90 -125h-70l-90 125h64l61 -82zM436 330c-11 80 -73 127 -149 127c-109 0 -172 -96 -172 -209c0 -120 70 -207 182 -207c89 0 132 52 146 118h58c-18 -101 -88 -169 -205 -169c-156 0 -241 119 -241 260s88 259 231 259c113 0 198 -73 209 -179h-59z" />
    <glyph glyph-name="Dcaron" unicode="&#x10e;" horiz-adv-x="692" 
d="M347 767h-77l-99 138h70l68 -91l67 91h70zM292 700c224 0 333 -142 333 -350s-109 -350 -333 -350h-202v700h202zM282 57c218 0 276 144 276 295c0 145 -53 291 -276 291h-128v-586h128z" />
    <glyph glyph-name="dcaron" unicode="&#x10f;" horiz-adv-x="568" 
d="M428 416v294h60v-710h-60v82c-14 -29 -60 -92 -162 -92c-131 0 -211 103 -211 256c0 163 92 264 216 264c74 0 133 -37 157 -94zM558 700h76v-48c0 -80 -18 -111 -86 -122v30c39 10 46 27 46 70h-36v70zM270 44c102 0 158 78 158 210c0 124 -51 203 -153 203
c-111 0 -161 -102 -161 -216c0 -115 50 -197 156 -197z" />
    <glyph glyph-name="Dcroat" unicode="&#x110;" horiz-adv-x="692" 
d="M292 700c224 0 333 -142 333 -350s-109 -350 -333 -350h-202v320h-134v58h134v322h202zM282 57c218 0 276 144 276 295c0 145 -53 291 -276 291h-128v-265h264v-58h-264v-263h128z" />
    <glyph glyph-name="dcroat" unicode="&#x111;" horiz-adv-x="568" 
d="M561 620v-52h-73v-568h-60v82c-14 -29 -60 -92 -162 -92c-131 0 -211 103 -211 256c0 163 92 264 216 264c74 0 133 -37 157 -94v152h-142v52h142v90h60v-90h73zM270 44c102 0 158 78 158 210c0 124 -51 203 -153 203c-111 0 -161 -102 -161 -216
c0 -115 50 -197 156 -197z" />
    <glyph glyph-name="Emacron" unicode="&#x112;" horiz-adv-x="575" 
d="M443 850v-57h-297v57h297zM500 642h-345v-257h325v-58h-325v-269h345v-58h-410v700h410v-58z" />
    <glyph glyph-name="emacron" unicode="&#x113;" horiz-adv-x="560" 
d="M413 637v-52h-270v52h270zM442 158h55c-8 -88 -78 -168 -205 -168c-154 0 -237 118 -237 260c0 143 82 259 228 259c138 0 213 -105 213 -260v-16h-380c6 -114 74 -191 177 -191c80 0 135 46 149 116zM284 457c-105 0 -158 -78 -167 -172h320c-7 92 -48 172 -153 172z
" />
    <glyph glyph-name="Ebreve" unicode="&#x114;" horiz-adv-x="575" 
d="M296 768c-81 0 -135 61 -135 132h62c2 -38 24 -77 72 -77c49 0 68 39 71 77h62c0 -71 -50 -132 -132 -132zM500 642h-345v-257h325v-58h-325v-269h345v-58h-410v700h410v-58z" />
    <glyph glyph-name="ebreve" unicode="&#x115;" horiz-adv-x="560" 
d="M279 570c-74 0 -123 55 -123 120h56c2 -35 22 -70 66 -70s62 35 64 70h57c0 -65 -46 -120 -120 -120zM442 158h55c-8 -88 -78 -168 -205 -168c-154 0 -237 118 -237 260c0 143 82 259 228 259c138 0 213 -105 213 -260v-16h-380c6 -114 74 -191 177 -191
c80 0 135 46 149 116zM284 457c-105 0 -158 -78 -167 -172h320c-7 92 -48 172 -153 172z" />
    <glyph glyph-name="Edotaccent" unicode="&#x116;" horiz-adv-x="575" 
d="M337 885v-85h-84v85h84zM500 642h-345v-257h325v-58h-325v-269h345v-58h-410v700h410v-58z" />
    <glyph glyph-name="edotaccent" unicode="&#x117;" horiz-adv-x="560" 
d="M316 674v-78h-76v78h76zM442 158h55c-8 -88 -78 -168 -205 -168c-154 0 -237 118 -237 260c0 143 82 259 228 259c138 0 213 -105 213 -260v-16h-380c6 -114 74 -191 177 -191c80 0 135 46 149 116zM284 457c-105 0 -158 -78 -167 -172h320c-7 92 -48 172 -153 172z" />
    <glyph glyph-name="Eogonek" unicode="&#x118;" horiz-adv-x="575" 
d="M500 642h-345v-257h325v-58h-325v-269h345v-58h-147c-40 -22 -79 -65 -79 -105c0 -37 27 -58 82 -58h16v-57h-28c-90 0 -136 53 -136 110c0 46 29 84 76 110h-194v700h410v-58z" />
    <glyph glyph-name="eogonek" unicode="&#x119;" horiz-adv-x="560" 
d="M334 -7c-32 -21 -61 -56 -61 -88c0 -34 25 -53 75 -53h14v-52h-25c-82 0 -124 48 -124 100c0 37 21 68 55 91c-139 12 -213 125 -213 259c0 143 82 259 228 259c138 0 213 -105 213 -260v-16h-380c6 -114 74 -191 177 -191c80 0 135 46 149 116h55
c-7 -78 -63 -149 -163 -165zM284 457c-105 0 -158 -78 -167 -172h320c-7 92 -48 172 -153 172z" />
    <glyph glyph-name="Ecaron" unicode="&#x11a;" horiz-adv-x="575" 
d="M333 767h-77l-99 138h70l68 -91l67 91h70zM500 642h-345v-257h325v-58h-325v-269h345v-58h-410v700h410v-58z" />
    <glyph glyph-name="ecaron" unicode="&#x11b;" horiz-adv-x="560" 
d="M313 560h-70l-90 125h64l61 -82l61 82h64zM442 158h55c-8 -88 -78 -168 -205 -168c-154 0 -237 118 -237 260c0 143 82 259 228 259c138 0 213 -105 213 -260v-16h-380c6 -114 74 -191 177 -191c80 0 135 46 149 116zM284 457c-105 0 -158 -78 -167 -172h320
c-7 92 -48 172 -153 172z" />
    <glyph glyph-name="Gcircumflex" unicode="&#x11c;" horiz-adv-x="763" 
d="M390 857l-68 -90h-70l99 138h77l99 -138h-70zM361 347h320v-347h-49l-7 136c-41 -98 -122 -146 -234 -146c-202 0 -324 152 -324 358c0 210 128 362 327 362c169 0 273 -90 285 -237h-64c-14 113 -98 179 -224 179c-164 0 -259 -131 -259 -302s94 -302 263 -302
c134 0 222 89 222 241h-256v58z" />
    <glyph glyph-name="gcircumflex" unicode="&#x11d;" 
d="M273 642l-61 -82h-64l90 125h70l90 -125h-64zM426 500h59v-501c0 -145 -70 -229 -211 -229c-138 0 -200 87 -205 182h56c5 -57 37 -128 150 -128c124 0 151 84 151 185v76c-13 -31 -58 -95 -160 -95c-131 0 -211 103 -211 256c0 163 92 264 215 264c74 0 132 -37 156 -93
v83zM269 44c102 0 157 79 157 208c0 125 -51 203 -150 203c-112 0 -160 -101 -160 -214c0 -114 49 -197 153 -197z" />
    <glyph glyph-name="Gbreve" unicode="&#x11e;" horiz-adv-x="763" 
d="M391 768c-81 0 -135 61 -135 132h62c2 -38 24 -77 72 -77c49 0 68 39 71 77h62c0 -71 -50 -132 -132 -132zM361 347h320v-347h-49l-7 136c-41 -98 -122 -146 -234 -146c-202 0 -324 152 -324 358c0 210 128 362 327 362c169 0 273 -90 285 -237h-64
c-14 113 -98 179 -224 179c-164 0 -259 -131 -259 -302s94 -302 263 -302c134 0 222 89 222 241h-256v58z" />
    <glyph glyph-name="gbreve" unicode="&#x11f;" 
d="M274 570c-74 0 -123 55 -123 120h56c2 -35 22 -70 66 -70s62 35 64 70h57c0 -65 -46 -120 -120 -120zM426 500h59v-501c0 -145 -70 -229 -211 -229c-138 0 -200 87 -205 182h56c5 -57 37 -128 150 -128c124 0 151 84 151 185v76c-13 -31 -58 -95 -160 -95
c-131 0 -211 103 -211 256c0 163 92 264 215 264c74 0 132 -37 156 -93v83zM269 44c102 0 157 79 157 208c0 125 -51 203 -150 203c-112 0 -160 -101 -160 -214c0 -114 49 -197 153 -197z" />
    <glyph glyph-name="Gdotaccent" unicode="&#x120;" horiz-adv-x="763" 
d="M432 885v-85h-84v85h84zM361 347h320v-347h-49l-7 136c-41 -98 -122 -146 -234 -146c-202 0 -324 152 -324 358c0 210 128 362 327 362c169 0 273 -90 285 -237h-64c-14 113 -98 179 -224 179c-164 0 -259 -131 -259 -302s94 -302 263 -302c134 0 222 89 222 241h-256v58
z" />
    <glyph glyph-name="gdotaccent" unicode="&#x121;" 
d="M311 674v-78h-76v78h76zM426 500h59v-501c0 -145 -70 -229 -211 -229c-138 0 -200 87 -205 182h56c5 -57 37 -128 150 -128c124 0 151 84 151 185v76c-13 -31 -58 -95 -160 -95c-131 0 -211 103 -211 256c0 163 92 264 215 264c74 0 132 -37 156 -93v83zM269 44
c102 0 157 79 157 208c0 125 -51 203 -150 203c-112 0 -160 -101 -160 -214c0 -114 49 -197 153 -197z" />
    <glyph glyph-name="Gcommaaccent" unicode="&#x122;" horiz-adv-x="763" 
d="M361 347h320v-347h-49l-7 136c-41 -98 -122 -146 -234 -146c-202 0 -324 152 -324 358c0 210 128 362 327 362c169 0 273 -90 285 -237h-64c-14 113 -98 179 -224 179c-164 0 -259 -131 -259 -302s94 -302 263 -302c134 0 222 89 222 241h-256v58zM350 -152v77h84v-53
c0 -88 -20 -122 -95 -134v33c43 11 50 30 50 77h-39z" />
    <glyph glyph-name="gcommaaccent" unicode="&#x123;" 
d="M305 638v-62h-64v43c0 71 15 98 73 108v-27c-33 -8 -38 -24 -38 -62h29zM426 500h59v-501c0 -145 -70 -229 -211 -229c-138 0 -200 87 -205 182h56c5 -57 37 -128 150 -128c124 0 151 84 151 185v76c-13 -31 -58 -95 -160 -95c-131 0 -211 103 -211 256
c0 163 92 264 215 264c74 0 132 -37 156 -93v83zM269 44c102 0 157 79 157 208c0 125 -51 203 -150 203c-112 0 -160 -101 -160 -214c0 -114 49 -197 153 -197z" />
    <glyph glyph-name="Hcircumflex" unicode="&#x124;" horiz-adv-x="713" 
d="M356 857l-68 -90h-70l99 138h77l99 -138h-70zM558 700h65v-700h-65v327h-403v-327h-65v700h65v-315h403v315z" />
    <glyph glyph-name="hcircumflex" unicode="&#x125;" 
d="M157 770l-61 82l-61 -82h-64l90 125h70l90 -125h-64zM336 510c95 0 151 -61 151 -188v-322h-60v296c0 112 -29 163 -101 163c-93 0 -187 -121 -187 -303v-156h-59v710h59v-376c34 104 93 176 197 176z" />
    <glyph glyph-name="Hbar" unicode="&#x126;" horiz-adv-x="693" 
d="M548 700h65v-700h-65v194h-403v-194h-65v700h65v-206h403v206zM145 252h403v184h-403v-184z" />
    <glyph glyph-name="hbar" unicode="&#x127;" 
d="M336 510c95 0 151 -61 151 -188v-322h-60v296c0 112 -29 163 -101 163c-93 0 -187 -121 -187 -303v-156h-59v568h-97v52h97v90h59v-90h119v-52h-119v-234c34 104 93 176 197 176z" />
    <glyph glyph-name="Itilde" unicode="&#x128;" horiz-adv-x="245" 
d="M-49 791c11 74 59 110 107 110c71 0 83 -57 133 -57c28 0 50 24 57 53h47c-11 -75 -60 -110 -107 -110c-72 0 -84 56 -134 56c-28 0 -50 -23 -57 -52h-46zM155 0h-65v700h65v-700z" />
    <glyph glyph-name="itilde" unicode="&#x129;" horiz-adv-x="220" 
d="M-47 575c10 68 54 100 97 100c65 0 76 -51 121 -51c26 0 46 21 52 48h43c-10 -68 -55 -100 -98 -100c-65 0 -76 51 -121 51c-26 0 -46 -21 -52 -48h-42zM140 0h-60v500h60v-500z" />
    <glyph glyph-name="Imacron" unicode="&#x12a;" horiz-adv-x="245" 
d="M-26 850h297v-57h-297v57zM155 0h-65v700h65v-700z" />
    <glyph glyph-name="imacron" unicode="&#x12b;" horiz-adv-x="220" 
d="M-25 637h270v-52h-270v52zM140 0h-60v500h60v-500z" />
    <glyph glyph-name="Ibreve" unicode="&#x12c;" horiz-adv-x="245" 
d="M256 900c0 -71 -50 -132 -132 -132c-81 0 -135 61 -135 132h62c2 -38 24 -77 72 -77c49 0 68 39 71 77h62zM155 0h-65v700h65v-700z" />
    <glyph glyph-name="ibreve" unicode="&#x12d;" horiz-adv-x="220" 
d="M231 690c0 -65 -46 -120 -120 -120s-123 55 -123 120h56c2 -35 22 -70 66 -70s62 35 64 70h57zM140 0h-60v500h60v-500z" />
    <glyph glyph-name="Iogonek" unicode="&#x12e;" horiz-adv-x="245" 
d="M158 -163h16v-57h-28c-90 0 -136 53 -136 110c0 47 31 86 80 112v698h65v-700c-40 -22 -79 -65 -79 -105c0 -37 27 -58 82 -58z" />
    <glyph glyph-name="iogonek" unicode="&#x12f;" horiz-adv-x="220" 
d="M148 674v-78h-76v78h76zM143 -148h14v-52h-25c-82 0 -124 48 -124 100c0 43 28 77 72 101v499h60v-500c-36 -20 -72 -59 -72 -95c0 -34 25 -53 75 -53z" />
    <glyph glyph-name="Idotaccent" unicode="&#x130;" horiz-adv-x="245" 
d="M81 800v85h84v-85h-84zM155 0h-65v700h65v-700z" />
    <glyph glyph-name="dotlessi" unicode="&#x131;" horiz-adv-x="220" 
d="M140 0h-60v500h60v-500z" />
    <glyph glyph-name="IJ" unicode="&#x132;" horiz-adv-x="860" 
d="M155 0h-65v700h65v-700zM708 700h65v-440c0 -176 -88 -270 -241 -270c-150 0 -236 94 -236 255v32h64v-32c0 -131 66 -197 169 -197c114 0 179 75 179 221v431z" />
    <glyph glyph-name="ij" unicode="&#x133;" horiz-adv-x="440" 
d="M148 674v-78h-76v78h76zM292 674h76v-78h-76v78zM80 0v500h60v-500h-60zM300 500h60v-574c0 -90 -51 -146 -146 -146h-69v52h61c64 0 95 32 94 104v564z" />
    <glyph glyph-name="Jcircumflex" unicode="&#x134;" horiz-adv-x="626" 
d="M644 767h-70l-67 90l-68 -90h-70l99 138h77zM474 700h65v-440c0 -176 -88 -270 -241 -270c-150 0 -236 94 -236 255v32h64v-32c0 -131 66 -197 169 -197c114 0 179 75 179 221v431z" />
    <glyph glyph-name="jcircumflex" unicode="&#x135;" horiz-adv-x="220" 
d="M145 685l90 -125h-64l-61 82l-61 -82h-64l90 125h70zM80 500h60v-574c0 -90 -51 -146 -146 -146h-69v52h61c64 0 95 32 94 104v564z" />
    <glyph glyph-name="Kcommaaccent" unicode="&#x136;" horiz-adv-x="588" 
d="M259 374l303 -374h-81l-266 324l-60 -68v-256h-65v700h65v-346l306 346h84zM273 -152v77h84v-53c0 -88 -20 -122 -95 -134v33c43 11 50 30 50 77h-39z" />
    <glyph glyph-name="kcommaaccent" unicode="&#x137;" horiz-adv-x="486" 
d="M237 277l227 -277h-72l-196 234l-59 -61v-173h-57v710h57v-455l240 245h75zM222 -138v70h76v-48c0 -80 -18 -111 -86 -122v30c39 10 46 27 46 70h-36z" />
    <glyph glyph-name="Lacute" unicode="&#x139;" horiz-adv-x="577" 
d="M237 914l-113 -138h-74l99 138h88zM158 58h361v-58h-429v700h68v-642z" />
    <glyph glyph-name="lacute" unicode="&#x13a;" horiz-adv-x="220" 
d="M143 909h80l-103 -125h-67zM140 0h-60v710h60v-710z" />
    <glyph glyph-name="Lcommaaccent" unicode="&#x13b;" horiz-adv-x="577" 
d="M158 58h361v-58h-429v700h68v-642zM263 -152v77h84v-53c0 -88 -20 -122 -95 -134v33c43 11 50 30 50 77h-39z" />
    <glyph glyph-name="lcommaaccent" unicode="&#x13c;" horiz-adv-x="220" 
d="M140 710v-710h-60v710h60zM71 -68h76v-48c0 -80 -18 -111 -86 -122v30c39 10 46 27 46 70h-36v70z" />
    <glyph glyph-name="Lcaron" unicode="&#x13d;" horiz-adv-x="577" 
d="M158 58h361v-58h-429v700h68v-642zM363 647c0 -88 -20 -122 -95 -134v33c43 11 50 30 50 77h-39v77h84v-53z" />
    <glyph glyph-name="lcaron" unicode="&#x13e;" horiz-adv-x="220" 
d="M80 0v710h60v-710h-60zM211 700h76v-48c0 -80 -18 -111 -86 -122v30c39 10 46 27 46 70h-36v70z" />
    <glyph glyph-name="Ldot" unicode="&#x13f;" horiz-adv-x="577" 
d="M158 58h361v-58h-429v700h68v-642zM378 412v-78h-76v78h76z" />
    <glyph glyph-name="Lslash" unicode="&#x141;" horiz-adv-x="577" 
d="M158 58h361v-58h-429v264l-105 -73v76l105 73v360h68v-313l165 114v-76l-165 -114v-253z" />
    <glyph glyph-name="lslash" unicode="&#x142;" horiz-adv-x="220" 
d="M239 509v-73l-99 -90v-346h-60v291l-99 -90v73l99 90v346h60v-291z" />
    <glyph glyph-name="Nacute" unicode="&#x143;" horiz-adv-x="720" 
d="M473 914l-113 -138h-74l99 138h88zM566 700h64v-700h-84l-392 626v-626h-64v700h85l391 -626v626z" />
    <glyph glyph-name="nacute" unicode="&#x144;" 
d="M385 699l-103 -125h-67l90 125h80zM336 510c95 0 151 -61 151 -188v-322h-60v296c0 112 -29 163 -101 163c-93 0 -187 -121 -187 -303v-156h-59v500h59v-166c34 104 93 176 197 176z" />
    <glyph glyph-name="Ncommaaccent" unicode="&#x145;" horiz-adv-x="720" 
d="M566 700h64v-700h-84l-392 626v-626h-64v700h85l391 -626v626zM328 -152v77h84v-53c0 -88 -20 -122 -95 -134v33c43 11 50 30 50 77h-39z" />
    <glyph glyph-name="ncommaaccent" unicode="&#x146;" 
d="M336 510c95 0 151 -61 151 -188v-322h-60v296c0 112 -29 163 -101 163c-93 0 -187 -121 -187 -303v-156h-59v500h59v-166c34 104 93 176 197 176zM244 -138v70h76v-48c0 -80 -18 -111 -86 -122v30c39 10 46 27 46 70h-36z" />
    <glyph glyph-name="Ncaron" unicode="&#x147;" horiz-adv-x="720" 
d="M398 767h-77l-99 138h70l68 -91l67 91h70zM566 700h64v-700h-84l-392 626v-626h-64v700h85l391 -626v626z" />
    <glyph glyph-name="ncaron" unicode="&#x148;" 
d="M307 560h-70l-90 125h64l61 -82l61 82h64zM336 510c95 0 151 -61 151 -188v-322h-60v296c0 112 -29 163 -101 163c-93 0 -187 -121 -187 -303v-156h-59v500h59v-166c34 104 93 176 197 176z" />
    <glyph glyph-name="Eng" unicode="&#x14a;" horiz-adv-x="720" 
d="M566 700h64v-767c0 -94 -54 -153 -147 -153h-75v58h64c63 0 92 30 93 106v56h-19l-392 626v-626h-64v700h85l391 -626v626z" />
    <glyph glyph-name="eng" unicode="&#x14b;" 
d="M336 510c95 0 151 -61 151 -188v-396c0 -90 -51 -146 -146 -146h-69v52h61c64 0 95 32 94 104v360c0 112 -29 163 -101 163c-93 0 -187 -121 -187 -303v-156h-59v500h59v-166c34 104 93 176 197 176z" />
    <glyph glyph-name="Omacron" unicode="&#x14c;" horiz-adv-x="776" 
d="M239 850h297v-57h-297v57zM388 -10c-201 0 -321 142 -321 360s120 360 321 360s321 -142 321 -360s-120 -360 -321 -360zM388 48c158 0 256 119 256 302s-98 302 -256 302s-256 -119 -256 -302s98 -302 256 -302z" />
    <glyph glyph-name="omacron" unicode="&#x14d;" horiz-adv-x="574" 
d="M152 637h270v-52h-270v52zM287 -10c-143 0 -232 111 -232 259c0 149 89 260 232 260s232 -111 232 -260c0 -148 -89 -259 -232 -259zM287 41c111 0 173 92 173 208c0 117 -62 208 -173 208s-173 -91 -173 -208c0 -116 62 -208 173 -208z" />
    <glyph glyph-name="Obreve" unicode="&#x14e;" horiz-adv-x="776" 
d="M521 900c0 -71 -50 -132 -132 -132c-81 0 -135 61 -135 132h62c2 -38 24 -77 72 -77c49 0 68 39 71 77h62zM388 -10c-201 0 -321 142 -321 360s120 360 321 360s321 -142 321 -360s-120 -360 -321 -360zM388 48c158 0 256 119 256 302s-98 302 -256 302
s-256 -119 -256 -302s98 -302 256 -302z" />
    <glyph glyph-name="obreve" unicode="&#x14f;" horiz-adv-x="574" 
d="M408 690c0 -65 -46 -120 -120 -120s-123 55 -123 120h56c2 -35 22 -70 66 -70s62 35 64 70h57zM287 -10c-143 0 -232 111 -232 259c0 149 89 260 232 260s232 -111 232 -260c0 -148 -89 -259 -232 -259zM287 41c111 0 173 92 173 208c0 117 -62 208 -173 208
s-173 -91 -173 -208c0 -116 62 -208 173 -208z" />
    <glyph glyph-name="Ohungarumlaut" unicode="&#x150;" horiz-adv-x="776" 
d="M344 914h80l-91 -137h-66zM497 914h80l-91 -137h-66zM388 -10c-201 0 -321 142 -321 360s120 360 321 360s321 -142 321 -360s-120 -360 -321 -360zM388 48c158 0 256 119 256 302s-98 302 -256 302s-256 -119 -256 -302s98 -302 256 -302z" />
    <glyph glyph-name="ohungarumlaut" unicode="&#x151;" horiz-adv-x="574" 
d="M252 690h73l-83 -125h-60zM391 690h73l-83 -125h-60zM287 -10c-143 0 -232 111 -232 259c0 149 89 260 232 260s232 -111 232 -260c0 -148 -89 -259 -232 -259zM287 41c111 0 173 92 173 208c0 117 -62 208 -173 208s-173 -91 -173 -208c0 -116 62 -208 173 -208z" />
    <glyph glyph-name="OE" unicode="&#x152;" horiz-adv-x="1129" 
d="M1054 642h-345v-257h325v-58h-325v-269h345v-58h-410v114c-55 -79 -142 -124 -256 -124c-201 0 -321 142 -321 360s120 360 321 360c114 0 201 -45 256 -124v114h410v-58zM388 48c158 0 256 119 256 302s-98 302 -256 302s-256 -119 -256 -302s98 -302 256 -302z" />
    <glyph glyph-name="oe" unicode="&#x153;" horiz-adv-x="965" 
d="M847 158h55c-8 -88 -78 -168 -205 -168c-100 0 -171 50 -207 124c-37 -75 -108 -124 -203 -124c-143 0 -232 111 -232 259c0 149 89 260 232 260c94 0 165 -48 202 -123c36 74 104 123 199 123c138 0 213 -105 213 -260v-16h-380c6 -114 74 -191 177 -191
c80 0 135 46 149 116zM287 41c111 0 173 92 173 208c0 117 -62 208 -173 208s-173 -91 -173 -208c0 -116 62 -208 173 -208zM689 457c-105 0 -158 -78 -167 -172h320c-7 92 -48 172 -153 172z" />
    <glyph glyph-name="Racute" unicode="&#x154;" horiz-adv-x="628" 
d="M401 914l-113 -138h-74l99 138h88zM519 174l56 -174h-69l-56 169c-43 131 -119 117 -295 117v-286h-65v700h222c170 0 235 -103 235 -204c0 -82 -43 -159 -143 -188c51 -17 90 -55 115 -134zM329 642h-174v-298h174c112 0 153 84 153 152c0 69 -42 146 -153 146z" />
    <glyph glyph-name="racute" unicode="&#x155;" horiz-adv-x="415" 
d="M336 699l-103 -125h-67l90 125h80zM308 500h62v-51h-66c-81 0 -164 -54 -164 -231v-218h-60v500h60v-126c28 79 72 126 168 126z" />
    <glyph glyph-name="Rcommaaccent" unicode="&#x156;" horiz-adv-x="628" 
d="M519 174l56 -174h-69l-56 169c-43 131 -119 117 -295 117v-286h-65v700h222c170 0 235 -103 235 -204c0 -82 -43 -159 -143 -188c51 -17 90 -55 115 -134zM329 642h-174v-298h174c112 0 153 84 153 152c0 69 -42 146 -153 146zM291 -152v77h84v-53
c0 -88 -20 -122 -95 -134v33c43 11 50 30 50 77h-39z" />
    <glyph glyph-name="rcommaaccent" unicode="&#x157;" horiz-adv-x="415" 
d="M308 500h62v-51h-66c-81 0 -164 -54 -164 -231v-218h-60v500h60v-126c28 79 72 126 168 126zM71 -138v70h76v-48c0 -80 -18 -111 -86 -122v30c39 10 46 27 46 70h-36z" />
    <glyph glyph-name="Rcaron" unicode="&#x158;" horiz-adv-x="628" 
d="M326 767h-77l-99 138h70l68 -91l67 91h70zM519 174l56 -174h-69l-56 169c-43 131 -119 117 -295 117v-286h-65v700h222c170 0 235 -103 235 -204c0 -82 -43 -159 -143 -188c51 -17 90 -55 115 -134zM329 642h-174v-298h174c112 0 153 84 153 152c0 69 -42 146 -153 146z
" />
    <glyph glyph-name="rcaron" unicode="&#x159;" horiz-adv-x="415" 
d="M258 560h-70l-90 125h64l61 -82l61 82h64zM308 500h62v-51h-66c-81 0 -164 -54 -164 -231v-218h-60v500h60v-126c28 79 72 126 168 126z" />
    <glyph glyph-name="Sacute" unicode="&#x15a;" horiz-adv-x="636" 
d="M330 914h88l-113 -138h-74zM135 200c13 -105 78 -152 184 -152c102 0 141 44 141 112c0 80 -51 112 -209 155c-132 36 -198 96 -198 201c0 120 109 194 238 194c167 0 259 -79 276 -240h-64c-14 105 -66 182 -210 182c-92 0 -175 -45 -175 -136c0 -80 43 -117 198 -159
c104 -28 209 -73 209 -193c0 -108 -75 -174 -208 -174c-150 0 -234 82 -246 210h64z" />
    <glyph glyph-name="sacute" unicode="&#x15b;" horiz-adv-x="493" 
d="M275 699h80l-103 -125h-67zM124 148c5 -70 52 -106 130 -106c67 0 108 22 108 77c0 73 -85 83 -159 105c-92 27 -149 64 -149 146c0 86 74 139 183 139c99 0 192 -44 206 -181h-57c-5 93 -72 130 -152 130c-88 0 -123 -42 -123 -87c0 -59 41 -79 137 -105
c84 -23 175 -54 175 -147c0 -89 -79 -129 -171 -129c-107 0 -179 56 -185 158h57z" />
    <glyph glyph-name="Scircumflex" unicode="&#x15c;" horiz-adv-x="636" 
d="M442 767h-70l-67 90l-68 -90h-70l99 138h77zM135 200c13 -105 78 -152 184 -152c102 0 141 44 141 112c0 80 -51 112 -209 155c-132 36 -198 96 -198 201c0 120 109 194 238 194c167 0 259 -79 276 -240h-64c-14 105 -66 182 -210 182c-92 0 -175 -45 -175 -136
c0 -80 43 -117 198 -159c104 -28 209 -73 209 -193c0 -108 -75 -174 -208 -174c-150 0 -234 82 -246 210h64z" />
    <glyph glyph-name="scircumflex" unicode="&#x15d;" horiz-adv-x="493" 
d="M367 560h-64l-61 82l-61 -82h-64l90 125h70zM124 148c5 -70 52 -106 130 -106c67 0 108 22 108 77c0 73 -85 83 -159 105c-92 27 -149 64 -149 146c0 86 74 139 183 139c99 0 192 -44 206 -181h-57c-5 93 -72 130 -152 130c-88 0 -123 -42 -123 -87
c0 -59 41 -79 137 -105c84 -23 175 -54 175 -147c0 -89 -79 -129 -171 -129c-107 0 -179 56 -185 158h57z" />
    <glyph glyph-name="Scedilla" unicode="&#x15e;" horiz-adv-x="636" 
d="M316 357c104 -28 209 -73 209 -193c0 -98 -62 -162 -173 -172c38 -26 62 -61 62 -102c0 -57 -46 -110 -137 -110h-48v55h40c55 0 82 23 82 60c0 35 -30 73 -65 96c-130 11 -204 90 -215 209h64c13 -105 78 -152 184 -152c102 0 141 44 141 112c0 80 -51 112 -209 155
c-132 36 -198 96 -198 201c0 120 109 194 238 194c167 0 259 -79 276 -240h-64c-14 105 -66 182 -210 182c-92 0 -175 -45 -175 -136c0 -80 43 -117 198 -159z" />
    <glyph glyph-name="scedilla" unicode="&#x15f;" horiz-adv-x="493" 
d="M248 266c84 -23 175 -54 175 -147c0 -79 -62 -119 -140 -127c35 -24 56 -55 56 -92c0 -52 -42 -100 -124 -100h-44v50h36c50 0 75 21 75 55c0 31 -27 65 -58 86c-91 10 -152 64 -157 157h57c5 -70 52 -106 130 -106c67 0 108 22 108 77c0 73 -85 83 -159 105
c-92 27 -149 64 -149 146c0 86 74 139 183 139c99 0 192 -44 206 -181h-57c-5 93 -72 130 -152 130c-88 0 -123 -42 -123 -87c0 -59 41 -79 137 -105z" />
    <glyph glyph-name="Scaron" unicode="&#x160;" horiz-adv-x="636" 
d="M372 905h70l-99 -138h-77l-99 138h70l68 -91zM135 200c13 -105 78 -152 184 -152c102 0 141 44 141 112c0 80 -51 112 -209 155c-132 36 -198 96 -198 201c0 120 109 194 238 194c167 0 259 -79 276 -240h-64c-14 105 -66 182 -210 182c-92 0 -175 -45 -175 -136
c0 -80 43 -117 198 -159c104 -28 209 -73 209 -193c0 -108 -75 -174 -208 -174c-150 0 -234 82 -246 210h64z" />
    <glyph glyph-name="scaron" unicode="&#x161;" horiz-adv-x="493" 
d="M303 685h64l-90 -125h-70l-90 125h64l61 -82zM124 148c5 -70 52 -106 130 -106c67 0 108 22 108 77c0 73 -85 83 -159 105c-92 27 -149 64 -149 146c0 86 74 139 183 139c99 0 192 -44 206 -181h-57c-5 93 -72 130 -152 130c-88 0 -123 -42 -123 -87
c0 -59 41 -79 137 -105c84 -23 175 -54 175 -147c0 -89 -79 -129 -171 -129c-107 0 -179 56 -185 158h57z" />
    <glyph glyph-name="uni0162" unicode="&#x162;" horiz-adv-x="635" 
d="M588 642h-238v-642c47 -26 77 -64 77 -110c0 -57 -46 -110 -137 -110h-48v55h40c55 0 82 23 82 60c0 40 -39 83 -79 105v642h-238v58h541v-58z" />
    <glyph glyph-name="uni0163" unicode="&#x163;" horiz-adv-x="364" 
d="M332 0c43 -24 70 -58 70 -100c0 -52 -42 -100 -124 -100h-44v50h36c50 0 75 21 75 55c0 36 -36 75 -72 95h-4c-88 0 -138 56 -138 146v302h-95v52h95v120l60 10v-130h120v-52h-120v-292c0 -72 29 -104 86 -104h55v-52z" />
    <glyph glyph-name="Tcaron" unicode="&#x164;" horiz-adv-x="635" 
d="M356 767h-77l-99 138h70l68 -91l67 91h70zM588 700v-58h-238v-642h-65v642h-238v58h541z" />
    <glyph glyph-name="tcaron" unicode="&#x165;" horiz-adv-x="364" 
d="M271 700h76v-48c0 -80 -18 -111 -86 -122v30c39 10 46 27 46 70h-36v70zM191 156c0 -72 29 -104 86 -104h55v-52h-63c-88 0 -138 56 -138 146v302h-95v52h95v120l60 10v-130h120v-52h-120v-292z" />
    <glyph glyph-name="Tbar" unicode="&#x166;" horiz-adv-x="635" 
d="M588 642h-238v-221h198v-58h-198v-363h-65v363h-199v58h199v221h-238v58h541v-58z" />
    <glyph glyph-name="tbar" unicode="&#x167;" horiz-adv-x="364" 
d="M277 52h55v-52h-63c-88 0 -138 56 -138 146v132h-95v52h95v118h-95v52h95v120l60 10v-130h120v-52h-120v-118h120v-52h-120v-122c0 -72 29 -104 86 -104z" />
    <glyph glyph-name="Utilde" unicode="&#x168;" horiz-adv-x="704" 
d="M180 791c11 74 59 110 107 110c71 0 83 -57 133 -57c28 0 50 24 57 53h47c-11 -75 -60 -110 -107 -110c-72 0 -84 56 -134 56c-28 0 -50 -23 -57 -52h-46zM87 700h65v-401c0 -166 62 -251 200 -251s200 85 200 251v401h65v-410c0 -191 -84 -300 -265 -300
s-265 109 -265 300v410z" />
    <glyph glyph-name="utilde" unicode="&#x169;" 
d="M219 623c-26 0 -46 -21 -52 -48h-42c10 68 54 100 97 100c65 0 76 -51 121 -51c26 0 46 21 52 48h43c-10 -68 -55 -100 -98 -100c-65 0 -76 51 -121 51zM426 500h59v-500h-59v166c-34 -104 -93 -176 -197 -176c-95 0 -151 61 -151 188v322h60v-296
c0 -112 29 -163 101 -163c93 0 187 121 187 303v156z" />
    <glyph glyph-name="Umacron" unicode="&#x16a;" horiz-adv-x="704" 
d="M203 850h297v-57h-297v57zM87 700h65v-401c0 -166 62 -251 200 -251s200 85 200 251v401h65v-410c0 -191 -84 -300 -265 -300s-265 109 -265 300v410z" />
    <glyph glyph-name="umacron" unicode="&#x16b;" 
d="M417 637v-52h-270v52h270zM426 500h59v-500h-59v166c-34 -104 -93 -176 -197 -176c-95 0 -151 61 -151 188v322h60v-296c0 -112 29 -163 101 -163c93 0 187 121 187 303v156z" />
    <glyph glyph-name="Ubreve" unicode="&#x16c;" horiz-adv-x="704" 
d="M485 900c0 -71 -50 -132 -132 -132c-81 0 -135 61 -135 132h62c2 -38 24 -77 72 -77c49 0 68 39 71 77h62zM87 700h65v-401c0 -166 62 -251 200 -251s200 85 200 251v401h65v-410c0 -191 -84 -300 -265 -300s-265 109 -265 300v410z" />
    <glyph glyph-name="ubreve" unicode="&#x16d;" 
d="M283 570c-74 0 -123 55 -123 120h56c2 -35 22 -70 66 -70s62 35 64 70h57c0 -65 -46 -120 -120 -120zM426 500h59v-500h-59v166c-34 -104 -93 -176 -197 -176c-95 0 -151 61 -151 188v322h60v-296c0 -112 29 -163 101 -163c93 0 187 121 187 303v156z" />
    <glyph glyph-name="Uring" unicode="&#x16e;" horiz-adv-x="704" 
d="M352 727c-63 0 -105 47 -105 104c0 58 42 105 105 105c62 0 104 -47 104 -105c0 -57 -42 -104 -104 -104zM352 779c29 0 49 25 49 52c0 28 -20 52 -49 52c-30 0 -50 -24 -50 -52c0 -27 20 -52 50 -52zM87 700h65v-401c0 -166 62 -251 200 -251s200 85 200 251v401h65
v-410c0 -191 -84 -300 -265 -300s-265 109 -265 300v410z" />
    <glyph glyph-name="uring" unicode="&#x16f;" 
d="M282 545c-57 0 -95 43 -95 95c0 53 38 95 95 95s95 -42 95 -95c0 -52 -38 -95 -95 -95zM282 687c-27 0 -45 -22 -45 -47s18 -47 45 -47s45 22 45 47s-18 47 -45 47zM426 500h59v-500h-59v166c-34 -104 -93 -176 -197 -176c-95 0 -151 61 -151 188v322h60v-296
c0 -112 29 -163 101 -163c93 0 187 121 187 303v156z" />
    <glyph glyph-name="Uhungarumlaut" unicode="&#x170;" horiz-adv-x="704" 
d="M308 914h80l-91 -137h-66zM461 914h80l-91 -137h-66zM87 700h65v-401c0 -166 62 -251 200 -251s200 85 200 251v401h65v-410c0 -191 -84 -300 -265 -300s-265 109 -265 300v410z" />
    <glyph glyph-name="uhungarumlaut" unicode="&#x171;" 
d="M320 690l-83 -125h-60l70 125h73zM376 565h-60l70 125h73zM426 500h59v-500h-59v166c-34 -104 -93 -176 -197 -176c-95 0 -151 61 -151 188v322h60v-296c0 -112 29 -163 101 -163c93 0 187 121 187 303v156z" />
    <glyph glyph-name="Uogonek" unicode="&#x172;" horiz-adv-x="704" 
d="M552 700h65v-410c0 -165 -63 -269 -197 -294c-37 -23 -72 -63 -72 -101c0 -37 27 -58 82 -58h16v-57h-28c-90 0 -136 53 -136 110c0 40 23 75 60 100c-174 4 -255 112 -255 300v410h65v-401c0 -166 62 -251 200 -251s200 85 200 251v401z" />
    <glyph glyph-name="uogonek" unicode="&#x173;" 
d="M488 -148h14v-52h-25c-82 0 -124 48 -124 100c0 43 28 78 73 102v164c-34 -104 -93 -176 -197 -176c-95 0 -151 61 -151 188v322h60v-296c0 -112 29 -163 101 -163c93 0 187 121 187 303v156h59v-500c-36 -20 -72 -59 -72 -95c0 -34 25 -53 75 -53z" />
    <glyph glyph-name="Wcircumflex" unicode="&#x174;" horiz-adv-x="984" 
d="M492 857l-68 -90h-70l99 138h77l99 -138h-70zM867 700h64l-156 -700h-73l-210 636l-210 -636h-73l-156 700h64l132 -619l204 619h78l204 -619z" />
    <glyph glyph-name="wcircumflex" unicode="&#x175;" horiz-adv-x="748" 
d="M374 642l-61 -82h-64l90 125h70l90 -125h-64zM646 501h59l-122 -501h-71l-138 438l-138 -438h-71l-122 501h59l102 -427l136 427h68l136 -427z" />
    <glyph glyph-name="Ycircumflex" unicode="&#x176;" horiz-adv-x="625" 
d="M305 857l-68 -90h-70l99 138h77l99 -138h-70zM509 700h70l-331 -700h-70l125 265l-271 435h73l230 -368z" />
    <glyph glyph-name="ycircumflex" unicode="&#x177;" horiz-adv-x="541" 
d="M267 642l-61 -82h-64l90 125h70l90 -125h-64zM445 500h61l-219 -591c-34 -90 -65 -129 -163 -129h-80v51h68c62 0 89 16 110 72l26 70l-217 527h66l182 -445z" />
    <glyph glyph-name="Ydieresis" unicode="&#x178;" horiz-adv-x="625" 
d="M238 856v-77h-75v77h75zM447 856v-77h-75v77h75zM509 700h70l-331 -700h-70l125 265l-271 435h73l230 -368z" />
    <glyph glyph-name="Zacute" unicode="&#x179;" horiz-adv-x="617" 
d="M419 914l-113 -138h-74l99 138h88zM147 58h398v-58h-484v48l384 594h-359v58h446v-48z" />
    <glyph glyph-name="zacute" unicode="&#x17a;" horiz-adv-x="493" 
d="M354 699l-103 -125h-67l90 125h80zM135 52h289v-52h-371v42l282 407h-262v52h341v-43z" />
    <glyph glyph-name="Zdotaccent" unicode="&#x17b;" horiz-adv-x="617" 
d="M348 885v-85h-84v85h84zM147 58h398v-58h-484v48l384 594h-359v58h446v-48z" />
    <glyph glyph-name="zdotaccent" unicode="&#x17c;" horiz-adv-x="493" 
d="M279 674v-78h-76v78h76zM135 52h289v-52h-371v42l282 407h-262v52h341v-43z" />
    <glyph glyph-name="Zcaron" unicode="&#x17d;" horiz-adv-x="617" 
d="M344 767h-77l-99 138h70l68 -91l67 91h70zM147 58h398v-58h-484v48l384 594h-359v58h446v-48z" />
    <glyph glyph-name="zcaron" unicode="&#x17e;" horiz-adv-x="493" 
d="M276 560h-70l-90 125h64l61 -82l61 82h64zM135 52h289v-52h-371v42l282 407h-262v52h341v-43z" />
    <glyph glyph-name="florin" unicode="&#x192;" horiz-adv-x="630" 
d="M508 643c-82 0 -102 -50 -117 -114l-33 -143h191v-54h-204l-34 -146c-29 -126 -63 -186 -176 -186h-95v57h82c82 0 105 49 119 113l36 162h-166v54h178l31 138c27 123 62 176 176 176h94v-57h-82z" />
    <glyph glyph-name="uni01CD" unicode="&#x1cd;" horiz-adv-x="644" 
d="M360 767h-77l-99 138h70l68 -91l67 91h70zM546 0l-67 187h-314l-67 -187h-68l255 700h74l255 -700h-68zM186 245h272l-136 377z" />
    <glyph glyph-name="uni01CE" unicode="&#x1ce;" horiz-adv-x="539" 
d="M304 560h-70l-90 125h64l61 -82l61 82h64zM280 509c99 0 181 -52 181 -157v-352h-60v104c-20 -45 -76 -114 -179 -114c-87 0 -161 49 -161 144c0 85 58 123 189 144c99 16 151 24 151 82c0 56 -51 97 -124 97c-87 0 -129 -46 -135 -127h-58c4 100 62 179 196 179zM231 42
c95 0 170 71 170 183v47c-34 -19 -83 -31 -137 -41c-88 -16 -145 -36 -145 -100c0 -62 53 -89 112 -89z" />
    <glyph glyph-name="uni01CF" unicode="&#x1cf;" horiz-adv-x="245" 
d="M190 905h70l-99 -138h-77l-99 138h70l68 -91zM155 0h-65v700h65v-700z" />
    <glyph glyph-name="uni01D0" unicode="&#x1d0;" horiz-adv-x="220" 
d="M171 685h64l-90 -125h-70l-90 125h64l61 -82zM140 0h-60v500h60v-500z" />
    <glyph glyph-name="uni01D1" unicode="&#x1d1;" horiz-adv-x="776" 
d="M455 905h70l-99 -138h-77l-99 138h70l68 -91zM388 -10c-201 0 -321 142 -321 360s120 360 321 360s321 -142 321 -360s-120 -360 -321 -360zM388 48c158 0 256 119 256 302s-98 302 -256 302s-256 -119 -256 -302s98 -302 256 -302z" />
    <glyph glyph-name="uni01D2" unicode="&#x1d2;" horiz-adv-x="574" 
d="M348 685h64l-90 -125h-70l-90 125h64l61 -82zM287 -10c-143 0 -232 111 -232 259c0 149 89 260 232 260s232 -111 232 -260c0 -148 -89 -259 -232 -259zM287 41c111 0 173 92 173 208c0 117 -62 208 -173 208s-173 -91 -173 -208c0 -116 62 -208 173 -208z" />
    <glyph glyph-name="uni01D3" unicode="&#x1d3;" horiz-adv-x="704" 
d="M419 905h70l-99 -138h-77l-99 138h70l68 -91zM87 700h65v-401c0 -166 62 -251 200 -251s200 85 200 251v401h65v-410c0 -191 -84 -300 -265 -300s-265 109 -265 300v410z" />
    <glyph glyph-name="uni01D4" unicode="&#x1d4;" 
d="M317 560h-70l-90 125h64l61 -82l61 82h64zM426 500h59v-500h-59v166c-34 -104 -93 -176 -197 -176c-95 0 -151 61 -151 188v322h60v-296c0 -112 29 -163 101 -163c93 0 187 121 187 303v156z" />
    <glyph glyph-name="uni01E2" unicode="&#x1e2;" horiz-adv-x="871" 
d="M656 850v-57h-297v57h297zM796 642h-416l94 -257h302v-58h-281l98 -269h203v-58h-250l-67 187h-314l-67 -187h-68l255 700h511v-58zM186 245h272l-136 377z" />
    <glyph glyph-name="uni01E3" unicode="&#x1e3;" horiz-adv-x="906" 
d="M582 637v-52h-270v52h270zM788 158h55c-8 -88 -78 -168 -205 -168c-102 0 -172 51 -209 127c-33 -82 -110 -127 -207 -127c-87 0 -161 49 -161 144c0 85 58 123 189 144c99 16 151 24 151 82c0 56 -51 97 -124 97c-87 0 -129 -46 -135 -127h-58c4 100 62 179 196 179
c74 0 138 -29 166 -95c39 58 101 95 183 95c138 0 213 -105 213 -260v-16h-380c6 -114 74 -191 177 -191c80 0 135 46 149 116zM630 457c-105 0 -158 -78 -167 -172h320c-7 92 -48 172 -153 172zM231 42c95 0 170 71 170 183v47c-34 -19 -83 -31 -137 -41
c-88 -16 -145 -36 -145 -100c0 -62 53 -89 112 -89z" />
    <glyph glyph-name="uni01EB" unicode="&#x1eb;" horiz-adv-x="574" 
d="M356 0c-35 -20 -71 -59 -71 -95c0 -34 25 -53 75 -53h14v-52h-25c-82 0 -124 48 -124 100c0 36 20 67 53 90c-138 4 -223 114 -223 259c0 149 89 260 232 260s232 -111 232 -260c0 -122 -61 -219 -163 -249zM114 249c0 -116 62 -208 173 -208s173 92 173 208
c0 117 -62 208 -173 208s-173 -91 -173 -208z" />
    <glyph glyph-name="AEacute" unicode="&#x1fc;" horiz-adv-x="871" 
d="M621 914l-113 -138h-74l99 138h88zM796 642h-416l94 -257h302v-58h-281l98 -269h203v-58h-250l-67 187h-314l-67 -187h-68l255 700h511v-58zM186 245h272l-136 377z" />
    <glyph glyph-name="aeacute" unicode="&#x1fd;" horiz-adv-x="906" 
d="M560 699l-103 -125h-67l90 125h80zM788 158h55c-8 -88 -78 -168 -205 -168c-102 0 -172 51 -209 127c-33 -82 -110 -127 -207 -127c-87 0 -161 49 -161 144c0 85 58 123 189 144c99 16 151 24 151 82c0 56 -51 97 -124 97c-87 0 -129 -46 -135 -127h-58
c4 100 62 179 196 179c74 0 138 -29 166 -95c39 58 101 95 183 95c138 0 213 -105 213 -260v-16h-380c6 -114 74 -191 177 -191c80 0 135 46 149 116zM630 457c-105 0 -158 -78 -167 -172h320c-7 92 -48 172 -153 172zM231 42c95 0 170 71 170 183v47
c-34 -19 -83 -31 -137 -41c-88 -16 -145 -36 -145 -100c0 -62 53 -89 112 -89z" />
    <glyph glyph-name="Oslashacute" unicode="&#x1fe;" horiz-adv-x="776" 
d="M501 914l-113 -138h-74l99 138h88zM636 597c47 -62 73 -146 73 -247c0 -218 -120 -360 -321 -360c-83 0 -153 24 -206 69l-66 -79l-48 38l72 85c-47 62 -73 146 -73 247c0 218 120 360 321 360c83 0 153 -24 206 -69l66 79l48 -38zM132 350c0 -78 18 -145 51 -196
l370 439c-43 38 -98 59 -165 59c-158 0 -256 -119 -256 -302zM388 48c158 0 256 119 256 302c0 78 -18 145 -51 196l-370 -439c43 -38 98 -59 165 -59z" />
    <glyph glyph-name="oslashacute" unicode="&#x1ff;" horiz-adv-x="574" 
d="M400 699l-103 -125h-67l90 125h80zM531 487l-61 -69c32 -45 49 -103 49 -169c0 -148 -89 -259 -232 -259c-60 0 -110 19 -148 52l-56 -63l-40 32l61 70c-32 44 -49 102 -49 168c0 149 89 260 232 260c60 0 110 -19 149 -53l55 63zM114 249c0 -47 10 -90 29 -124l256 290
c-28 26 -66 42 -112 42c-111 0 -173 -91 -173 -208zM460 249c0 47 -10 90 -29 124l-256 -289c28 -27 66 -43 112 -43c111 0 173 92 173 208z" />
    <glyph glyph-name="Scommaaccent" unicode="&#x218;" horiz-adv-x="636" 
d="M316 357c104 -28 209 -73 209 -193c0 -108 -75 -174 -208 -174c-150 0 -234 82 -246 210h64c13 -105 78 -152 184 -152c102 0 141 44 141 112c0 80 -51 112 -209 155c-132 36 -198 96 -198 201c0 120 109 194 238 194c167 0 259 -79 276 -240h-64
c-14 105 -66 182 -210 182c-92 0 -175 -45 -175 -136c0 -80 43 -117 198 -159zM272 -152v77h84v-53c0 -88 -20 -122 -95 -134v33c43 11 50 30 50 77h-39z" />
    <glyph glyph-name="scommaaccent" unicode="&#x219;" horiz-adv-x="493" 
d="M248 266c84 -23 175 -54 175 -147c0 -89 -79 -129 -171 -129c-107 0 -179 56 -185 158h57c5 -70 52 -106 130 -106c67 0 108 22 108 77c0 73 -85 83 -159 105c-92 27 -149 64 -149 146c0 86 74 139 183 139c99 0 192 -44 206 -181h-57c-5 93 -72 130 -152 130
c-88 0 -123 -42 -123 -87c0 -59 41 -79 137 -105zM210 -138v70h76v-48c0 -80 -18 -111 -86 -122v30c39 10 46 27 46 70h-36z" />
    <glyph glyph-name="uni021A" unicode="&#x21a;" horiz-adv-x="635" 
d="M588 700v-58h-238v-642h-65v642h-238v58h541zM276 -152v77h84v-53c0 -88 -20 -122 -95 -134v33c43 11 50 30 50 77h-39z" />
    <glyph glyph-name="uni021B" unicode="&#x21b;" horiz-adv-x="364" 
d="M277 52h55v-52h-63c-88 0 -138 56 -138 146v302h-95v52h95v120l60 10v-130h120v-52h-120v-292c0 -72 29 -104 86 -104zM196 -138v70h76v-48c0 -80 -18 -111 -86 -122v30c39 10 46 27 46 70h-36z" />
    <glyph glyph-name="uni0226" unicode="&#x226;" horiz-adv-x="644" 
d="M364 885v-85h-84v85h84zM546 0l-67 187h-314l-67 -187h-68l255 700h74l255 -700h-68zM186 245h272l-136 377z" />
    <glyph glyph-name="uni0227" unicode="&#x227;" horiz-adv-x="539" 
d="M307 674v-78h-76v78h76zM280 509c99 0 181 -52 181 -157v-352h-60v104c-20 -45 -76 -114 -179 -114c-87 0 -161 49 -161 144c0 85 58 123 189 144c99 16 151 24 151 82c0 56 -51 97 -124 97c-87 0 -129 -46 -135 -127h-58c4 100 62 179 196 179zM231 42
c95 0 170 71 170 183v47c-34 -19 -83 -31 -137 -41c-88 -16 -145 -36 -145 -100c0 -62 53 -89 112 -89z" />
    <glyph glyph-name="uni0232" unicode="&#x232;" horiz-adv-x="625" 
d="M453 850v-57h-297v57h297zM509 700h70l-331 -700h-70l125 265l-271 435h73l230 -368z" />
    <glyph glyph-name="uni0233" unicode="&#x233;" horiz-adv-x="541" 
d="M402 637v-52h-270v52h270zM445 500h61l-219 -591c-34 -90 -65 -129 -163 -129h-80v51h68c62 0 89 16 110 72l26 70l-217 527h66l182 -445z" />
    <glyph glyph-name="uni0237" unicode="&#x237;" horiz-adv-x="220" 
d="M80 500h60v-574c0 -90 -51 -146 -146 -146h-69v52h61c64 0 95 32 94 104v564z" />
    <glyph glyph-name="circumflex" unicode="&#x2c6;" horiz-adv-x="400" 
d="M325 560h-64l-61 82l-61 -82h-64l90 125h70z" />
    <glyph glyph-name="caron" unicode="&#x2c7;" horiz-adv-x="400" 
d="M261 685h64l-90 -125h-70l-90 125h64l61 -82z" />
    <glyph glyph-name="breve" unicode="&#x2d8;" horiz-adv-x="400" 
d="M322 690c0 -65 -46 -120 -120 -120s-123 55 -123 120h56c2 -35 22 -70 66 -70s62 35 64 70h57z" />
    <glyph glyph-name="dotaccent" unicode="&#x2d9;" horiz-adv-x="400" 
d="M162 596v78h76v-78h-76z" />
    <glyph glyph-name="ring" unicode="&#x2da;" horiz-adv-x="400" 
d="M200 545c-57 0 -95 43 -95 95c0 53 38 95 95 95s95 -42 95 -95c0 -52 -38 -95 -95 -95zM200 593c27 0 45 22 45 47s-18 47 -45 47s-45 -22 -45 -47s18 -47 45 -47z" />
    <glyph glyph-name="ogonek" unicode="&#x2db;" horiz-adv-x="400" 
d="M198 2l59 -2c-36 -20 -72 -59 -72 -95c0 -34 25 -53 75 -53h14v-52h-25c-82 0 -124 48 -124 100c0 43 28 78 73 102z" />
    <glyph glyph-name="tilde" unicode="&#x2dc;" horiz-adv-x="400" 
d="M44 575c10 68 54 100 97 100c65 0 76 -51 121 -51c26 0 46 21 52 48h43c-10 -68 -55 -100 -98 -100c-65 0 -76 51 -121 51c-26 0 -46 -21 -52 -48h-42z" />
    <glyph glyph-name="hungarumlaut" unicode="&#x2dd;" horiz-adv-x="400" 
d="M136 690h73l-83 -125h-60zM275 690h73l-83 -125h-60z" />
    <glyph glyph-name="uni0394" unicode="&#x394;" horiz-adv-x="688" 
d="M379 700l269 -652v-48h-608v48l269 652h70zM111 58h466l-233 573z" />
    <glyph glyph-name="uni03A9" unicode="&#x3a9;" horiz-adv-x="796" 
d="M719 357c0 -127 -48 -241 -142 -299h136v-58h-255v48c128 39 196 161 196 309c0 158 -98 295 -256 295s-256 -137 -256 -295c0 -148 68 -270 196 -309v-48h-255v58h136c-94 58 -142 172 -142 299c0 193 120 353 321 353s321 -160 321 -353z" />
    <glyph glyph-name="uni03BC" unicode="&#x3bc;" horiz-adv-x="567" 
d="M428 500h59v-500h-59v166c-34 -104 -93 -176 -197 -176c-37 0 -68 9 -92 28v-238h-59v720h60v-296c0 -112 29 -163 101 -163c93 0 187 121 187 303v156z" />
    <glyph glyph-name="pi" unicode="&#x3c0;" horiz-adv-x="663" 
d="M575 52h45v-52h-53c-88 0 -138 58 -138 150v298h-215v-448h-60v448h-110v52h555v-52h-110v-287c0 -76 29 -109 86 -109z" />
    <glyph glyph-name="Wgrave" unicode="&#x1e80;" horiz-adv-x="984" 
d="M566 776h-74l-113 138h88zM867 700h64l-156 -700h-73l-210 636l-210 -636h-73l-156 700h64l132 -619l204 619h78l204 -619z" />
    <glyph glyph-name="wgrave" unicode="&#x1e81;" horiz-adv-x="748" 
d="M431 574h-67l-103 125h80zM646 501h59l-122 -501h-71l-138 438l-138 -438h-71l-122 501h59l102 -427l136 427h68l136 -427z" />
    <glyph glyph-name="Wacute" unicode="&#x1e82;" horiz-adv-x="984" 
d="M605 914l-113 -138h-74l99 138h88zM867 700h64l-156 -700h-73l-210 636l-210 -636h-73l-156 700h64l132 -619l204 619h78l204 -619z" />
    <glyph glyph-name="wacute" unicode="&#x1e83;" horiz-adv-x="748" 
d="M487 699l-103 -125h-67l90 125h80zM646 501h59l-122 -501h-71l-138 438l-138 -438h-71l-122 501h59l102 -427l136 427h68l136 -427z" />
    <glyph glyph-name="Wdieresis" unicode="&#x1e84;" horiz-adv-x="984" 
d="M425 856v-77h-75v77h75zM634 856v-77h-75v77h75zM867 700h64l-156 -700h-73l-210 636l-210 -636h-73l-156 700h64l132 -619l204 619h78l204 -619z" />
    <glyph glyph-name="wdieresis" unicode="&#x1e85;" horiz-adv-x="748" 
d="M312 657v-70h-68v70h68zM502 657v-70h-68v70h68zM646 501h59l-122 -501h-71l-138 438l-138 -438h-71l-122 501h59l102 -427l136 427h68l136 -427z" />
    <glyph glyph-name="uni1EA0" unicode="&#x1ea0;" horiz-adv-x="644" 
d="M614 0h-68l-67 187h-314l-67 -187h-68l255 700h74zM186 245h272l-136 377zM280 -194v85h84v-85h-84z" />
    <glyph glyph-name="uni1EA1" unicode="&#x1ea1;" horiz-adv-x="539" 
d="M280 509c99 0 181 -52 181 -157v-352h-60v104c-20 -45 -76 -114 -179 -114c-87 0 -161 49 -161 144c0 85 58 123 189 144c99 16 151 24 151 82c0 56 -51 97 -124 97c-87 0 -129 -46 -135 -127h-58c4 100 62 179 196 179zM231 42c95 0 170 71 170 183v47
c-34 -19 -83 -31 -137 -41c-88 -16 -145 -36 -145 -100c0 -62 53 -89 112 -89zM235 -174v78h76v-78h-76z" />
    <glyph glyph-name="uni1EB8" unicode="&#x1eb8;" horiz-adv-x="575" 
d="M500 642h-345v-257h325v-58h-325v-269h345v-58h-410v700h410v-58zM243 -194v85h84v-85h-84z" />
    <glyph glyph-name="uni1EB9" unicode="&#x1eb9;" horiz-adv-x="560" 
d="M442 158h55c-8 -88 -78 -168 -205 -168c-154 0 -237 118 -237 260c0 143 82 259 228 259c138 0 213 -105 213 -260v-16h-380c6 -114 74 -191 177 -191c80 0 135 46 149 116zM284 457c-105 0 -158 -78 -167 -172h320c-7 92 -48 172 -153 172zM247 -174v78h76v-78h-76z" />
    <glyph glyph-name="uni1ECA" unicode="&#x1eca;" horiz-adv-x="245" 
d="M155 0h-65v700h65v-700zM80 -194v85h84v-85h-84z" />
    <glyph glyph-name="uni1ECC" unicode="&#x1ecc;" horiz-adv-x="776" 
d="M388 -10c-201 0 -321 142 -321 360s120 360 321 360s321 -142 321 -360s-120 -360 -321 -360zM388 48c158 0 256 119 256 302s-98 302 -256 302s-256 -119 -256 -302s98 -302 256 -302zM346 -194v85h84v-85h-84z" />
    <glyph glyph-name="uni1ECD" unicode="&#x1ecd;" horiz-adv-x="574" 
d="M287 -10c-143 0 -232 111 -232 259c0 149 89 260 232 260s232 -111 232 -260c0 -148 -89 -259 -232 -259zM287 41c111 0 173 92 173 208c0 117 -62 208 -173 208s-173 -91 -173 -208c0 -116 62 -208 173 -208zM249 -174v78h76v-78h-76z" />
    <glyph glyph-name="uni1EE4" unicode="&#x1ee4;" horiz-adv-x="704" 
d="M87 700h65v-401c0 -166 62 -251 200 -251s200 85 200 251v401h65v-410c0 -191 -84 -300 -265 -300s-265 109 -265 300v410zM310 -194v85h84v-85h-84z" />
    <glyph glyph-name="uni1EE5" unicode="&#x1ee5;" 
d="M426 500h59v-500h-59v166c-34 -104 -93 -176 -197 -176c-95 0 -151 61 -151 188v322h60v-296c0 -112 29 -163 101 -163c93 0 187 121 187 303v156zM258 -174v78h76v-78h-76z" />
    <glyph glyph-name="Ygrave" unicode="&#x1ef2;" horiz-adv-x="625" 
d="M379 776h-74l-113 138h88zM509 700h70l-331 -700h-70l125 265l-271 435h73l230 -368z" />
    <glyph glyph-name="ygrave" unicode="&#x1ef3;" horiz-adv-x="541" 
d="M324 574h-67l-103 125h80zM445 500h61l-219 -591c-34 -90 -65 -129 -163 -129h-80v51h68c62 0 89 16 110 72l26 70l-217 527h66l182 -445z" />
    <glyph glyph-name="uni200B" unicode="&#x200b;" horiz-adv-x="0" 
 />
    <glyph glyph-name="endash" unicode="&#x2013;" horiz-adv-x="712" 
d="M70 322h572v-52h-572v52z" />
    <glyph glyph-name="emdash" unicode="&#x2014;" horiz-adv-x="1054" 
d="M70 322h914v-52h-914v52z" />
    <glyph glyph-name="quoteleft" unicode="&#x2018;" horiz-adv-x="181" 
d="M141 672c-41 -11 -48 -30 -48 -78h37v-78h-80v54c0 89 19 123 91 135v-33z" />
    <glyph glyph-name="quoteright" unicode="&#x2019;" horiz-adv-x="181" 
d="M51 700h80v-54c0 -89 -19 -123 -91 -135v33c41 11 48 30 48 78h-37v78z" />
    <glyph glyph-name="quotesinglbase" unicode="&#x201a;" horiz-adv-x="181" 
d="M51 78h80v-54c0 -89 -19 -123 -91 -135v33c41 11 48 30 48 78h-37v78z" />
    <glyph glyph-name="quotedblleft" unicode="&#x201c;" horiz-adv-x="321" 
d="M50 570c0 89 19 123 91 135v-33c-41 -11 -48 -30 -48 -78h37v-78h-80v54zM281 672c-41 -11 -48 -30 -48 -78h37v-78h-80v54c0 89 19 123 91 135v-33z" />
    <glyph glyph-name="quotedblright" unicode="&#x201d;" horiz-adv-x="321" 
d="M51 622v78h80v-54c0 -89 -19 -123 -91 -135v33c41 11 48 30 48 78h-37zM191 700h80v-54c0 -89 -19 -123 -91 -135v33c41 11 48 30 48 78h-37v78z" />
    <glyph glyph-name="quotedblbase" unicode="&#x201e;" horiz-adv-x="321" 
d="M51 0v78h80v-54c0 -89 -19 -123 -91 -135v33c41 11 48 30 48 78h-37zM191 78h80v-54c0 -89 -19 -123 -91 -135v33c41 11 48 30 48 78h-37v78z" />
    <glyph glyph-name="dagger" unicode="&#x2020;" horiz-adv-x="466" 
d="M411 532v-52h-148v-480h-60v480h-148v52h148v168h60v-168h148z" />
    <glyph glyph-name="daggerdbl" unicode="&#x2021;" horiz-adv-x="466" 
d="M411 480h-148v-260h148v-52h-148v-168h-60v168h-148v52h148v260h-148v52h148v168h60v-168h148v-52z" />
    <glyph glyph-name="bullet" unicode="&#x2022;" horiz-adv-x="216" 
d="M70 245v78h76v-78h-76z" />
    <glyph glyph-name="ellipsis" unicode="&#x2026;" horiz-adv-x="676" 
d="M50 0v78h76v-78h-76zM300 0v78h76v-78h-76zM550 0v78h76v-78h-76z" />
    <glyph glyph-name="perthousand" unicode="&#x2030;" horiz-adv-x="1108" 
d="M220 410c-85 0 -152 65 -152 150c0 86 67 150 152 150s152 -64 152 -150c0 -85 -67 -150 -152 -150zM90 0l504 700h69l-504 -700h-69zM220 462c55 0 92 43 92 98s-37 98 -92 98s-92 -43 -92 -98s37 -98 92 -98zM533 -10c-85 0 -152 65 -152 150c0 86 67 150 152 150
s152 -64 152 -150c0 -85 -67 -150 -152 -150zM896 -10c-85 0 -152 65 -152 150c0 86 67 150 152 150s152 -64 152 -150c0 -85 -67 -150 -152 -150zM533 42c55 0 92 43 92 98s-37 98 -92 98s-92 -43 -92 -98s37 -98 92 -98zM896 42c55 0 92 43 92 98s-37 98 -92 98
s-92 -43 -92 -98s37 -98 92 -98z" />
    <glyph glyph-name="guilsinglleft" unicode="&#x2039;" horiz-adv-x="389" 
d="M309 490l-170 -195l170 -195h-77l-167 195l167 195h77z" />
    <glyph glyph-name="guilsinglright" unicode="&#x203a;" horiz-adv-x="389" 
d="M157 490l167 -195l-167 -195h-77l170 195l-170 195h77z" />
    <glyph glyph-name="uni2042" unicode="&#x2042;" horiz-adv-x="909" 
d="M340 426l81 103l-127 36l16 49l124 -45l-5 131h51l-5 -131l124 45l16 -49l-127 -36l81 -103l-41 -30l-73 110l-74 -110zM367 234l16 -49l-127 -36l81 -103l-41 -30l-73 110l-74 -110l-41 30l81 103l-127 36l16 49l124 -45l-5 131h51l-5 -131zM847 185l-127 -36l81 -103
l-41 -30l-73 110l-74 -110l-41 30l81 103l-127 36l16 49l124 -45l-5 131h51l-5 -131l124 45z" />
    <glyph glyph-name="fraction" unicode="&#x2044;" horiz-adv-x="183" 
d="M-250 0l586 700h67l-586 -700h-67z" />
    <glyph glyph-name="uni2051" unicode="&#x2051;" horiz-adv-x="411" 
d="M91 426l81 103l-127 36l16 49l124 -45l-5 131h51l-5 -131l124 45l16 -49l-127 -36l81 -103l-41 -30l-73 110l-74 -110zM350 234l16 -49l-127 -36l81 -103l-41 -30l-73 110l-74 -110l-41 30l81 103l-127 36l16 49l124 -45l-5 131h51l-5 -131z" />
    <glyph glyph-name="uni2070" unicode="&#x2070;" horiz-adv-x="368" 
d="M184 400c-106 0 -144 96 -144 187s38 188 144 188s144 -97 144 -188s-38 -187 -144 -187zM184 446c57 0 93 51 93 141c0 91 -36 142 -93 142s-93 -51 -93 -142c0 -90 36 -141 93 -141z" />
    <glyph glyph-name="uni2074" unicode="&#x2074;" horiz-adv-x="349" 
d="M318 526v-42h-59v-74h-49v74h-179v32l161 254h67v-244h59zM88 526h122v199z" />
    <glyph glyph-name="uni2075" unicode="&#x2075;" horiz-adv-x="361" 
d="M186 639c79 0 132 -46 132 -121c0 -77 -58 -118 -135 -118c-82 0 -131 51 -138 117h49c5 -39 34 -74 91 -74c52 0 85 27 85 74c0 51 -35 81 -92 81c-50 0 -77 -25 -80 -29l-38 19l28 182h209v-44h-166l-20 -110c15 11 38 23 75 23z" />
    <glyph glyph-name="uni2076" unicode="&#x2076;" horiz-adv-x="363" 
d="M191 642c69 0 124 -45 124 -121c0 -71 -50 -121 -130 -121c-83 0 -141 57 -141 181c0 126 53 194 148 194c74 0 120 -52 127 -112h-47c-4 28 -24 69 -83 69c-69 0 -98 -65 -98 -145c15 27 47 55 100 55zM185 442c45 0 83 30 83 80c0 51 -39 79 -82 79
c-44 0 -83 -28 -83 -79c0 -52 40 -80 82 -80z" />
    <glyph glyph-name="uni2077" unicode="&#x2077;" horiz-adv-x="327" 
d="M42 770h254v-33l-168 -327h-58l164 316h-192v44z" />
    <glyph glyph-name="uni2078" unicode="&#x2078;" horiz-adv-x="390" 
d="M257 575c34 -12 67 -36 67 -80c0 -58 -58 -95 -129 -95s-129 37 -129 95c0 44 33 68 67 80c-42 13 -82 41 -82 94c0 63 58 106 144 106s144 -43 144 -106c0 -53 -40 -81 -82 -94zM195 733c-60 0 -93 -31 -93 -67c0 -57 82 -72 93 -72s93 15 93 71c0 38 -33 68 -93 68z
M116 498c0 -32 30 -56 79 -56s79 24 79 56c0 49 -72 59 -79 60c-7 -1 -79 -11 -79 -60z" />
    <glyph glyph-name="uni2079" unicode="&#x2079;" horiz-adv-x="366" 
d="M172 533c-69 0 -124 45 -124 121c0 71 50 121 130 121c83 0 141 -57 141 -181c0 -126 -53 -194 -148 -194c-74 0 -120 52 -127 112h47c4 -28 24 -69 83 -69c69 0 98 65 98 145c-15 -27 -47 -55 -100 -55zM178 733c-45 0 -83 -30 -83 -80c0 -51 39 -79 82 -79
c44 0 83 28 83 79c0 52 -40 80 -82 80z" />
    <glyph glyph-name="uni2080" unicode="&#x2080;" horiz-adv-x="368" 
d="M184 -80c-106 0 -144 96 -144 187s38 188 144 188s144 -97 144 -188s-38 -187 -144 -187zM184 -34c57 0 93 51 93 141c0 91 -36 142 -93 142s-93 -51 -93 -142c0 -90 36 -141 93 -141z" />
    <glyph glyph-name="uni2081" unicode="&#x2081;" horiz-adv-x="290" 
d="M210 290v-360h-49v255c-28 -22 -68 -35 -124 -37v40c60 3 131 27 131 102h42z" />
    <glyph glyph-name="uni2082" unicode="&#x2082;" horiz-adv-x="356" 
d="M307 -70h-258v33l95 76c57 46 103 85 103 145c0 39 -26 67 -67 67c-54 0 -74 -43 -71 -97h-51c-5 71 32 141 123 141c75 0 118 -48 118 -112c0 -69 -48 -117 -115 -170l-51 -40h174v-43z" />
    <glyph glyph-name="uni2083" unicode="&#x2083;" horiz-adv-x="356" 
d="M244 99c34 -12 58 -39 58 -78c0 -51 -42 -101 -122 -101c-76 0 -124 46 -130 113h50c5 -50 42 -69 80 -69c49 0 72 31 72 62c0 33 -25 57 -76 57h-33v39h35c54 0 85 26 85 66c0 42 -35 64 -82 64c-50 0 -88 -25 -94 -81h-48c7 79 58 124 141 124c75 0 134 -38 134 -106
c0 -47 -29 -77 -70 -90z" />
    <glyph glyph-name="uni2084" unicode="&#x2084;" horiz-adv-x="349" 
d="M318 46v-42h-59v-74h-49v74h-179v32l161 254h67v-244h59zM88 46h122v199z" />
    <glyph glyph-name="uni2085" unicode="&#x2085;" horiz-adv-x="361" 
d="M186 159c79 0 132 -46 132 -121c0 -77 -58 -118 -135 -118c-82 0 -131 51 -138 117h49c5 -39 34 -74 91 -74c52 0 85 27 85 74c0 51 -35 81 -92 81c-50 0 -77 -25 -80 -29l-38 19l28 182h209v-44h-166l-20 -110c15 11 38 23 75 23z" />
    <glyph glyph-name="uni2086" unicode="&#x2086;" horiz-adv-x="363" 
d="M191 162c69 0 124 -45 124 -121c0 -71 -50 -121 -130 -121c-83 0 -141 57 -141 181c0 126 53 194 148 194c74 0 120 -52 127 -112h-47c-4 28 -24 69 -83 69c-69 0 -98 -65 -98 -145c15 27 47 55 100 55zM185 -38c45 0 83 30 83 80c0 51 -39 79 -82 79
c-44 0 -83 -28 -83 -79c0 -52 40 -80 82 -80z" />
    <glyph glyph-name="uni2087" unicode="&#x2087;" horiz-adv-x="327" 
d="M42 290h254v-33l-168 -327h-58l164 316h-192v44z" />
    <glyph glyph-name="uni2088" unicode="&#x2088;" horiz-adv-x="390" 
d="M257 95c34 -12 67 -36 67 -80c0 -58 -58 -95 -129 -95s-129 37 -129 95c0 44 33 68 67 80c-42 13 -82 41 -82 94c0 63 58 106 144 106s144 -43 144 -106c0 -53 -40 -81 -82 -94zM195 253c-60 0 -93 -31 -93 -67c0 -57 82 -72 93 -72s93 15 93 71c0 38 -33 68 -93 68z
M116 18c0 -32 30 -56 79 -56s79 24 79 56c0 49 -72 59 -79 60c-7 -1 -79 -11 -79 -60z" />
    <glyph glyph-name="uni2089" unicode="&#x2089;" horiz-adv-x="366" 
d="M172 53c-69 0 -124 45 -124 121c0 71 50 121 130 121c83 0 141 -57 141 -181c0 -126 -53 -194 -148 -194c-74 0 -120 52 -127 112h47c4 -28 24 -69 83 -69c69 0 98 65 98 145c-15 -27 -47 -55 -100 -55zM178 253c-45 0 -83 -30 -83 -80c0 -51 39 -79 82 -79
c44 0 83 28 83 79c0 52 -40 80 -82 80z" />
    <glyph glyph-name="Euro" unicode="&#x20ac;" horiz-adv-x="767" 
d="M469 46c96 0 150 51 172 146h60c-21 -141 -113 -202 -239 -202c-165 0 -260 111 -293 249h-119v55h110c-2 18 -3 37 -3 56c0 18 1 36 3 54h-110v55h119c32 141 127 251 281 251c126 0 229 -72 251 -202h-62c-17 77 -82 146 -187 146c-111 0 -189 -78 -218 -195h288
l-22 -55h-276c-2 -17 -3 -35 -3 -54s1 -38 3 -56h245l-22 -55h-212c30 -116 112 -193 234 -193z" />
    <glyph glyph-name="uni2113" unicode="&#x2113;" horiz-adv-x="422" 
d="M184 158c0 -73 29 -105 86 -105h58v-53h-66c-86 0 -135 54 -138 141c-28 -15 -57 -27 -84 -37v54c27 12 56 25 84 41v263c0 107 35 168 116 168c80 0 122 -59 122 -161c0 -141 -81 -233 -178 -294v-17zM184 450v-212c66 50 118 122 118 231c0 66 -19 108 -61 108
c-46 0 -57 -50 -57 -127z" />
    <glyph glyph-name="uni2117" unicode="&#x2117;" horiz-adv-x="850" 
d="M425 710c202 0 358 -156 358 -360s-156 -360 -358 -360s-358 156 -358 360s156 360 358 360zM425 34c175 0 306 141 306 316s-131 316 -306 316s-306 -141 -306 -316s131 -316 306 -316zM441 542c100 0 141 -57 141 -127c0 -71 -41 -129 -141 -129h-72v-134h-50v390h50
h72zM449 331c58 0 82 40 82 84c0 45 -25 82 -82 82h-80v-166h80z" />
    <glyph glyph-name="trademark" unicode="&#x2122;" horiz-adv-x="882" 
d="M342 700v-47h-127v-337h-54v337h-126v47h307zM817 700v-384h-48v338l-118 -338h-68l-117 335v-335h-48v384h83l116 -332l116 332h84z" />
    <glyph glyph-name="uni2153" unicode="&#x2153;" horiz-adv-x="835" 
d="M210 700v-360h-49v255c-28 -22 -68 -35 -124 -37v40c60 3 131 27 131 102h42zM66 0l586 700h67l-586 -700h-67zM723 169c34 -12 58 -39 58 -78c0 -51 -42 -101 -122 -101c-76 0 -124 46 -130 113h50c5 -50 42 -69 80 -69c49 0 72 31 72 62c0 33 -25 57 -76 57h-33v39h35
c54 0 85 26 85 66c0 42 -35 64 -82 64c-50 0 -88 -25 -94 -81h-48c7 79 58 124 141 124c75 0 134 -38 134 -106c0 -47 -29 -77 -70 -90z" />
    <glyph glyph-name="uni2154" unicode="&#x2154;" horiz-adv-x="907" 
d="M307 340h-258v33l95 76c57 46 103 85 103 145c0 39 -26 67 -67 67c-54 0 -74 -43 -71 -97h-51c-5 71 32 141 123 141c75 0 118 -48 118 -112c0 -69 -48 -117 -115 -170l-51 -40h174v-43zM138 0l586 700h67l-586 -700h-67zM795 169c34 -12 58 -39 58 -78
c0 -51 -42 -101 -122 -101c-76 0 -124 46 -130 113h50c5 -50 42 -69 80 -69c49 0 72 31 72 62c0 33 -25 57 -76 57h-33v39h35c54 0 85 26 85 66c0 42 -35 64 -82 64c-50 0 -88 -25 -94 -81h-48c7 79 58 124 141 124c75 0 134 -38 134 -106c0 -47 -29 -77 -70 -90z" />
    <glyph glyph-name="oneeighth" unicode="&#x215b;" horiz-adv-x="857" 
d="M210 700v-360h-49v255c-28 -22 -68 -35 -124 -37v40c60 3 131 27 131 102h42zM66 0l586 700h67l-586 -700h-67zM724 165c34 -12 67 -36 67 -80c0 -58 -58 -95 -129 -95s-129 37 -129 95c0 44 33 68 67 80c-42 13 -82 41 -82 94c0 63 58 106 144 106s144 -43 144 -106
c0 -53 -40 -81 -82 -94zM662 323c-60 0 -93 -31 -93 -67c0 -57 82 -72 93 -72s93 15 93 71c0 38 -33 68 -93 68zM583 88c0 -32 30 -56 79 -56s79 24 79 56c0 49 -72 59 -79 60c-7 -1 -79 -11 -79 -60z" />
    <glyph glyph-name="threeeighths" unicode="&#x215c;" horiz-adv-x="892" 
d="M244 509c34 -12 58 -39 58 -78c0 -51 -42 -101 -122 -101c-76 0 -124 46 -130 113h50c5 -50 42 -69 80 -69c49 0 72 31 72 62c0 33 -25 57 -76 57h-33v39h35c54 0 85 26 85 66c0 42 -35 64 -82 64c-50 0 -88 -25 -94 -81h-48c7 79 58 124 141 124c75 0 134 -38 134 -106
c0 -47 -29 -77 -70 -90zM101 0l586 700h67l-586 -700h-67zM759 165c34 -12 67 -36 67 -80c0 -58 -58 -95 -129 -95s-129 37 -129 95c0 44 33 68 67 80c-42 13 -82 41 -82 94c0 63 58 106 144 106s144 -43 144 -106c0 -53 -40 -81 -82 -94zM697 323c-60 0 -93 -31 -93 -67
c0 -57 82 -72 93 -72s93 15 93 71c0 38 -33 68 -93 68zM618 88c0 -32 30 -56 79 -56s79 24 79 56c0 49 -72 59 -79 60c-7 -1 -79 -11 -79 -60z" />
    <glyph glyph-name="fiveeighths" unicode="&#x215d;" horiz-adv-x="895" 
d="M186 569c79 0 132 -46 132 -121c0 -77 -58 -118 -135 -118c-82 0 -131 51 -138 117h49c5 -39 34 -74 91 -74c52 0 85 27 85 74c0 51 -35 81 -92 81c-50 0 -77 -25 -80 -29l-38 19l28 182h209v-44h-166l-20 -110c15 11 38 23 75 23zM104 0l586 700h67l-586 -700h-67z
M762 165c34 -12 67 -36 67 -80c0 -58 -58 -95 -129 -95s-129 37 -129 95c0 44 33 68 67 80c-42 13 -82 41 -82 94c0 63 58 106 144 106s144 -43 144 -106c0 -53 -40 -81 -82 -94zM700 323c-60 0 -93 -31 -93 -67c0 -57 82 -72 93 -72s93 15 93 71c0 38 -33 68 -93 68z
M621 88c0 -32 30 -56 79 -56s79 24 79 56c0 49 -72 59 -79 60c-7 -1 -79 -11 -79 -60z" />
    <glyph glyph-name="seveneighths" unicode="&#x215e;" horiz-adv-x="791" 
d="M0 0l586 700h67l-586 -700h-67zM42 700h254v-33l-168 -327h-58l164 316h-192v44zM658 165c34 -12 67 -36 67 -80c0 -58 -58 -95 -129 -95s-129 37 -129 95c0 44 33 68 67 80c-42 13 -82 41 -82 94c0 63 58 106 144 106s144 -43 144 -106c0 -53 -40 -81 -82 -94zM596 323
c-60 0 -93 -31 -93 -67c0 -57 82 -72 93 -72s93 15 93 71c0 38 -33 68 -93 68zM517 88c0 -32 30 -56 79 -56s79 24 79 56c0 49 -72 59 -79 60c-7 -1 -79 -11 -79 -60z" />
    <glyph glyph-name="arrowleft" unicode="&#x2190;" horiz-adv-x="760" 
d="M690 312v-52h-522l191 -194l-40 -40l-254 260l254 260l40 -40l-191 -194h522z" />
    <glyph glyph-name="arrowup" unicode="&#x2191;" horiz-adv-x="630" 
d="M575 371l-37 -37l-193 188v-522h-60v522l-193 -188l-37 37l260 254z" />
    <glyph glyph-name="arrowright" unicode="&#x2192;" horiz-adv-x="760" 
d="M441 546l254 -260l-254 -260l-40 40l191 194h-522v52h522l-191 194z" />
    <glyph glyph-name="arrowdown" unicode="&#x2193;" horiz-adv-x="630" 
d="M538 271l37 -37l-260 -254l-260 254l37 37l193 -188v522h60v-522z" />
    <glyph glyph-name="arrowboth" unicode="&#x2194;" horiz-adv-x="885" 
d="M566 546l254 -260l-254 -260l-40 40l191 194h-549l191 -194l-40 -40l-254 260l254 260l40 -40l-191 -194h549l-191 194z" />
    <glyph glyph-name="arrowupdn" unicode="&#x2195;" horiz-adv-x="650" 
d="M355 28l193 188l37 -37l-260 -254l-260 254l37 37l193 -188v549l-193 -188l-37 37l260 254l260 -254l-37 -37l-193 188v-549z" />
    <glyph glyph-name="uni2196" unicode="&#x2196;" horiz-adv-x="615" 
d="M550 60l-40 -40l-364 364v-296h-56v392h391v-54h-297z" />
    <glyph glyph-name="uni2197" unicode="&#x2197;" horiz-adv-x="625" 
d="M144 480h391v-392h-56v296l-364 -364l-40 40l366 366h-297v54z" />
    <glyph glyph-name="uni2198" unicode="&#x2198;" horiz-adv-x="615" 
d="M469 442h56v-392h-391v54h297l-366 366l40 40l364 -364v296z" />
    <glyph glyph-name="uni2199" unicode="&#x2199;" horiz-adv-x="625" 
d="M550 440l-366 -366h297v-54h-391v392h56v-296l364 364z" />
    <glyph glyph-name="uni21A5" unicode="&#x21a5;" horiz-adv-x="630" 
d="M538 334l-193 188v-470h160v-52h-380v52h160v470l-193 -188l-37 37l260 254l260 -254z" />
    <glyph glyph-name="uni21A7" unicode="&#x21a7;" horiz-adv-x="630" 
d="M538 271l37 -37l-260 -254l-260 254l37 37l193 -188v470h-160v52h380v-52h-160v-470z" />
    <glyph glyph-name="emptyset" unicode="&#x2205;" horiz-adv-x="784" 
d="M717 595l-79 -79c45 -56 70 -129 70 -206c0 -172 -125 -320 -316 -320c-83 0 -153 28 -207 73l-78 -78l-40 40l79 79c-45 56 -70 129 -70 206c0 172 125 320 316 320c83 0 153 -28 207 -73l78 78zM137 310c0 -60 17 -118 50 -165l372 372c-42 37 -98 60 -167 60
c-164 0 -255 -130 -255 -267zM647 310c0 60 -17 118 -50 165l-372 -372c42 -37 98 -60 167 -60c164 0 255 130 255 267z" />
    <glyph glyph-name="product" unicode="&#x220f;" horiz-adv-x="656" 
d="M566 700v-700h-60v648h-356v-648h-60v700h476z" />
    <glyph glyph-name="summation" unicode="&#x2211;" horiz-adv-x="567" 
d="M502 700v-52h-356l259 -298l-259 -298h356v-52h-442v42l267 308l-267 308v42h442z" />
    <glyph glyph-name="minus" unicode="&#x2212;" horiz-adv-x="590" 
d="M70 272h450v-52h-450v52z" />
    <glyph glyph-name="radical" unicode="&#x221a;" horiz-adv-x="604" 
d="M494 700h70l-262 -700h-76l-196 500h70l163 -426z" />
    <glyph glyph-name="infinity" unicode="&#x221e;" horiz-adv-x="772" 
d="M539 404c85 0 163 -61 163 -154s-78 -154 -163 -154c-75 0 -128 53 -153 100c-25 -47 -78 -100 -153 -100c-85 0 -163 61 -163 154s78 154 163 154c75 0 128 -53 153 -100c25 47 78 100 153 100zM233 146c90 0 124 104 124 104s-39 104 -124 104
c-54 0 -107 -36 -107 -104s53 -104 107 -104zM539 146c54 0 107 36 107 104s-53 104 -107 104c-85 0 -124 -104 -124 -104s34 -104 124 -104z" />
    <glyph glyph-name="integral" unicode="&#x222b;" horiz-adv-x="471" 
d="M401 700h60v-52h-55c-60 0 -90 -27 -103 -123l-80 -588c-16 -119 -63 -157 -153 -157h-60v52h55c60 0 89 27 101 113l81 588c18 129 64 167 154 167z" />
    <glyph glyph-name="approxequal" unicode="&#x2248;" horiz-adv-x="590" 
d="M70 271c5 94 61 138 134 138c88 0 117 -86 185 -86c55 0 77 37 83 79h48c-5 -93 -62 -137 -135 -137c-88 0 -117 86 -185 86c-56 0 -77 -39 -83 -80h-47zM70 91c5 94 61 138 134 138c88 0 117 -86 185 -86c55 0 77 37 83 79h48c-5 -93 -62 -137 -135 -137
c-88 0 -117 86 -185 86c-56 0 -77 -39 -83 -80h-47z" />
    <glyph glyph-name="notequal" unicode="&#x2260;" horiz-adv-x="590" 
d="M520 324h-144l-98 -158h242v-52h-274l-83 -134l-43 25l68 109h-118v52h150l98 158h-248v52h280l77 124l43 -25l-61 -99h111v-52z" />
    <glyph glyph-name="lessequal" unicode="&#x2264;" horiz-adv-x="590" 
d="M70 268v46l450 171v-59l-359 -135l359 -135v-59zM520 0h-450v52h450v-52z" />
    <glyph glyph-name="greaterequal" unicode="&#x2265;" horiz-adv-x="590" 
d="M520 268l-450 -171v59l359 135l-359 135v59l450 -171v-46zM70 52h450v-52h-450v52z" />
    <glyph glyph-name="uni2460" unicode="&#x2460;" horiz-adv-x="850" 
d="M425 -10c-202 0 -358 156 -358 360s156 360 358 360s358 -156 358 -360s-156 -360 -358 -360zM425 34c175 0 306 141 306 316s-131 316 -306 316s-306 -141 -306 -316s131 -316 306 -316zM473 527v-360h-49v255c-28 -22 -68 -35 -124 -37v40c60 3 131 27 131 102h42z" />
    <glyph glyph-name="uni2461" unicode="&#x2461;" horiz-adv-x="850" 
d="M425 -10c-202 0 -358 156 -358 360s156 360 358 360s358 -156 358 -360s-156 -360 -358 -360zM425 34c175 0 306 141 306 316s-131 316 -306 316s-306 -141 -306 -316s131 -316 306 -316zM551 177h-258v33l95 76c57 46 103 85 103 145c0 39 -26 67 -67 67
c-54 0 -74 -43 -71 -97h-51c-5 71 32 141 123 141c75 0 118 -48 118 -112c0 -69 -48 -117 -115 -170l-51 -40h174v-43z" />
    <glyph glyph-name="uni2462" unicode="&#x2462;" horiz-adv-x="850" 
d="M425 -10c-202 0 -358 156 -358 360s156 360 358 360s358 -156 358 -360s-156 -360 -358 -360zM425 34c175 0 306 141 306 316s-131 316 -306 316s-306 -141 -306 -316s131 -316 306 -316zM490 342c34 -12 58 -39 58 -78c0 -51 -42 -101 -122 -101c-76 0 -124 46 -130 113
h50c5 -50 42 -69 80 -69c49 0 72 31 72 62c0 33 -25 57 -76 57h-33v39h35c54 0 85 26 85 66c0 42 -35 64 -82 64c-50 0 -88 -25 -94 -81h-48c7 79 58 124 141 124c75 0 134 -38 134 -106c0 -47 -29 -77 -70 -90z" />
    <glyph glyph-name="uni2463" unicode="&#x2463;" horiz-adv-x="850" 
d="M425 -10c-202 0 -358 156 -358 360s156 360 358 360s358 -156 358 -360s-156 -360 -358 -360zM425 34c175 0 306 141 306 316s-131 316 -306 316s-306 -141 -306 -316s131 -316 306 -316zM553 286v-42h-59v-74h-49v74h-179v32l161 254h67v-244h59zM323 286h122v199z" />
    <glyph glyph-name="uni2464" unicode="&#x2464;" horiz-adv-x="850" 
d="M425 -10c-202 0 -358 156 -358 360s156 360 358 360s358 -156 358 -360s-156 -360 -358 -360zM425 34c175 0 306 141 306 316s-131 316 -306 316s-306 -141 -306 -316s131 -316 306 -316zM426 394c79 0 132 -46 132 -121c0 -77 -58 -118 -135 -118
c-82 0 -131 51 -138 117h49c5 -39 34 -74 91 -74c52 0 85 27 85 74c0 51 -35 81 -92 81c-50 0 -77 -25 -80 -29l-38 19l28 182h209v-44h-166l-20 -110c15 11 38 23 75 23z" />
    <glyph glyph-name="uni2465" unicode="&#x2465;" horiz-adv-x="850" 
d="M425 -10c-202 0 -358 156 -358 360s156 360 358 360s358 -156 358 -360s-156 -360 -358 -360zM425 34c175 0 306 141 306 316s-131 316 -306 316s-306 -141 -306 -316s131 -316 306 -316zM428 405c69 0 124 -45 124 -121c0 -71 -50 -121 -130 -121
c-83 0 -141 57 -141 181c0 126 53 194 148 194c74 0 120 -52 127 -112h-47c-4 28 -24 69 -83 69c-69 0 -98 -65 -98 -145c15 27 47 55 100 55zM422 205c45 0 83 30 83 80c0 51 -39 79 -82 79c-44 0 -83 -28 -83 -79c0 -52 40 -80 82 -80z" />
    <glyph glyph-name="uni2466" unicode="&#x2466;" horiz-adv-x="850" 
d="M425 -10c-202 0 -358 156 -358 360s156 360 358 360s358 -156 358 -360s-156 -360 -358 -360zM425 34c175 0 306 141 306 316s-131 316 -306 316s-306 -141 -306 -316s131 -316 306 -316zM306 515h254v-33l-168 -327h-58l164 316h-192v44z" />
    <glyph glyph-name="uni2467" unicode="&#x2467;" horiz-adv-x="850" 
d="M425 -10c-202 0 -358 156 -358 360s156 360 358 360s358 -156 358 -360s-156 -360 -358 -360zM425 34c175 0 306 141 306 316s-131 316 -306 316s-306 -141 -306 -316s131 -316 306 -316zM487 338c34 -12 67 -36 67 -80c0 -58 -58 -95 -129 -95s-129 37 -129 95
c0 44 33 68 67 80c-42 13 -82 41 -82 94c0 63 58 106 144 106s144 -43 144 -106c0 -53 -40 -81 -82 -94zM425 496c-60 0 -93 -31 -93 -67c0 -57 82 -72 93 -72s93 15 93 71c0 38 -33 68 -93 68zM346 261c0 -32 30 -56 79 -56s79 24 79 56c0 49 -72 59 -79 60
c-7 -1 -79 -11 -79 -60z" />
    <glyph glyph-name="uni2468" unicode="&#x2468;" horiz-adv-x="850" 
d="M425 -10c-202 0 -358 156 -358 360s156 360 358 360s358 -156 358 -360s-156 -360 -358 -360zM425 34c175 0 306 141 306 316s-131 316 -306 316s-306 -141 -306 -316s131 -316 306 -316zM427 294c-69 0 -124 45 -124 121c0 71 50 121 130 121c83 0 141 -57 141 -181
c0 -126 -53 -194 -148 -194c-74 0 -120 52 -127 112h47c4 -28 24 -69 83 -69c69 0 98 65 98 145c-15 -27 -47 -55 -100 -55zM433 494c-45 0 -83 -30 -83 -80c0 -51 39 -79 82 -79c44 0 83 28 83 79c0 52 -40 80 -82 80z" />
    <glyph glyph-name="uni2469" unicode="&#x2469;" horiz-adv-x="1102" 
d="M677 710c202 0 358 -156 358 -360s-156 -360 -358 -360h-252c-202 0 -358 156 -358 360s156 360 358 360h252zM677 34c175 0 306 141 306 316s-131 316 -306 316h-252c-175 0 -306 -141 -306 -316s131 -316 306 -316h252zM678 161c-106 0 -144 96 -144 187
s38 188 144 188s144 -97 144 -188s-38 -187 -144 -187zM441 530v-360h-49v255c-28 -22 -68 -35 -124 -37v40c60 3 131 27 131 102h42zM678 207c57 0 93 51 93 141c0 91 -36 142 -93 142s-93 -51 -93 -142c0 -90 36 -141 93 -141z" />
    <glyph glyph-name="uni24EA" unicode="&#x24ea;" horiz-adv-x="850" 
d="M425 -10c-202 0 -358 156 -358 360s156 360 358 360s358 -156 358 -360s-156 -360 -358 -360zM425 34c175 0 306 141 306 316s-131 316 -306 316s-306 -141 -306 -316s131 -316 306 -316zM425 163c-106 0 -144 96 -144 187s38 188 144 188s144 -97 144 -188
s-38 -187 -144 -187zM425 209c57 0 93 51 93 141c0 91 -36 142 -93 142s-93 -51 -93 -142c0 -90 36 -141 93 -141z" />
    <glyph glyph-name="uni24FF" unicode="&#x24ff;" horiz-adv-x="850" 
d="M425 -10c-202 0 -358 156 -358 360s156 360 358 360s358 -156 358 -360s-156 -360 -358 -360zM427 163c106 0 144 96 144 187s-38 188 -144 188s-144 -97 -144 -188s38 -187 144 -187zM427 209c-57 0 -93 51 -93 141c0 91 36 142 93 142s93 -51 93 -142
c0 -90 -36 -141 -93 -141z" />
    <glyph glyph-name="lozenge" unicode="&#x25ca;" horiz-adv-x="610" 
d="M60 287l245 245l245 -245l-245 -245zM131 287l174 -174l174 174l-174 174z" />
    <glyph glyph-name="uni25CF" unicode="&#x25cf;" horiz-adv-x="674" 
d="M337 40c-152 0 -270 118 -270 270s118 270 270 270s270 -118 270 -270s-118 -270 -270 -270z" />
    <glyph glyph-name="smileface" unicode="&#x263a;" horiz-adv-x="854" 
d="M787 350c0 -200 -160 -360 -360 -360c-202 0 -360 164 -360 360c0 199 161 360 360 360c203 0 360 -163 360 -360zM239 533v-45h44v-128h46v128h44v45h-134zM481 533v-45h45v-128h45v128h45v45h-135zM427 81c145 0 264 116 268 259l-46 8c0 -122 -99 -221 -222 -221
c-122 0 -221 99 -221 221l-46 -8c4 -143 123 -259 267 -259z" />
    <glyph glyph-name="uni2731" unicode="&#x2731;" horiz-adv-x="499" 
d="M444 307l-154 -45l98 -127l-48 -35l-90 132l-91 -132l-48 35l98 127l-154 45l18 56l152 -55l-5 162h59l-5 -162l152 55z" />
    <glyph glyph-name="uni2776" unicode="&#x2776;" horiz-adv-x="850" 
d="M425 -10c-202 0 -358 156 -358 360s156 360 358 360s358 -156 358 -360s-156 -360 -358 -360zM475 167v360h-42c0 -75 -71 -99 -131 -102v-40c56 2 96 15 124 37v-255h49z" />
    <glyph glyph-name="uni2777" unicode="&#x2777;" horiz-adv-x="850" 
d="M425 -10c-202 0 -358 156 -358 360s156 360 358 360s358 -156 358 -360s-156 -360 -358 -360zM295 177h258v43h-174l51 40c67 53 115 101 115 170c0 64 -43 112 -118 112c-91 0 -128 -70 -123 -141h51c-3 54 17 97 71 97c41 0 67 -28 67 -67c0 -60 -46 -99 -103 -145
l-95 -76v-33z" />
    <glyph glyph-name="uni2778" unicode="&#x2778;" horiz-adv-x="850" 
d="M425 -10c-202 0 -358 156 -358 360s156 360 358 360s358 -156 358 -360s-156 -360 -358 -360zM492 342c41 13 70 43 70 90c0 68 -59 106 -134 106c-83 0 -134 -45 -141 -124h48c6 56 44 81 94 81c47 0 82 -22 82 -64c0 -40 -31 -66 -85 -66h-35v-39h33
c51 0 76 -24 76 -57c0 -31 -23 -62 -72 -62c-38 0 -75 19 -80 69h-50c6 -67 54 -113 130 -113c80 0 122 50 122 101c0 39 -24 66 -58 78z" />
    <glyph glyph-name="uni2779" unicode="&#x2779;" horiz-adv-x="850" 
d="M425 -10c-202 0 -358 156 -358 360s156 360 358 360s358 -156 358 -360s-156 -360 -358 -360zM555 244v42h-59v244h-67l-161 -254v-32h179v-74h49v74h59zM447 286h-122l122 199v-199z" />
    <glyph glyph-name="uni277A" unicode="&#x277a;" horiz-adv-x="850" 
d="M425 -10c-202 0 -358 156 -358 360s156 360 358 360s358 -156 358 -360s-156 -360 -358 -360zM428 394c-37 0 -60 -12 -75 -23l20 110h166v44h-209l-28 -182l38 -19c3 4 30 29 80 29c57 0 92 -30 92 -81c0 -47 -33 -74 -85 -74c-57 0 -86 35 -91 74h-49
c7 -66 56 -117 138 -117c77 0 135 41 135 118c0 75 -53 121 -132 121z" />
    <glyph glyph-name="uni277B" unicode="&#x277b;" horiz-adv-x="850" 
d="M425 -10c-202 0 -358 156 -358 360s156 360 358 360s358 -156 358 -360s-156 -360 -358 -360zM430 405c-53 0 -85 -28 -100 -55c0 80 29 145 98 145c59 0 79 -41 83 -69h47c-7 60 -53 112 -127 112c-95 0 -148 -68 -148 -194c0 -124 58 -181 141 -181
c80 0 130 50 130 121c0 76 -55 121 -124 121zM424 205c-42 0 -82 28 -82 80c0 51 39 79 83 79c43 0 82 -28 82 -79c0 -50 -38 -80 -83 -80z" />
    <glyph glyph-name="uni277C" unicode="&#x277c;" horiz-adv-x="850" 
d="M425 -10c-202 0 -358 156 -358 360s156 360 358 360s358 -156 358 -360s-156 -360 -358 -360zM562 515h-254v-44h192l-164 -316h58l168 327v33z" />
    <glyph glyph-name="uni277D" unicode="&#x277d;" horiz-adv-x="850" 
d="M425 -10c-202 0 -358 156 -358 360s156 360 358 360s358 -156 358 -360s-156 -360 -358 -360zM489 338c42 13 82 41 82 94c0 63 -58 106 -144 106s-144 -43 -144 -106c0 -53 40 -81 82 -94c-34 -12 -67 -36 -67 -80c0 -58 58 -95 129 -95s129 37 129 95
c0 44 -33 68 -67 80zM427 496c60 0 93 -30 93 -68c0 -56 -82 -71 -93 -71s-93 15 -93 72c0 36 33 67 93 67zM348 261c0 49 72 59 79 60c7 -1 79 -11 79 -60c0 -32 -30 -56 -79 -56s-79 24 -79 56z" />
    <glyph glyph-name="uni277E" unicode="&#x277e;" horiz-adv-x="850" 
d="M425 -10c-202 0 -358 156 -358 360s156 360 358 360s358 -156 358 -360s-156 -360 -358 -360zM429 294c53 0 85 28 100 55c0 -80 -29 -145 -98 -145c-59 0 -79 41 -83 69h-47c7 -60 53 -112 127 -112c95 0 148 68 148 194c0 124 -58 181 -141 181
c-80 0 -130 -50 -130 -121c0 -76 55 -121 124 -121zM435 494c42 0 82 -28 82 -80c0 -51 -39 -79 -83 -79c-43 0 -82 28 -82 79c0 50 38 80 83 80z" />
    <glyph glyph-name="uni277F" unicode="&#x277f;" horiz-adv-x="1102" 
d="M425 710h252c202 0 358 -156 358 -360s-156 -360 -358 -360h-252c-202 0 -358 156 -358 360s156 360 358 360zM678 161c106 0 144 96 144 187s-38 188 -144 188s-144 -97 -144 -188s38 -187 144 -187zM441 170v360h-42c0 -75 -71 -99 -131 -102v-40c56 2 96 15 124 37
v-255h49zM678 207c-57 0 -93 51 -93 141c0 91 36 142 93 142s93 -51 93 -142c0 -90 -36 -141 -93 -141z" />
    <glyph glyph-name="uni27FB" unicode="&#x27fb;" horiz-adv-x="840" 
d="M690 476h60v-380h-60v164h-522l191 -194l-40 -40l-254 260l254 260l40 -40l-191 -194h522v164z" />
    <glyph glyph-name="uni27FC" unicode="&#x27fc;" horiz-adv-x="840" 
d="M521 546l254 -260l-254 -260l-40 40l191 194h-522v-164h-60v380h60v-164h522l-191 194z" />
    <glyph glyph-name="Adieresis.ss02" horiz-adv-x="644" 
d="M218 761c-30 0 -50 22 -50 50c0 27 20 49 50 49c29 0 49 -22 49 -49c0 -28 -20 -50 -49 -50zM427 761c-30 0 -50 22 -50 50c0 27 20 49 50 49c29 0 49 -22 49 -49c0 -28 -20 -50 -49 -50zM546 0l-67 187h-314l-67 -187h-68l255 700h74l255 -700h-68zM186 245h272
l-136 377z" />
    <glyph glyph-name="B.ss03" horiz-adv-x="624" 
d="M411 359c119 -22 156 -97 156 -175c0 -111 -64 -184 -210 -184h-202h-65v700h65h179c136 0 200 -71 200 -183c0 -71 -31 -132 -123 -158zM324 642h-169v-263h150c99 0 163 52 163 135c0 79 -45 128 -144 128zM357 58c100 0 146 46 146 127c0 84 -64 136 -153 136h-195
v-263h202z" />
    <glyph glyph-name="Cdotaccent.ss02" horiz-adv-x="736" 
d="M382 787c-33 0 -55 24 -55 55c0 30 22 55 55 55s55 -25 55 -55c0 -31 -22 -55 -55 -55zM670 230c-22 -157 -128 -240 -281 -240c-205 0 -322 149 -322 352c0 212 124 368 325 368c154 0 251 -93 272 -230h-67c-16 95 -85 172 -209 172c-164 0 -256 -136 -256 -309
c0 -169 92 -295 262 -295c114 0 187 55 211 182h65z" />
    <glyph glyph-name="Edieresis.ss02" horiz-adv-x="575" 
d="M191 761c-30 0 -50 22 -50 50c0 27 20 49 50 49c29 0 49 -22 49 -49c0 -28 -20 -50 -49 -50zM400 761c-30 0 -50 22 -50 50c0 27 20 49 50 49c29 0 49 -22 49 -49c0 -28 -20 -50 -49 -50zM500 642h-345v-257h325v-58h-325v-269h345v-58h-410v700h410v-58z" />
    <glyph glyph-name="Edotaccent.ss02" horiz-adv-x="575" 
d="M295 787c-33 0 -55 24 -55 55c0 30 22 55 55 55s55 -25 55 -55c0 -31 -22 -55 -55 -55zM500 642h-345v-257h325v-58h-325v-269h345v-58h-410v700h410v-58z" />
    <glyph glyph-name="Euro.ss07" horiz-adv-x="696" 
d="M572 162h58c-17 -119 -106 -172 -218 -172c-146 0 -228 96 -256 218h-106v53h97c-1 16 -2 32 -2 48s1 32 2 48h-97v53h106c29 123 113 220 249 220c112 0 199 -53 218 -172h-59c-12 67 -62 120 -156 120c-97 0 -165 -66 -191 -168h259l-20 -53h-249c-1 -15 -2 -31 -2 -47
c0 -17 1 -33 3 -49h221l-20 -53h-192c26 -101 94 -166 200 -166c95 0 140 50 155 120z" />
    <glyph glyph-name="Gcommaaccent.ss02" horiz-adv-x="763" 
d="M361 347h320v-347h-49l-7 136c-41 -98 -122 -146 -234 -146c-202 0 -324 152 -324 358c0 210 128 362 327 362c169 0 273 -90 285 -237h-64c-14 113 -98 179 -224 179c-164 0 -259 -131 -259 -302s94 -302 263 -302c134 0 222 89 222 241h-256v58zM389 -78
c32 0 54 -25 54 -70c0 -61 -34 -104 -104 -117v33c30 8 54 28 53 55c-35 0 -51 22 -51 49c0 28 20 50 48 50z" />
    <glyph glyph-name="Gdotaccent.ss02" horiz-adv-x="763" 
d="M390 787c-33 0 -55 24 -55 55c0 30 22 55 55 55s55 -25 55 -55c0 -31 -22 -55 -55 -55zM361 347h320v-347h-49l-7 136c-41 -98 -122 -146 -234 -146c-202 0 -324 152 -324 358c0 210 128 362 327 362c169 0 273 -90 285 -237h-64c-14 113 -98 179 -224 179
c-164 0 -259 -131 -259 -302s94 -302 263 -302c134 0 222 89 222 241h-256v58z" />
    <glyph glyph-name="I.ss06" horiz-adv-x="405" 
d="M335 643h-100v-586h100v-57h-265v57h100v586h-100v57h265v-57z" />
    <glyph glyph-name="IJ.ss05" horiz-adv-x="603" 
d="M90 58h122c152 0 239 92 239 251v391h65v-400c0 -178 -106 -300 -294 -300h-132v58zM165 182h-65v518h65v-518z" />
    <glyph glyph-name="IJ.ss05.ss06" horiz-adv-x="930" 
d="M335 700v-57h-100v-586h100v-57h-265v57h100v586h-100v57h265zM851 700v-400c0 -178 -106 -300 -294 -300h-132v58h122c152 0 239 92 239 251v333h-220v58h285z" />
    <glyph glyph-name="IJ.ss06" horiz-adv-x="981" 
d="M335 700v-57h-100v-586h100v-57h-265v57h100v586h-100v57h265zM894 700v-440c0 -176 -88 -270 -241 -270c-150 0 -236 94 -236 255v32h64v-32c0 -131 66 -197 169 -197c114 0 179 75 179 221v373h-220v58h285z" />
    <glyph glyph-name="Iacute.ss06" horiz-adv-x="405" 
d="M316 914l-113 -138h-74l99 138h88zM335 643h-100v-586h100v-57h-265v57h100v586h-100v57h265v-57z" />
    <glyph glyph-name="Ibreve.ss06" horiz-adv-x="405" 
d="M204 768c-81 0 -135 61 -135 132h62c2 -38 24 -77 72 -77c49 0 68 39 71 77h62c0 -71 -50 -132 -132 -132zM335 700v-57h-100v-586h100v-57h-265v57h100v586h-100v57h265z" />
    <glyph glyph-name="Icircumflex.ss06" horiz-adv-x="405" 
d="M203 857l-68 -90h-70l99 138h77l99 -138h-70zM335 700v-57h-100v-586h100v-57h-265v57h100v586h-100v57h265z" />
    <glyph glyph-name="Idieresis.ss02" horiz-adv-x="245" 
d="M19 761c-30 0 -50 22 -50 50c0 27 20 49 50 49c29 0 49 -22 49 -49c0 -28 -20 -50 -49 -50zM228 761c-30 0 -50 22 -50 50c0 27 20 49 50 49c29 0 49 -22 49 -49c0 -28 -20 -50 -49 -50zM155 0h-65v700h65v-700z" />
    <glyph glyph-name="Idieresis.ss06" horiz-adv-x="405" 
d="M136 856v-77h-75v77h75zM270 856h75v-77h-75v77zM335 700v-57h-100v-586h100v-57h-265v57h100v586h-100v57h265z" />
    <glyph glyph-name="Idieresis.ss06.ss02" horiz-adv-x="405" 
d="M148 811c0 -28 -20 -50 -49 -50c-30 0 -50 22 -50 50c0 27 20 49 50 49c29 0 49 -22 49 -49zM308 860c29 0 49 -22 49 -49c0 -28 -20 -50 -49 -50c-30 0 -50 22 -50 50c0 27 20 49 50 49zM335 700v-57h-100v-586h100v-57h-265v57h100v586h-100v57h265z" />
    <glyph glyph-name="Idotaccent.ss02" horiz-adv-x="245" 
d="M123 787c-33 0 -55 24 -55 55c0 30 22 55 55 55s55 -25 55 -55c0 -31 -22 -55 -55 -55zM155 0h-65v700h65v-700z" />
    <glyph glyph-name="Idotaccent.ss06" horiz-adv-x="405" 
d="M245 885v-85h-84v85h84zM335 643h-100v-586h100v-57h-265v57h100v586h-100v57h265v-57z" />
    <glyph glyph-name="Idotaccent.ss06.ss02" horiz-adv-x="405" 
d="M203 787c-33 0 -55 24 -55 55c0 30 22 55 55 55s55 -25 55 -55c0 -31 -22 -55 -55 -55zM335 643h-100v-586h100v-57h-265v57h100v586h-100v57h265v-57z" />
    <glyph glyph-name="Igrave.ss06" horiz-adv-x="405" 
d="M277 776h-74l-113 138h88zM335 643h-100v-586h100v-57h-265v57h100v586h-100v57h265v-57z" />
    <glyph glyph-name="Imacron.ss06" horiz-adv-x="405" 
d="M54 850h297v-57h-297v57zM335 700v-57h-100v-586h100v-57h-265v57h100v586h-100v57h265z" />
    <glyph glyph-name="Iogonek.ss06" horiz-adv-x="405" 
d="M335 643h-100v-586h100v-57h-100c-40 -22 -79 -65 -79 -105c0 -37 27 -58 82 -58h16v-57h-28c-90 0 -136 53 -136 110c0 46 29 84 76 110h-96v57h100v586h-100v57h265v-57z" />
    <glyph glyph-name="Itilde.ss06" horiz-adv-x="405" 
d="M328 897h47c-11 -75 -60 -110 -107 -110c-72 0 -84 56 -134 56c-28 0 -50 -23 -57 -52h-46c11 74 59 110 107 110c71 0 83 -57 133 -57c28 0 50 24 57 53zM335 700v-57h-100v-586h100v-57h-265v57h100v586h-100v57h265z" />
    <glyph glyph-name="J.ss05" horiz-adv-x="525" 
d="M20 58h122c152 0 239 92 239 251v391h65v-400c0 -178 -106 -300 -294 -300h-132v58z" />
    <glyph glyph-name="J.ss05.ss06" horiz-adv-x="525" 
d="M446 700v-400c0 -178 -106 -300 -294 -300h-132v58h122c152 0 239 92 239 251v333h-220v58h285z" />
    <glyph glyph-name="J.ss06" horiz-adv-x="626" 
d="M539 700v-440c0 -176 -88 -270 -241 -270c-150 0 -236 94 -236 255v32h64v-32c0 -131 66 -197 169 -197c114 0 179 75 179 221v373h-220v58h285z" />
    <glyph glyph-name="Jcircumflex.ss05" horiz-adv-x="525" 
d="M551 767h-70l-67 90l-68 -90h-70l99 138h77zM20 58h122c152 0 239 92 239 251v391h65v-400c0 -178 -106 -300 -294 -300h-132v58z" />
    <glyph glyph-name="Jcircumflex.ss05.ss06" horiz-adv-x="525" 
d="M304 857l-68 -90h-70l99 138h77l99 -138h-70zM446 700v-400c0 -178 -106 -300 -294 -300h-132v58h122c152 0 239 92 239 251v333h-220v58h285z" />
    <glyph glyph-name="Jcircumflex.ss06" horiz-adv-x="626" 
d="M397 857l-68 -90h-70l99 138h77l99 -138h-70zM539 700v-440c0 -176 -88 -270 -241 -270c-150 0 -236 94 -236 255v32h64v-32c0 -131 66 -197 169 -197c114 0 179 75 179 221v373h-220v58h285z" />
    <glyph glyph-name="Kcommaaccent.ss02" horiz-adv-x="588" 
d="M259 374l303 -374h-81l-266 324l-60 -68v-256h-65v700h65v-346l306 346h84zM312 -78c32 0 54 -25 54 -70c0 -61 -34 -104 -104 -117v33c30 8 54 28 53 55c-35 0 -51 22 -51 49c0 28 20 50 48 50z" />
    <glyph glyph-name="Lcaron.ss02" horiz-adv-x="577" 
d="M372 640c0 -61 -34 -104 -104 -117v33c30 8 54 28 53 55c-35 0 -51 22 -51 49c0 28 20 50 48 50c32 0 54 -25 54 -70zM158 58h361v-58h-429v700h68v-642z" />
    <glyph glyph-name="Lcommaaccent.ss02" horiz-adv-x="577" 
d="M158 58h361v-58h-429v700h68v-642zM302 -78c32 0 54 -25 54 -70c0 -61 -34 -104 -104 -117v33c30 8 54 28 53 55c-35 0 -51 22 -51 49c0 28 20 50 48 50z" />
    <glyph glyph-name="Ldot.ss02" horiz-adv-x="577" 
d="M158 58h361v-58h-429v700h68v-642zM346 315c-30 0 -50 22 -50 50s20 50 50 50s50 -22 50 -50s-20 -50 -50 -50z" />
    <glyph glyph-name="Ncommaaccent.ss02" horiz-adv-x="720" 
d="M566 700h64v-700h-84l-392 626v-626h-64v700h85l391 -626v626zM367 -78c32 0 54 -25 54 -70c0 -61 -34 -104 -104 -117v33c30 8 54 28 53 55c-35 0 -51 22 -51 49c0 28 20 50 48 50z" />
    <glyph glyph-name="Odieresis.ss02" horiz-adv-x="776" 
d="M284 761c-30 0 -50 22 -50 50c0 27 20 49 50 49c29 0 49 -22 49 -49c0 -28 -20 -50 -49 -50zM493 761c-30 0 -50 22 -50 50c0 27 20 49 50 49c29 0 49 -22 49 -49c0 -28 -20 -50 -49 -50zM388 -10c-201 0 -321 142 -321 360s120 360 321 360s321 -142 321 -360
s-120 -360 -321 -360zM388 48c158 0 256 119 256 302s-98 302 -256 302s-256 -119 -256 -302s98 -302 256 -302z" />
    <glyph glyph-name="Rcommaaccent.ss02" horiz-adv-x="628" 
d="M519 174l56 -174h-69l-56 169c-43 131 -119 117 -295 117v-286h-65v700h222c170 0 235 -103 235 -204c0 -82 -43 -159 -143 -188c51 -17 90 -55 115 -134zM329 642h-174v-298h174c112 0 153 84 153 152c0 69 -42 146 -153 146zM330 -78c32 0 54 -25 54 -70
c0 -61 -34 -104 -104 -117v33c30 8 54 28 53 55c-35 0 -51 22 -51 49c0 28 20 50 48 50z" />
    <glyph glyph-name="S.ss03" horiz-adv-x="636" 
d="M494 500c-12 105 -66 152 -179 152c-106 0 -155 -50 -155 -123c0 -83 60 -111 215 -154c130 -36 195 -97 195 -196c0 -120 -98 -189 -236 -189c-159 0 -260 79 -274 240h64c12 -105 73 -182 209 -182c101 0 172 46 172 132c0 75 -43 112 -195 153
c-103 28 -215 70 -215 193c0 113 86 184 223 184c157 0 230 -82 240 -210h-64z" />
    <glyph glyph-name="S_t.ss08" horiz-adv-x="885" 
d="M798 52h55v-52h-63c-88 0 -138 56 -138 146v302h-158c-8 129 -67 204 -211 204c-92 0 -165 -45 -165 -136c0 -80 43 -117 198 -159c104 -28 209 -73 209 -193c0 -108 -75 -174 -208 -174c-150 0 -234 82 -246 210h64c13 -105 78 -152 184 -152c102 0 141 44 141 112
c0 80 -51 112 -209 155c-132 36 -198 96 -198 201c0 120 99 194 228 194c156 0 247 -69 270 -210h101v120l60 10v-130h120v-52h-120v-292c0 -72 29 -104 86 -104z" />
    <glyph glyph-name="Sacute.ss03" horiz-adv-x="636" 
d="M345 914h88l-113 -138h-74zM494 500c-12 105 -66 152 -179 152c-106 0 -155 -50 -155 -123c0 -83 60 -111 215 -154c130 -36 195 -97 195 -196c0 -120 -98 -189 -236 -189c-159 0 -260 79 -274 240h64c12 -105 73 -182 209 -182c101 0 172 46 172 132
c0 75 -43 112 -195 153c-103 28 -215 70 -215 193c0 113 86 184 223 184c157 0 230 -82 240 -210h-64z" />
    <glyph glyph-name="Scaron.ss03" horiz-adv-x="636" 
d="M387 905h70l-99 -138h-77l-99 138h70l68 -91zM494 500c-12 105 -66 152 -179 152c-106 0 -155 -50 -155 -123c0 -83 60 -111 215 -154c130 -36 195 -97 195 -196c0 -120 -98 -189 -236 -189c-159 0 -260 79 -274 240h64c12 -105 73 -182 209 -182c101 0 172 46 172 132
c0 75 -43 112 -195 153c-103 28 -215 70 -215 193c0 113 86 184 223 184c157 0 230 -82 240 -210h-64z" />
    <glyph glyph-name="Scedilla.ss03" horiz-adv-x="636" 
d="M570 179c0 -111 -83 -178 -205 -188c39 -25 62 -60 62 -101c0 -57 -46 -110 -137 -110h-48v55h40c55 0 82 23 82 60c0 35 -30 73 -65 96c-139 11 -226 90 -239 239h64c12 -105 73 -182 209 -182c101 0 172 46 172 132c0 75 -43 112 -195 153c-103 28 -215 70 -215 193
c0 113 86 184 223 184c157 0 230 -82 240 -210h-64c-12 105 -66 152 -179 152c-106 0 -155 -50 -155 -123c0 -83 60 -111 215 -154c130 -36 195 -97 195 -196z" />
    <glyph glyph-name="Scircumflex.ss03" horiz-adv-x="636" 
d="M457 767h-70l-67 90l-68 -90h-70l99 138h77zM494 500c-12 105 -66 152 -179 152c-106 0 -155 -50 -155 -123c0 -83 60 -111 215 -154c130 -36 195 -97 195 -196c0 -120 -98 -189 -236 -189c-159 0 -260 79 -274 240h64c12 -105 73 -182 209 -182c101 0 172 46 172 132
c0 75 -43 112 -195 153c-103 28 -215 70 -215 193c0 113 86 184 223 184c157 0 230 -82 240 -210h-64z" />
    <glyph glyph-name="Scommaaccent.ss02" horiz-adv-x="636" 
d="M135 200c13 -105 78 -152 184 -152c102 0 141 44 141 112c0 80 -51 112 -209 155c-132 36 -198 96 -198 201c0 120 109 194 238 194c167 0 259 -79 276 -240h-64c-14 105 -66 182 -210 182c-92 0 -175 -45 -175 -136c0 -80 43 -117 198 -159c104 -28 209 -73 209 -193
c0 -108 -75 -174 -208 -174c-150 0 -234 82 -246 210h64zM311 -78c32 0 54 -25 54 -70c0 -61 -34 -104 -104 -117v33c30 8 54 28 53 55c-35 0 -51 22 -51 49c0 28 20 50 48 50z" />
    <glyph glyph-name="Scommaaccent.ss03" horiz-adv-x="636" 
d="M375 375c130 -36 195 -97 195 -196c0 -120 -98 -189 -236 -189c-159 0 -260 79 -274 240h64c12 -105 73 -182 209 -182c101 0 172 46 172 132c0 75 -43 112 -195 153c-103 28 -215 70 -215 193c0 113 86 184 223 184c157 0 230 -82 240 -210h-64
c-12 105 -66 152 -179 152c-106 0 -155 -50 -155 -123c0 -83 60 -111 215 -154zM297 -152v77h84v-53c0 -88 -20 -122 -95 -134v33c43 11 50 30 50 77h-39z" />
    <glyph glyph-name="Scommaaccent.ss03.ss02" horiz-adv-x="636" 
d="M494 500c-12 105 -66 152 -179 152c-106 0 -155 -50 -155 -123c0 -83 60 -111 215 -154c130 -36 195 -97 195 -196c0 -120 -98 -189 -236 -189c-159 0 -260 79 -274 240h64c12 -105 73 -182 209 -182c101 0 172 46 172 132c0 75 -43 112 -195 153
c-103 28 -215 70 -215 193c0 113 86 184 223 184c157 0 230 -82 240 -210h-64zM336 -78c32 0 54 -25 54 -70c0 -61 -34 -104 -104 -117v33c30 8 54 28 53 55c-35 0 -51 22 -51 49c0 28 20 50 48 50z" />
    <glyph glyph-name="Udieresis.ss02" horiz-adv-x="704" 
d="M248 761c-30 0 -50 22 -50 50c0 27 20 49 50 49c29 0 49 -22 49 -49c0 -28 -20 -50 -49 -50zM457 761c-30 0 -50 22 -50 50c0 27 20 49 50 49c29 0 49 -22 49 -49c0 -28 -20 -50 -49 -50zM87 700h65v-401c0 -166 62 -251 200 -251s200 85 200 251v401h65v-410
c0 -191 -84 -300 -265 -300s-265 109 -265 300v410z" />
    <glyph glyph-name="Wdieresis.ss02" horiz-adv-x="984" 
d="M388 761c-30 0 -50 22 -50 50c0 27 20 49 50 49c29 0 49 -22 49 -49c0 -28 -20 -50 -49 -50zM597 761c-30 0 -50 22 -50 50c0 27 20 49 50 49c29 0 49 -22 49 -49c0 -28 -20 -50 -49 -50zM867 700h64l-156 -700h-73l-210 636l-210 -636h-73l-156 700h64l132 -619l204 619
h78l204 -619z" />
    <glyph glyph-name="Y.ss04" horiz-adv-x="649" 
d="M614 700l-257 -403v-297h-65v297l-257 403h77l213 -331l212 331h77z" />
    <glyph glyph-name="Yacute.ss04" horiz-adv-x="649" 
d="M438 914l-113 -138h-74l99 138h88zM614 700l-257 -403v-297h-65v297l-257 403h77l213 -331l212 331h77z" />
    <glyph glyph-name="Ycircumflex.ss04" horiz-adv-x="649" 
d="M325 857l-68 -90h-70l99 138h77l99 -138h-70zM614 700l-257 -403v-297h-65v297l-257 403h77l213 -331l212 331h77z" />
    <glyph glyph-name="Ydieresis.ss02" horiz-adv-x="625" 
d="M201 761c-30 0 -50 22 -50 50c0 27 20 49 50 49c29 0 49 -22 49 -49c0 -28 -20 -50 -49 -50zM410 761c-30 0 -50 22 -50 50c0 27 20 49 50 49c29 0 49 -22 49 -49c0 -28 -20 -50 -49 -50zM509 700h70l-331 -700h-70l125 265l-271 435h73l230 -368z" />
    <glyph glyph-name="Ydieresis.ss04" horiz-adv-x="649" 
d="M258 856v-77h-75v77h75zM467 856v-77h-75v77h75zM614 700l-257 -403v-297h-65v297l-257 403h77l213 -331l212 331h77z" />
    <glyph glyph-name="Ydieresis.ss04.ss02" horiz-adv-x="649" 
d="M221 761c-30 0 -50 22 -50 50c0 27 20 49 50 49c29 0 49 -22 49 -49c0 -28 -20 -50 -49 -50zM430 761c-30 0 -50 22 -50 50c0 27 20 49 50 49c29 0 49 -22 49 -49c0 -28 -20 -50 -49 -50zM614 700l-257 -403v-297h-65v297l-257 403h77l213 -331l212 331h77z" />
    <glyph glyph-name="Ygrave.ss04" horiz-adv-x="649" 
d="M399 776h-74l-113 138h88zM614 700l-257 -403v-297h-65v297l-257 403h77l213 -331l212 331h77z" />
    <glyph glyph-name="Zdotaccent.ss02" horiz-adv-x="617" 
d="M306 787c-33 0 -55 24 -55 55c0 30 22 55 55 55s55 -25 55 -55c0 -31 -22 -55 -55 -55zM147 58h398v-58h-484v48l384 594h-359v58h446v-48z" />
    <glyph glyph-name="_eightsuperior" horiz-adv-x="390" 
d="M257 165c34 -12 67 -36 67 -80c0 -58 -58 -95 -129 -95s-129 37 -129 95c0 44 33 68 67 80c-42 13 -82 41 -82 94c0 63 58 106 144 106s144 -43 144 -106c0 -53 -40 -81 -82 -94zM195 323c-60 0 -93 -31 -93 -67c0 -57 82 -72 93 -72s93 15 93 71c0 38 -33 68 -93 68z
M116 88c0 -32 30 -56 79 -56s79 24 79 56c0 49 -72 59 -79 60c-7 -1 -79 -11 -79 -60z" />
    <glyph glyph-name="a.ss01" horiz-adv-x="566" 
d="M426 500h60v-500h-60v81c-14 -29 -60 -91 -160 -91c-131 0 -211 103 -211 256c0 163 92 264 216 264c72 0 131 -37 155 -93v83zM270 46c101 0 156 77 156 208c0 123 -51 201 -151 201c-110 0 -159 -101 -159 -214c0 -114 49 -195 154 -195z" />
    <glyph glyph-name="aacute.ss01" horiz-adv-x="566" 
d="M392 699l-103 -125h-67l90 125h80zM426 500h60v-500h-60v81c-14 -29 -60 -91 -160 -91c-131 0 -211 103 -211 256c0 163 92 264 216 264c72 0 131 -37 155 -93v83zM270 46c101 0 156 77 156 208c0 123 -51 201 -151 201c-110 0 -159 -101 -159 -214
c0 -114 49 -195 154 -195z" />
    <glyph glyph-name="abreve.ss01" horiz-adv-x="566" 
d="M280 570c-74 0 -123 55 -123 120h56c2 -35 22 -70 66 -70s62 35 64 70h57c0 -65 -46 -120 -120 -120zM426 500h60v-500h-60v81c-14 -29 -60 -91 -160 -91c-131 0 -211 103 -211 256c0 163 92 264 216 264c72 0 131 -37 155 -93v83zM270 46c101 0 156 77 156 208
c0 123 -51 201 -151 201c-110 0 -159 -101 -159 -214c0 -114 49 -195 154 -195z" />
    <glyph glyph-name="acircumflex.ss01" horiz-adv-x="566" 
d="M279 642l-61 -82h-64l90 125h70l90 -125h-64zM426 500h60v-500h-60v81c-14 -29 -60 -91 -160 -91c-131 0 -211 103 -211 256c0 163 92 264 216 264c72 0 131 -37 155 -93v83zM270 46c101 0 156 77 156 208c0 123 -51 201 -151 201c-110 0 -159 -101 -159 -214
c0 -114 49 -195 154 -195z" />
    <glyph glyph-name="adieresis.ss01" horiz-adv-x="566" 
d="M217 657v-70h-68v70h68zM407 657v-70h-68v70h68zM426 500h60v-500h-60v81c-14 -29 -60 -91 -160 -91c-131 0 -211 103 -211 256c0 163 92 264 216 264c72 0 131 -37 155 -93v83zM270 46c101 0 156 77 156 208c0 123 -51 201 -151 201c-110 0 -159 -101 -159 -214
c0 -114 49 -195 154 -195z" />
    <glyph glyph-name="adieresis.ss01.ss02" horiz-adv-x="566" 
d="M184 572c-27 0 -45 20 -45 45s18 45 45 45s45 -20 45 -45s-18 -45 -45 -45zM374 572c-27 0 -45 20 -45 45s18 45 45 45s45 -20 45 -45s-18 -45 -45 -45zM426 500h60v-500h-60v81c-14 -29 -60 -91 -160 -91c-131 0 -211 103 -211 256c0 163 92 264 216 264
c72 0 131 -37 155 -93v83zM270 46c101 0 156 77 156 208c0 123 -51 201 -151 201c-110 0 -159 -101 -159 -214c0 -114 49 -195 154 -195z" />
    <glyph glyph-name="adieresis.ss02" horiz-adv-x="539" 
d="M174 572c-27 0 -45 20 -45 45s18 45 45 45s45 -20 45 -45s-18 -45 -45 -45zM364 572c-27 0 -45 20 -45 45s18 45 45 45s45 -20 45 -45s-18 -45 -45 -45zM280 509c99 0 181 -52 181 -157v-352h-60v104c-20 -45 -76 -114 -179 -114c-87 0 -161 49 -161 144
c0 85 58 123 189 144c99 16 151 24 151 82c0 56 -51 97 -124 97c-87 0 -129 -46 -135 -127h-58c4 100 62 179 196 179zM231 42c95 0 170 71 170 183v47c-34 -19 -83 -31 -137 -41c-88 -16 -145 -36 -145 -100c0 -62 53 -89 112 -89z" />
    <glyph glyph-name="agrave.ss01" horiz-adv-x="566" 
d="M336 574h-67l-103 125h80zM426 500h60v-500h-60v81c-14 -29 -60 -91 -160 -91c-131 0 -211 103 -211 256c0 163 92 264 216 264c72 0 131 -37 155 -93v83zM270 46c101 0 156 77 156 208c0 123 -51 201 -151 201c-110 0 -159 -101 -159 -214c0 -114 49 -195 154 -195z" />
    <glyph glyph-name="amacron.ss01" horiz-adv-x="566" 
d="M414 637v-52h-270v52h270zM426 500h60v-500h-60v81c-14 -29 -60 -91 -160 -91c-131 0 -211 103 -211 256c0 163 92 264 216 264c72 0 131 -37 155 -93v83zM270 46c101 0 156 77 156 208c0 123 -51 201 -151 201c-110 0 -159 -101 -159 -214c0 -114 49 -195 154 -195z" />
    <glyph glyph-name="aogonek.ss01" horiz-adv-x="566" 
d="M489 -148h14v-52h-25c-82 0 -124 48 -124 100c0 43 28 77 72 101v80c-14 -29 -60 -91 -160 -91c-131 0 -211 103 -211 256c0 163 92 264 216 264c72 0 131 -37 155 -93v83h60v-500c-36 -20 -72 -59 -72 -95c0 -34 25 -53 75 -53zM270 46c101 0 156 77 156 208
c0 123 -51 201 -151 201c-110 0 -159 -101 -159 -214c0 -114 49 -195 154 -195z" />
    <glyph glyph-name="aring.ss01" horiz-adv-x="566" 
d="M279 545c-57 0 -95 43 -95 95c0 53 38 95 95 95s95 -42 95 -95c0 -52 -38 -95 -95 -95zM279 687c-27 0 -45 -22 -45 -47s18 -47 45 -47s45 22 45 47s-18 47 -45 47zM426 500h60v-500h-60v81c-14 -29 -60 -91 -160 -91c-131 0 -211 103 -211 256c0 163 92 264 216 264
c72 0 131 -37 155 -93v83zM270 46c101 0 156 77 156 208c0 123 -51 201 -151 201c-110 0 -159 -101 -159 -214c0 -114 49 -195 154 -195z" />
    <glyph glyph-name="at.case" horiz-adv-x="1014" 
d="M507 790c241 0 440 -175 440 -437c0 -148 -63 -248 -172 -248c-55 0 -103 26 -127 87c-15 -37 -67 -87 -156 -87c-134 0 -211 112 -211 240c0 127 76 240 209 240c62 0 112 -31 139 -77l2 -2v69h60v-280c0 -106 35 -138 82 -138c68 0 114 66 114 188
c0 231 -165 393 -380 393s-380 -163 -380 -390c0 -224 160 -386 392 -386c108 0 162 35 190 60l36 -40c-28 -25 -101 -72 -230 -72c-248 0 -448 176 -448 440c0 263 197 440 440 440zM498 158c87 0 133 59 133 195c0 115 -53 179 -140 179c-100 0 -150 -99 -150 -191
c0 -84 41 -183 157 -183z" />
    <glyph glyph-name="atilde.ss01" horiz-adv-x="566" 
d="M216 623c-26 0 -46 -21 -52 -48h-42c10 68 54 100 97 100c65 0 76 -51 121 -51c26 0 46 21 52 48h43c-10 -68 -55 -100 -98 -100c-65 0 -76 51 -121 51zM426 500h60v-500h-60v81c-14 -29 -60 -91 -160 -91c-131 0 -211 103 -211 256c0 163 92 264 216 264
c72 0 131 -37 155 -93v83zM270 46c101 0 156 77 156 208c0 123 -51 201 -151 201c-110 0 -159 -101 -159 -214c0 -114 49 -195 154 -195z" />
    <glyph glyph-name="braceleft.case" horiz-adv-x="296" 
d="M197 502c0 -91 -21 -137 -73 -152c52 -15 73 -61 73 -152v-163c0 -80 29 -93 82 -93h17v-52h-17c-100 0 -142 25 -142 159v173c0 75 -23 94 -92 104v48c69 10 92 29 92 104v173c0 134 42 159 142 159h17v-52h-17c-53 0 -82 -13 -82 -93v-163z" />
    <glyph glyph-name="braceright.case" horiz-adv-x="296" 
d="M159 478c0 -75 23 -94 92 -104v-48c-69 -10 -92 -29 -92 -104v-173c0 -134 -42 -159 -142 -159h-17v52h17c53 0 82 13 82 93v163c0 91 21 137 73 152c-52 15 -73 61 -73 152v163c0 80 -29 93 -82 93h-17v52h17c100 0 142 -25 142 -159v-173z" />
    <glyph glyph-name="bracketleft.case" horiz-adv-x="275" 
d="M275 758h-125v-816h125v-52h-185v920h185v-52z" />
    <glyph glyph-name="bracketright.case" horiz-adv-x="275" 
d="M185 810v-920h-185v52h125v816h-125v52h185z" />
    <glyph glyph-name="bullet.case" horiz-adv-x="216" 
d="M70 310v78h76v-78h-76z" />
    <glyph glyph-name="bullet.case.ss02" horiz-adv-x="240" 
d="M120 290c-30 0 -50 22 -50 50s20 50 50 50s50 -22 50 -50s-20 -50 -50 -50z" />
    <glyph glyph-name="bullet.ss02" horiz-adv-x="240" 
d="M120 226c-30 0 -50 22 -50 50s20 50 50 50s50 -22 50 -50s-20 -50 -50 -50z" />
    <glyph glyph-name="cdotaccent.ss02" horiz-adv-x="560" 
d="M275 585c-30 0 -50 22 -50 50s20 50 50 50s50 -22 50 -50s-20 -50 -50 -50zM436 330c-11 80 -73 127 -149 127c-109 0 -172 -96 -172 -209c0 -120 70 -207 182 -207c89 0 132 52 146 118h58c-18 -101 -88 -169 -205 -169c-156 0 -241 119 -241 260s88 259 231 259
c113 0 198 -73 209 -179h-59z" />
    <glyph glyph-name="cent.ss07" horiz-adv-x="526" 
d="M467 221c-15 -77 -82 -136 -174 -144v-77h-55v78c-112 16 -183 113 -183 232c0 122 74 219 183 232v78h55v-77c91 -10 154 -68 170 -150h-57c-12 44 -48 87 -113 96v-359c58 6 102 42 117 91h57zM115 309c0 -95 51 -159 123 -176v355c-71 -15 -123 -83 -123 -179z" />
    <glyph glyph-name="colon.ss02" horiz-adv-x="200" 
d="M100 410c-30 0 -50 22 -50 50s20 50 50 50s50 -22 50 -50s-20 -50 -50 -50zM100 -10c-30 0 -50 22 -50 50s20 50 50 50s50 -22 50 -50s-20 -50 -50 -50z" />
    <glyph glyph-name="comma.ss02" horiz-adv-x="195" 
d="M91 90c32 0 54 -25 54 -70c0 -62 -34 -106 -105 -119v34c30 8 55 28 54 55c-36 0 -52 22 -52 50s20 50 49 50z" />
    <glyph glyph-name="dcaron.ss02" horiz-adv-x="568" 
d="M428 416v294h60v-710h-60v82c-14 -29 -60 -92 -162 -92c-131 0 -211 103 -211 256c0 163 92 264 216 264c74 0 133 -37 157 -94zM596 710c31 0 52 -23 52 -63c0 -56 -33 -95 -100 -107v31c28 7 52 25 51 49c-34 0 -49 20 -49 45s19 45 46 45zM270 44
c102 0 158 78 158 210c0 124 -51 203 -153 203c-111 0 -161 -102 -161 -216c0 -115 50 -197 156 -197z" />
    <glyph glyph-name="dieresis.ss02" horiz-adv-x="400" 
d="M105 572c-27 0 -45 20 -45 45s18 45 45 45s45 -20 45 -45s-18 -45 -45 -45zM295 572c-27 0 -45 20 -45 45s18 45 45 45s45 -20 45 -45s-18 -45 -45 -45z" />
    <glyph glyph-name="divide.ss02" horiz-adv-x="590" 
d="M296 377c-27 0 -45 20 -45 45s18 45 45 45s45 -20 45 -45s-18 -45 -45 -45zM70 272h450v-52h-450v52zM296 25c-27 0 -45 20 -45 45s18 45 45 45s45 -20 45 -45s-18 -45 -45 -45z" />
    <glyph glyph-name="dollar.ss03" horiz-adv-x="580" 
d="M511 164c0 -104 -79 -167 -194 -173v-91h-58v92c-127 15 -200 105 -206 227h59c9 -104 66 -160 147 -173v290c-89 38 -182 84 -182 192c0 100 81 162 182 171v91h58v-92c114 -13 173 -97 179 -198h-59c-8 84 -52 132 -120 143v-271l5 -2c126 -53 189 -113 189 -206z
M137 530c0 -72 61 -108 122 -134v249c-70 -7 -122 -46 -122 -115zM317 44c68 5 134 38 134 115c0 79 -69 123 -134 153v-268z" />
    <glyph glyph-name="dollar.ss07" horiz-adv-x="538" 
d="M292 307c76 -30 156 -65 156 -162c0 -90 -66 -147 -156 -155v-72h-55v73c-102 13 -154 89 -159 171h57c7 -66 46 -107 102 -119v227l-6 3c-107 47 -178 96 -178 190s81 159 184 166v71h55v-73c110 -15 172 -90 177 -186h-57c-8 74 -55 121 -120 133v-267zM113 459
c0 -60 48 -96 124 -130v248c-61 -5 -124 -42 -124 -118zM292 41c59 7 97 43 97 102c0 61 -46 87 -97 106v-208z" />
    <glyph glyph-name="dollar.ss07.ss03" horiz-adv-x="526" 
d="M457 137c0 -93 -69 -142 -169 -147v-72h-55v73c-112 13 -175 89 -180 186h57c8 -75 56 -122 123 -134v246c-77 30 -159 67 -159 174c0 99 69 156 159 165v72h55v-73c103 -12 150 -88 156 -171h-57c-7 67 -43 108 -99 119v-250c1 0 2 -1 3 -1c99 -38 166 -79 166 -187z
M133 465c0 -69 48 -98 100 -119v231c-58 -8 -100 -45 -100 -112zM288 41c58 4 109 27 109 102c0 73 -37 95 -109 124v-226z" />
    <glyph glyph-name="dotaccent.ss02" horiz-adv-x="402" 
d="M200 585c-30 0 -50 22 -50 50s20 50 50 50s50 -22 50 -50s-20 -50 -50 -50z" />
    <glyph glyph-name="edieresis.ss02" horiz-adv-x="560" 
d="M183 572c-27 0 -45 20 -45 45s18 45 45 45s45 -20 45 -45s-18 -45 -45 -45zM373 572c-27 0 -45 20 -45 45s18 45 45 45s45 -20 45 -45s-18 -45 -45 -45zM442 158h55c-8 -88 -78 -168 -205 -168c-154 0 -237 118 -237 260c0 143 82 259 228 259c138 0 213 -105 213 -260
v-16h-380c6 -114 74 -191 177 -191c80 0 135 46 149 116zM284 457c-105 0 -158 -78 -167 -172h320c-7 92 -48 172 -153 172z" />
    <glyph glyph-name="edotaccent.ss02" horiz-adv-x="560" 
d="M278 585c-30 0 -50 22 -50 50s20 50 50 50s50 -22 50 -50s-20 -50 -50 -50zM442 158h55c-8 -88 -78 -168 -205 -168c-154 0 -237 118 -237 260c0 143 82 259 228 259c138 0 213 -105 213 -260v-16h-380c6 -114 74 -191 177 -191c80 0 135 46 149 116zM284 457
c-105 0 -158 -78 -167 -172h320c-7 92 -48 172 -153 172z" />
    <glyph glyph-name="eight.dnom" horiz-adv-x="390" 
d="M257 165c34 -12 67 -36 67 -80c0 -58 -58 -95 -129 -95s-129 37 -129 95c0 44 33 68 67 80c-42 13 -82 41 -82 94c0 63 58 106 144 106s144 -43 144 -106c0 -53 -40 -81 -82 -94zM195 323c-60 0 -93 -31 -93 -67c0 -57 82 -72 93 -72s93 15 93 71c0 38 -33 68 -93 68z
M116 88c0 -32 30 -56 79 -56s79 24 79 56c0 49 -72 59 -79 60c-7 -1 -79 -11 -79 -60z" />
    <glyph glyph-name="eight.dnom.ss03" horiz-adv-x="390" 
d="M257 190c42 -13 82 -41 82 -94c0 -63 -58 -106 -144 -106s-144 43 -144 106c0 53 40 81 82 94c-34 12 -67 36 -67 80c0 58 58 95 129 95s129 -37 129 -95c0 -44 -33 -68 -67 -80zM195 323c-49 0 -79 -24 -79 -56c0 -49 72 -59 79 -60c7 1 79 11 79 60c0 32 -30 56 -79 56
zM195 32c60 0 93 30 93 68c0 56 -82 71 -93 71s-93 -15 -93 -72c0 -36 33 -67 93 -67z" />
    <glyph glyph-name="eight.numr" horiz-adv-x="390" 
d="M257 505c34 -12 67 -36 67 -80c0 -58 -58 -95 -129 -95s-129 37 -129 95c0 44 33 68 67 80c-42 13 -82 41 -82 94c0 63 58 106 144 106s144 -43 144 -106c0 -53 -40 -81 -82 -94zM195 663c-60 0 -93 -31 -93 -67c0 -57 82 -72 93 -72s93 15 93 71c0 38 -33 68 -93 68z
M116 428c0 -32 30 -56 79 -56s79 24 79 56c0 49 -72 59 -79 60c-7 -1 -79 -11 -79 -60z" />
    <glyph glyph-name="eight.numr.ss03" horiz-adv-x="390" 
d="M257 530c42 -13 82 -41 82 -94c0 -63 -58 -106 -144 -106s-144 43 -144 106c0 53 40 81 82 94c-34 12 -67 36 -67 80c0 58 58 95 129 95s129 -37 129 -95c0 -44 -33 -68 -67 -80zM195 663c-49 0 -79 -24 -79 -56c0 -49 72 -59 79 -60c7 1 79 11 79 60c0 32 -30 56 -79 56
zM195 372c60 0 93 30 93 68c0 56 -82 71 -93 71s-93 -15 -93 -72c0 -36 33 -67 93 -67z" />
    <glyph glyph-name="eight.ss03" horiz-adv-x="632" 
d="M399 375c80 -22 163 -78 163 -185c0 -119 -102 -200 -246 -200s-246 81 -246 200c0 107 83 163 163 185c-68 22 -139 71 -139 159c0 104 99 176 222 176s222 -72 222 -176c0 -88 -71 -137 -139 -159zM159 532c0 -108 157 -127 157 -127s157 19 157 127
c0 67 -59 122 -157 122c-97 0 -157 -55 -157 -122zM316 46c120 0 181 69 181 147c0 134 -181 155 -181 155s-181 -21 -181 -156c0 -76 61 -146 181 -146z" />
    <glyph glyph-name="eight.ss07" horiz-adv-x="584" 
d="M369 288c62 -20 125 -63 125 -141c0 -93 -90 -157 -202 -157s-202 64 -202 157c0 78 63 121 125 141c-73 20 -147 69 -147 164c0 106 93 178 224 178s224 -72 224 -178c0 -95 -74 -144 -147 -164zM128 450c0 -119 164 -137 164 -137s164 18 164 136
c0 69 -56 129 -164 129s-164 -61 -164 -128zM292 42c88 0 142 48 142 107c0 95 -142 112 -142 112s-142 -17 -142 -112c0 -59 54 -107 142 -107z" />
    <glyph glyph-name="eight.ss07.ss03" horiz-adv-x="584" 
d="M369 332c73 -20 147 -69 147 -164c0 -106 -93 -178 -224 -178s-224 72 -224 178c0 95 74 144 147 164c-62 20 -125 63 -125 141c0 93 90 157 202 157s202 -64 202 -157c0 -78 -63 -121 -125 -141zM150 471c0 -95 142 -112 142 -112s142 17 142 112c0 59 -54 107 -142 107
s-142 -48 -142 -107zM292 42c108 0 164 60 164 129c0 118 -164 136 -164 136s-164 -18 -164 -137c0 -67 56 -128 164 -128z" />
    <glyph glyph-name="eight.tf" horiz-adv-x="640" 
d="M403 325c68 -22 139 -71 139 -159c0 -104 -99 -176 -222 -176s-222 72 -222 176c0 88 71 137 139 159c-80 22 -163 78 -163 185c0 119 102 200 246 200s246 -81 246 -200c0 -107 -83 -163 -163 -185zM139 508c0 -135 181 -156 181 -156s181 21 181 155
c0 78 -61 147 -181 147s-181 -70 -181 -146zM320 46c98 0 157 55 157 122c0 108 -157 127 -157 127s-157 -19 -157 -127c0 -67 60 -122 157 -122z" />
    <glyph glyph-name="eight.tf.ss03" horiz-adv-x="640" 
d="M403 375c80 -22 163 -78 163 -185c0 -119 -102 -200 -246 -200s-246 81 -246 200c0 107 83 163 163 185c-68 22 -139 71 -139 159c0 104 99 176 222 176s222 -72 222 -176c0 -88 -71 -137 -139 -159zM163 532c0 -108 157 -127 157 -127s157 19 157 127
c0 67 -59 122 -157 122c-97 0 -157 -55 -157 -122zM320 46c120 0 181 69 181 147c0 134 -181 155 -181 155s-181 -21 -181 -156c0 -76 61 -146 181 -146z" />
    <glyph glyph-name="eight.tf.ss07" horiz-adv-x="590" 
d="M372 288c62 -20 125 -63 125 -141c0 -93 -90 -157 -202 -157s-202 64 -202 157c0 78 63 121 125 141c-73 20 -147 69 -147 164c0 106 93 178 224 178s224 -72 224 -178c0 -95 -74 -144 -147 -164zM131 450c0 -119 164 -137 164 -137s164 18 164 136
c0 69 -56 129 -164 129s-164 -61 -164 -128zM295 42c88 0 142 48 142 107c0 95 -142 112 -142 112s-142 -17 -142 -112c0 -59 54 -107 142 -107z" />
    <glyph glyph-name="eight.tf.ss07.ss03" horiz-adv-x="590" 
d="M372 332c73 -20 147 -69 147 -164c0 -106 -93 -178 -224 -178s-224 72 -224 178c0 95 74 144 147 164c-62 20 -125 63 -125 141c0 93 90 157 202 157s202 -64 202 -157c0 -78 -63 -121 -125 -141zM153 471c0 -95 142 -112 142 -112s142 17 142 112c0 59 -54 107 -142 107
s-142 -48 -142 -107zM295 42c108 0 164 60 164 129c0 118 -164 136 -164 136s-164 -18 -164 -137c0 -67 56 -128 164 -128z" />
    <glyph glyph-name="ellipsis.ss02" horiz-adv-x="684" 
d="M100 -10c-30 0 -50 22 -50 50s20 50 50 50s50 -22 50 -50s-20 -50 -50 -50zM342 -10c-30 0 -50 22 -50 50s20 50 50 50s50 -22 50 -50s-20 -50 -50 -50zM584 -10c-30 0 -50 22 -50 50s20 50 50 50s50 -22 50 -50s-20 -50 -50 -50z" />
    <glyph glyph-name="emdash.case" horiz-adv-x="1054" 
d="M70 387h914v-52h-914v52z" />
    <glyph glyph-name="endash.case" horiz-adv-x="712" 
d="M70 387h572v-52h-572v52z" />
    <glyph glyph-name="exclam.ss02" horiz-adv-x="200" 
d="M65 700h70l-11 -520h-48zM100 -10c-30 0 -50 22 -50 50s20 50 50 50s50 -22 50 -50s-20 -50 -50 -50z" />
    <glyph glyph-name="exclamdown.case" horiz-adv-x="176" 
d="M126 700v-78h-76v78h76zM123 0h-70l11 520h48z" />
    <glyph glyph-name="exclamdown.case.ss02" horiz-adv-x="200" 
d="M100 610c-30 0 -50 22 -50 50s20 50 50 50s50 -22 50 -50s-20 -50 -50 -50zM65 0l11 520h48l11 -520h-70z" />
    <glyph glyph-name="exclamdown.ss02" horiz-adv-x="200" 
d="M100 390c-30 0 -50 22 -50 50s20 50 50 50s50 -22 50 -50s-20 -50 -50 -50zM65 -220l11 520h48l11 -520h-70z" />
    <glyph glyph-name="f_f_i.liga.ss02" horiz-adv-x="906" 
d="M814 500v-500h-60v448h-250v-448h-60v448h-250v-448h-60v448h-90v52h90v50c0 92 50 150 138 150h63v-52h-55c-57 0 -86 -33 -86 -109v-39h250v50c0 92 50 150 138 150h63v-52h-55c-57 0 -86 -33 -86 -109v-39h310zM784 685c30 0 50 -22 50 -50s-20 -50 -50 -50
s-50 22 -50 50s20 50 50 50z" />
    <glyph glyph-name="f_f_j.liga.ss02" horiz-adv-x="908" 
d="M816 500v-574c0 -90 -51 -146 -146 -146h-69v52h61c64 0 95 32 94 104v512h-252v-448h-60v448h-250v-448h-60v448h-90v52h90v50c0 92 50 150 138 150h63v-52h-55c-57 0 -86 -33 -86 -109v-39h250v50c0 92 50 150 138 150h63v-52h-55c-57 0 -86 -33 -86 -109v-39h312z
M786 685c30 0 50 -22 50 -50s-20 -50 -50 -50s-50 22 -50 50s20 50 50 50z" />
    <glyph glyph-name="f_i.liga.ss02" horiz-adv-x="597" 
d="M505 500v-500h-60v448h-251v-448h-60v448h-90v52h90v50c0 92 50 150 138 150h63v-52h-55c-57 0 -86 -33 -86 -109v-39h311zM475 685c30 0 50 -22 50 -50s-20 -50 -50 -50s-50 22 -50 50s20 50 50 50z" />
    <glyph glyph-name="f_j.liga.ss02" horiz-adv-x="587" 
d="M507 500v-574c0 -90 -51 -146 -146 -146h-69v52h61c64 0 95 32 94 104v512h-253v-448h-60v448h-90v52h90v50c0 92 50 150 138 150h63v-52h-55c-57 0 -86 -33 -86 -109v-39h313zM477 685c30 0 50 -22 50 -50s-20 -50 -50 -50s-50 22 -50 50s20 50 50 50z" />
    <glyph glyph-name="five.dnom" horiz-adv-x="361" 
d="M186 229c79 0 132 -46 132 -121c0 -77 -58 -118 -135 -118c-82 0 -131 51 -138 117h49c5 -39 34 -74 91 -74c52 0 85 27 85 74c0 51 -35 81 -92 81c-50 0 -77 -25 -80 -29l-38 19l28 182h209v-44h-166l-20 -110c15 11 38 23 75 23z" />
    <glyph glyph-name="five.numr" horiz-adv-x="361" 
d="M186 569c79 0 132 -46 132 -121c0 -77 -58 -118 -135 -118c-82 0 -131 51 -138 117h49c5 -39 34 -74 91 -74c52 0 85 27 85 74c0 51 -35 81 -92 81c-50 0 -77 -25 -80 -29l-38 19l28 182h209v-44h-166l-20 -110c15 11 38 23 75 23z" />
    <glyph glyph-name="five.ss07" horiz-adv-x="557" 
d="M276 388c128 0 216 -74 216 -203c0 -132 -94 -195 -212 -195c-122 0 -202 78 -215 190h57c10 -73 61 -138 162 -138c90 0 149 49 149 139c0 100 -62 154 -162 154c-91 0 -139 -49 -139 -49l-44 27l46 307h324v-52h-273l-36 -218c25 18 62 38 127 38z" />
    <glyph glyph-name="five.tf" horiz-adv-x="640" 
d="M313 438c142 0 239 -83 239 -229c0 -149 -104 -219 -234 -219c-134 0 -222 87 -237 213h62c11 -83 68 -157 180 -157c100 0 165 56 165 158c0 115 -69 176 -180 176c-101 0 -154 -56 -154 -55l-47 29l51 346h357v-56h-302l-41 -248c29 20 69 42 141 42z" />
    <glyph glyph-name="five.tf.ss07" horiz-adv-x="590" 
d="M292 388c128 0 216 -74 216 -203c0 -132 -94 -195 -212 -195c-122 0 -202 78 -215 190h57c10 -73 61 -138 162 -138c90 0 149 49 149 139c0 100 -62 154 -162 154c-91 0 -139 -49 -139 -49l-44 27l46 307h324v-52h-273l-36 -218c25 18 62 38 127 38z" />
    <glyph glyph-name="fiveeighths.ss03" horiz-adv-x="881" 
d="M186 569c79 0 132 -46 132 -121c0 -77 -58 -118 -135 -118c-82 0 -131 51 -138 117h49c5 -39 34 -74 91 -74c52 0 85 27 85 74c0 51 -35 81 -92 81c-50 0 -77 -25 -80 -29l-38 19l28 182h209v-44h-166l-20 -110c15 11 38 23 75 23zM104 0l586 700h67l-586 -700h-67z
M748 190c42 -13 82 -41 82 -94c0 -63 -58 -106 -144 -106s-144 43 -144 106c0 53 40 81 82 94c-34 12 -67 36 -67 80c0 58 58 95 129 95s129 -37 129 -95c0 -44 -33 -68 -67 -80zM686 323c-49 0 -79 -24 -79 -56c0 -49 72 -59 79 -60c7 1 79 11 79 60c0 32 -30 56 -79 56z
M686 32c60 0 93 30 93 68c0 56 -82 71 -93 71s-93 -15 -93 -72c0 -36 33 -67 93 -67z" />
    <glyph glyph-name="florin.ss07" horiz-adv-x="536" 
d="M421 567c-65 0 -80 -43 -92 -99l-25 -122h149v-53h-160l-26 -128c-23 -112 -52 -165 -142 -165h-75v53h65c65 0 80 41 92 99l28 141h-129v53h140l23 117c22 109 52 157 142 157h75v-53h-65z" />
    <glyph glyph-name="four.dnom" horiz-adv-x="349" 
d="M318 116v-42h-59v-74h-49v74h-179v32l161 254h67v-244h59zM88 116h122v199z" />
    <glyph glyph-name="four.numr" horiz-adv-x="349" 
d="M318 456v-42h-59v-74h-49v74h-179v32l161 254h67v-244h59zM88 456h122v199z" />
    <glyph glyph-name="four.ss07" horiz-adv-x="552" 
d="M515 182v-51h-102v-131h-58v131h-309v41l278 448h89v-438h102zM114 182h241v395z" />
    <glyph glyph-name="four.tf" horiz-adv-x="640" 
d="M579 203v-55h-112v-148h-62v148h-340v45l306 507h96v-497h112zM138 203h267v451z" />
    <glyph glyph-name="four.tf.ss07" horiz-adv-x="590" 
d="M536 182v-51h-102v-131h-58v131h-309v41l278 448h89v-438h102zM135 182h241v395z" />
    <glyph glyph-name="gcommaaccent.ss02" 
d="M275 558c-32 0 -54 25 -54 70c0 62 34 106 105 119v-34c-30 -8 -55 -28 -54 -55c36 0 52 -22 52 -50s-20 -50 -49 -50zM426 500h59v-501c0 -145 -70 -229 -211 -229c-138 0 -200 87 -205 182h56c5 -57 37 -128 150 -128c124 0 151 84 151 185v76
c-13 -31 -58 -95 -160 -95c-131 0 -211 103 -211 256c0 163 92 264 215 264c74 0 132 -37 156 -93v83zM269 44c102 0 157 79 157 208c0 125 -51 203 -150 203c-112 0 -160 -101 -160 -214c0 -114 49 -197 153 -197z" />
    <glyph glyph-name="gdotaccent.ss02" 
d="M273 585c-30 0 -50 22 -50 50s20 50 50 50s50 -22 50 -50s-20 -50 -50 -50zM426 500h59v-501c0 -145 -70 -229 -211 -229c-138 0 -200 87 -205 182h56c5 -57 37 -128 150 -128c124 0 151 84 151 185v76c-13 -31 -58 -95 -160 -95c-131 0 -211 103 -211 256
c0 163 92 264 215 264c74 0 132 -37 156 -93v83zM269 44c102 0 157 79 157 208c0 125 -51 203 -150 203c-112 0 -160 -101 -160 -214c0 -114 49 -197 153 -197z" />
    <glyph glyph-name="guillemotleft.case" horiz-adv-x="609" 
d="M309 555l-170 -195l170 -195h-77l-167 195l167 195h77zM529 555l-170 -195l170 -195h-77l-167 195l167 195h77z" />
    <glyph glyph-name="guillemotright.case" horiz-adv-x="609" 
d="M157 555l167 -195l-167 -195h-77l170 195l-170 195h77zM377 555l167 -195l-167 -195h-77l170 195l-170 195h77z" />
    <glyph glyph-name="guilsinglleft.case" horiz-adv-x="389" 
d="M309 555l-170 -195l170 -195h-77l-167 195l167 195h77z" />
    <glyph glyph-name="guilsinglright.case" horiz-adv-x="389" 
d="M157 555l167 -195l-167 -195h-77l170 195l-170 195h77z" />
    <glyph glyph-name="hyphen.case" horiz-adv-x="521" 
d="M70 387h381v-52h-381v52z" />
    <glyph glyph-name="i.loclTRK" horiz-adv-x="220" 
d="M72 596v78h76v-78h-76zM140 0h-60v500h60v-500z" />
    <glyph glyph-name="i.loclTRK.ss02" horiz-adv-x="220" 
d="M110 585c-30 0 -50 22 -50 50s20 50 50 50s50 -22 50 -50s-20 -50 -50 -50zM140 0h-60v500h60v-500z" />
    <glyph glyph-name="i.ss02" horiz-adv-x="220" 
d="M110 585c-30 0 -50 22 -50 50s20 50 50 50s50 -22 50 -50s-20 -50 -50 -50zM140 0h-60v500h60v-500z" />
    <glyph glyph-name="idieresis.ss02" horiz-adv-x="220" 
d="M15 572c-27 0 -45 20 -45 45s18 45 45 45s45 -20 45 -45s-18 -45 -45 -45zM205 572c-27 0 -45 20 -45 45s18 45 45 45s45 -20 45 -45s-18 -45 -45 -45zM140 0h-60v500h60v-500z" />
    <glyph glyph-name="ij.ss02" horiz-adv-x="440" 
d="M160 635c0 -28 -20 -50 -50 -50s-50 22 -50 50s20 50 50 50s50 -22 50 -50zM330 685c30 0 50 -22 50 -50s-20 -50 -50 -50s-50 22 -50 50s20 50 50 50zM80 0v500h60v-500h-60zM300 500h60v-574c0 -90 -51 -146 -146 -146h-69v52h61c64 0 95 32 94 104v564z" />
    <glyph glyph-name="iogonek.ss02" horiz-adv-x="220" 
d="M110 585c-30 0 -50 22 -50 50s20 50 50 50s50 -22 50 -50s-20 -50 -50 -50zM68 -95c0 -34 25 -53 75 -53h14v-52h-25c-82 0 -124 48 -124 100c0 43 28 77 72 101v499h60v-500c-36 -20 -72 -59 -72 -95z" />
    <glyph glyph-name="j.ss02" horiz-adv-x="220" 
d="M110 685c30 0 50 -22 50 -50s-20 -50 -50 -50s-50 22 -50 50s20 50 50 50zM80 500h60v-574c0 -90 -51 -146 -146 -146h-69v52h61c64 0 95 32 94 104v564z" />
    <glyph glyph-name="kcommaaccent.ss02" horiz-adv-x="486" 
d="M237 277l227 -277h-72l-196 234l-59 -61v-173h-57v710h57v-455l240 245h75zM258 -62c29 0 48 -23 48 -63c0 -56 -30 -95 -94 -107v31c27 7 49 25 49 49c-33 0 -47 20 -47 45s18 45 44 45z" />
    <glyph glyph-name="lcaron.ss02" horiz-adv-x="220" 
d="M140 0h-60v710h60v-710zM249 710c31 0 52 -23 52 -63c0 -56 -33 -95 -100 -107v31c28 7 52 25 51 49c-34 0 -49 20 -49 45s19 45 46 45z" />
    <glyph glyph-name="lcommaaccent.ss02" horiz-adv-x="220" 
d="M140 0h-60v710h60v-710zM107 -62c29 0 48 -23 48 -63c0 -56 -30 -95 -94 -107v31c27 7 49 25 49 49c-33 0 -47 20 -47 45s18 45 44 45z" />
    <glyph glyph-name="ncommaaccent.ss02" 
d="M336 510c95 0 151 -61 151 -188v-322h-60v296c0 112 -29 163 -101 163c-93 0 -187 -121 -187 -303v-156h-59v500h59v-166c34 104 93 176 197 176zM280 -62c29 0 48 -23 48 -63c0 -56 -30 -95 -94 -107v31c27 7 49 25 49 49c-33 0 -47 20 -47 45s18 45 44 45z" />
    <glyph glyph-name="nine.dnom" horiz-adv-x="366" 
d="M172 123c-69 0 -124 45 -124 121c0 71 50 121 130 121c83 0 141 -57 141 -181c0 -126 -53 -194 -148 -194c-74 0 -120 52 -127 112h47c4 -28 24 -69 83 -69c69 0 98 65 98 145c-15 -27 -47 -55 -100 -55zM178 323c-45 0 -83 -30 -83 -80c0 -51 39 -79 82 -79
c44 0 83 28 83 79c0 52 -40 80 -82 80z" />
    <glyph glyph-name="nine.numr" horiz-adv-x="366" 
d="M172 463c-69 0 -124 45 -124 121c0 71 50 121 130 121c83 0 141 -57 141 -181c0 -126 -53 -194 -148 -194c-74 0 -120 52 -127 112h47c4 -28 24 -69 83 -69c69 0 98 65 98 145c-15 -27 -47 -55 -100 -55zM178 663c-45 0 -83 -30 -83 -80c0 -51 39 -79 82 -79
c44 0 83 28 83 79c0 52 -40 80 -82 80z" />
    <glyph glyph-name="nine.ss07" horiz-adv-x="572" 
d="M277 630c132 0 223 -95 223 -303c0 -212 -74 -337 -232 -337c-119 0 -190 89 -202 187h57c7 -46 40 -133 150 -133c121 0 175 112 173 283c-24 -57 -80 -107 -172 -107c-114 0 -203 77 -203 208c0 115 75 202 206 202zM276 273c82 0 151 56 151 150
c0 98 -71 155 -150 155c-86 0 -151 -61 -151 -153c0 -97 69 -152 150 -152z" />
    <glyph glyph-name="nine.tf" horiz-adv-x="640" 
d="M305 710c146 0 246 -107 246 -340c0 -238 -81 -380 -255 -380c-132 0 -210 100 -223 210h61c8 -52 45 -152 167 -152c134 0 194 126 192 321c-26 -64 -90 -120 -191 -120c-126 0 -224 87 -224 234c0 129 83 227 227 227zM304 307c92 0 168 64 168 170
c0 112 -79 177 -167 177c-95 0 -168 -70 -168 -174c0 -111 77 -173 167 -173z" />
    <glyph glyph-name="nine.tf.ss07" horiz-adv-x="590" 
d="M287 630c132 0 223 -95 223 -303c0 -212 -74 -337 -232 -337c-119 0 -190 89 -202 187h57c7 -46 40 -133 150 -133c121 0 175 112 173 283c-24 -57 -80 -107 -172 -107c-114 0 -203 77 -203 208c0 115 75 202 206 202zM286 273c82 0 151 56 151 150
c0 98 -71 155 -150 155c-86 0 -151 -61 -151 -153c0 -97 69 -152 150 -152z" />
    <glyph glyph-name="odieresis.ss02" horiz-adv-x="574" 
d="M192 572c-27 0 -45 20 -45 45s18 45 45 45s45 -20 45 -45s-18 -45 -45 -45zM382 572c-27 0 -45 20 -45 45s18 45 45 45s45 -20 45 -45s-18 -45 -45 -45zM287 -10c-143 0 -232 111 -232 259c0 149 89 260 232 260s232 -111 232 -260c0 -148 -89 -259 -232 -259zM287 41
c111 0 173 92 173 208c0 117 -62 208 -173 208s-173 -91 -173 -208c0 -116 62 -208 173 -208z" />
    <glyph glyph-name="one.dnom" horiz-adv-x="290" 
d="M210 360v-360h-49v255c-28 -22 -68 -35 -124 -37v40c60 3 131 27 131 102h42z" />
    <glyph glyph-name="one.dnom.ss06" horiz-adv-x="323" 
d="M218 41h75v-41h-239v41h115v214c-28 -22 -68 -35 -124 -37v40c60 3 131 27 131 102h42v-319z" />
    <glyph glyph-name="one.numr" horiz-adv-x="290" 
d="M210 700v-360h-49v255c-28 -22 -68 -35 -124 -37v40c60 3 131 27 131 102h42z" />
    <glyph glyph-name="one.numr.ss06" horiz-adv-x="323" 
d="M218 381h75v-41h-239v41h115v214c-28 -22 -68 -35 -124 -37v40c60 3 131 27 131 102h42v-319z" />
    <glyph glyph-name="one.ss06" horiz-adv-x="591" 
d="M366 58h167v-58h-442v58h212v473c-47 -49 -124 -82 -240 -86v54c112 7 246 51 246 201h57v-642z" />
    <glyph glyph-name="one.ss07" horiz-adv-x="411" 
d="M268 620h53v-620h-60v463c-41 -41 -106 -68 -200 -71v50c95 6 207 46 207 178z" />
    <glyph glyph-name="one.ss07.ss06" horiz-adv-x="549" 
d="M321 52h138v-52h-387v52h189v411c-41 -41 -106 -68 -200 -71v50c95 6 207 46 207 178h53v-568z" />
    <glyph glyph-name="one.tf" horiz-adv-x="640" 
d="M416 58h167v-58h-442v58h212v473c-47 -49 -124 -82 -240 -86v54c112 7 246 51 246 201h57v-642z" />
    <glyph glyph-name="one.tf.ss07" horiz-adv-x="590" 
d="M368 52h138v-52h-387v52h189v411c-41 -41 -106 -68 -200 -71v50c95 6 207 46 207 178h53v-568z" />
    <glyph glyph-name="oneeighth.ss03" horiz-adv-x="843" 
d="M210 700v-360h-49v255c-28 -22 -68 -35 -124 -37v40c60 3 131 27 131 102h42zM66 0l586 700h67l-586 -700h-67zM710 190c42 -13 82 -41 82 -94c0 -63 -58 -106 -144 -106s-144 43 -144 106c0 53 40 81 82 94c-34 12 -67 36 -67 80c0 58 58 95 129 95s129 -37 129 -95
c0 -44 -33 -68 -67 -80zM648 323c-49 0 -79 -24 -79 -56c0 -49 72 -59 79 -60c7 1 79 11 79 60c0 32 -30 56 -79 56zM648 32c60 0 93 30 93 68c0 56 -82 71 -93 71s-93 -15 -93 -72c0 -36 33 -67 93 -67z" />
    <glyph glyph-name="oneeighth.ss06" horiz-adv-x="893" 
d="M218 381h75v-41h-239v41h115v214c-28 -22 -68 -35 -124 -37v40c60 3 131 27 131 102h42v-319zM102 0l586 700h67l-586 -700h-67zM760 165c34 -12 67 -36 67 -80c0 -58 -58 -95 -129 -95s-129 37 -129 95c0 44 33 68 67 80c-42 13 -82 41 -82 94c0 63 58 106 144 106
s144 -43 144 -106c0 -53 -40 -81 -82 -94zM698 323c-60 0 -93 -31 -93 -67c0 -57 82 -72 93 -72s93 15 93 71c0 38 -33 68 -93 68zM619 88c0 -32 30 -56 79 -56s79 24 79 56c0 49 -72 59 -79 60c-7 -1 -79 -11 -79 -60z" />
    <glyph glyph-name="oneeighth.ss06.ss03" horiz-adv-x="879" 
d="M218 381h75v-41h-239v41h115v214c-28 -22 -68 -35 -124 -37v40c60 3 131 27 131 102h42v-319zM102 0l586 700h67l-586 -700h-67zM746 190c42 -13 82 -41 82 -94c0 -63 -58 -106 -144 -106s-144 43 -144 106c0 53 40 81 82 94c-34 12 -67 36 -67 80c0 58 58 95 129 95
s129 -37 129 -95c0 -44 -33 -68 -67 -80zM684 323c-49 0 -79 -24 -79 -56c0 -49 72 -59 79 -60c7 1 79 11 79 60c0 32 -30 56 -79 56zM684 32c60 0 93 30 93 68c0 56 -82 71 -93 71s-93 -15 -93 -72c0 -36 33 -67 93 -67z" />
    <glyph glyph-name="onehalf.ss06" horiz-adv-x="872" 
d="M218 381h75v-41h-239v41h115v214c-28 -22 -68 -35 -124 -37v40c60 3 131 27 131 102h42v-319zM102 0l586 700h67l-586 -700h-67zM823 0h-258v33l95 76c57 46 103 85 103 145c0 39 -26 67 -67 67c-54 0 -74 -43 -71 -97h-51c-5 71 32 141 123 141c75 0 118 -48 118 -112
c0 -69 -48 -117 -115 -170l-51 -40h174v-43z" />
    <glyph glyph-name="onequarter.ss06" horiz-adv-x="798" 
d="M218 381h75v-41h-239v41h115v214c-28 -22 -68 -35 -124 -37v40c60 3 131 27 131 102h42v-319zM102 0l586 700h67l-586 -700h-67zM767 116v-42h-59v-74h-49v74h-179v32l161 254h67v-244h59zM537 116h122v199z" />
    <glyph glyph-name="parenleft.case" horiz-adv-x="273" 
d="M235 820l38 -32c-74 -91 -150 -257 -150 -438s76 -347 150 -438l-38 -32c-60 60 -168 241 -168 470s108 410 168 470z" />
    <glyph glyph-name="parenright.case" horiz-adv-x="273" 
d="M38 -120l-38 32c74 91 150 257 150 438s-76 347 -150 438l38 32c60 -60 168 -241 168 -470s-108 -410 -168 -470z" />
    <glyph glyph-name="percent.ss07" horiz-adv-x="827" 
d="M220 330c-85 0 -152 65 -152 150c0 86 67 150 152 150s152 -64 152 -150c0 -85 -67 -150 -152 -150zM155 0l440 620h69l-440 -620h-69zM220 382c55 0 92 43 92 98s-37 98 -92 98s-92 -43 -92 -98s37 -98 92 -98zM607 -10c-85 0 -152 65 -152 150c0 86 67 150 152 150
s152 -64 152 -150c0 -85 -67 -150 -152 -150zM607 42c55 0 92 43 92 98s-37 98 -92 98s-92 -43 -92 -98s37 -98 92 -98z" />
    <glyph glyph-name="period.ss02" horiz-adv-x="200" 
d="M100 -10c-30 0 -50 22 -50 50s20 50 50 50s50 -22 50 -50s-20 -50 -50 -50z" />
    <glyph glyph-name="periodcentered.case" horiz-adv-x="216" 
d="M70 310v78h76v-78h-76z" />
    <glyph glyph-name="periodcentered.case.ss02" horiz-adv-x="240" 
d="M120 290c-30 0 -50 22 -50 50s20 50 50 50s50 -22 50 -50s-20 -50 -50 -50z" />
    <glyph glyph-name="periodcentered.ss02" horiz-adv-x="240" 
d="M120 226c-30 0 -50 22 -50 50s20 50 50 50s50 -22 50 -50s-20 -50 -50 -50z" />
    <glyph glyph-name="perthousand.ss07" horiz-adv-x="1170" 
d="M220 330c-85 0 -152 65 -152 150c0 86 67 150 152 150s152 -64 152 -150c0 -85 -67 -150 -152 -150zM155 0l440 620h69l-440 -620h-69zM220 382c55 0 92 43 92 98s-37 98 -92 98s-92 -43 -92 -98s37 -98 92 -98zM607 -10c-85 0 -152 65 -152 150c0 86 67 150 152 150
s152 -64 152 -150c0 -85 -67 -150 -152 -150zM958 -10c-85 0 -152 65 -152 150c0 86 67 150 152 150s152 -64 152 -150c0 -85 -67 -150 -152 -150zM607 42c55 0 92 43 92 98s-37 98 -92 98s-92 -43 -92 -98s37 -98 92 -98zM958 42c55 0 92 43 92 98s-37 98 -92 98
s-92 -43 -92 -98s37 -98 92 -98z" />
    <glyph glyph-name="question.ss02" horiz-adv-x="497" 
d="M252 710c112 0 188 -61 188 -178c0 -164 -185 -159 -185 -310v-42h-62v40c0 181 187 180 187 313c0 82 -52 123 -126 123c-89 0 -143 -71 -138 -196h-59c-8 158 75 250 195 250zM224 -10c-30 0 -50 22 -50 50s20 50 50 50s50 -22 50 -50s-20 -50 -50 -50z" />
    <glyph glyph-name="questiondown.case" horiz-adv-x="486" 
d="M232 618v78h76v-78h-76zM242 -9c-112 0 -188 61 -188 178c0 164 185 159 185 310v42h62v-40c0 -181 -187 -180 -187 -313c0 -82 52 -123 126 -123c89 0 143 71 138 196h59c8 -158 -75 -250 -195 -250z" />
    <glyph glyph-name="questiondown.case.ss02" horiz-adv-x="486" 
d="M270 608c-30 0 -50 22 -50 50s20 50 50 50s50 -22 50 -50s-20 -50 -50 -50zM242 -9c-112 0 -188 61 -188 178c0 164 185 159 185 310v42h62v-40c0 -181 -187 -180 -187 -313c0 -82 52 -123 126 -123c89 0 143 71 138 196h59c8 -158 -75 -250 -195 -250z" />
    <glyph glyph-name="questiondown.ss02" horiz-adv-x="454" 
d="M265 388c-30 0 -50 22 -50 50s20 50 50 50s50 -22 50 -50s-20 -50 -50 -50zM237 -229c-112 0 -188 61 -188 178c0 164 185 159 185 310v42h62v-40c0 -181 -187 -180 -187 -313c0 -82 52 -123 126 -123c89 0 143 71 138 196h59c8 -158 -75 -250 -195 -250z" />
    <glyph glyph-name="quotedbl.ss02" horiz-adv-x="351" 
d="M88 420l-18 240c-2 32 11 50 34 50s38 -18 35 -50l-19 -240h-32zM230 420l-18 240c-2 32 11 50 34 50s38 -18 35 -50l-19 -240h-32z" />
    <glyph glyph-name="quotedblbase.ss02" horiz-adv-x="331" 
d="M89 94c31 0 52 -26 52 -73c0 -65 -32 -110 -101 -124v35c29 8 54 30 52 58c-34 0 -50 23 -50 52s20 52 47 52zM229 94c31 0 52 -26 52 -73c0 -65 -32 -110 -101 -124v35c29 8 54 30 52 58c-34 0 -50 23 -50 52s20 52 47 52z" />
    <glyph glyph-name="quotedblleft.ss02" horiz-adv-x="331" 
d="M102 514c-31 0 -52 26 -52 73c0 65 32 110 101 124v-35c-29 -8 -54 -30 -52 -58c34 0 50 -23 50 -52s-20 -52 -47 -52zM242 514c-31 0 -52 26 -52 73c0 65 32 110 101 124v-35c-29 -8 -54 -30 -52 -58c34 0 50 -23 50 -52s-20 -52 -47 -52z" />
    <glyph glyph-name="quotedblright.ss02" horiz-adv-x="331" 
d="M89 705c31 0 52 -26 52 -73c0 -65 -32 -110 -101 -124v35c29 8 54 30 52 58c-34 0 -50 23 -50 52s20 52 47 52zM229 705c31 0 52 -26 52 -73c0 -65 -32 -110 -101 -124v35c29 8 54 30 52 58c-34 0 -50 23 -50 52s20 52 47 52z" />
    <glyph glyph-name="quoteleft.ss02" horiz-adv-x="191" 
d="M102 514c-31 0 -52 26 -52 73c0 65 32 110 101 124v-35c-29 -8 -54 -30 -52 -58c34 0 50 -23 50 -52s-20 -52 -47 -52z" />
    <glyph glyph-name="quoteright.ss02" horiz-adv-x="191" 
d="M89 705c31 0 52 -26 52 -73c0 -65 -32 -110 -101 -124v35c29 8 54 30 52 58c-34 0 -50 23 -50 52s20 52 47 52z" />
    <glyph glyph-name="quotesinglbase.ss02" horiz-adv-x="191" 
d="M89 94c31 0 52 -26 52 -73c0 -65 -32 -110 -101 -124v35c29 8 54 30 52 58c-34 0 -50 23 -50 52s20 52 47 52z" />
    <glyph glyph-name="quotesingle.ss02" horiz-adv-x="209" 
d="M88 420l-18 240c-2 32 11 50 34 50s38 -18 35 -50l-19 -240h-32z" />
    <glyph glyph-name="rcommaaccent.ss02" horiz-adv-x="415" 
d="M308 500h62v-51h-66c-81 0 -164 -54 -164 -231v-218h-60v500h60v-126c28 79 72 126 168 126zM107 -62c29 0 48 -23 48 -63c0 -56 -30 -95 -94 -107v31c27 7 49 25 49 49c-33 0 -47 20 -47 45s18 45 44 45z" />
    <glyph glyph-name="s.ss03" horiz-adv-x="493" 
d="M373 351c-5 70 -45 106 -123 106c-67 0 -115 -27 -115 -82c0 -73 85 -83 159 -105c92 -27 149 -65 149 -141c0 -86 -74 -139 -183 -139c-99 0 -192 44 -206 181h57c5 -96 72 -130 152 -130c88 0 123 42 123 87c0 49 -41 74 -137 100c-84 23 -175 47 -175 144
c0 94 84 137 176 137c107 0 174 -58 180 -158h-57z" />
    <glyph glyph-name="sacute.ss03" horiz-adv-x="493" 
d="M294 699h80l-103 -125h-67zM373 351c-5 70 -45 106 -123 106c-67 0 -115 -27 -115 -82c0 -73 85 -83 159 -105c92 -27 149 -65 149 -141c0 -86 -74 -139 -183 -139c-99 0 -192 44 -206 181h57c5 -96 72 -130 152 -130c88 0 123 42 123 87c0 49 -41 74 -137 100
c-84 23 -175 47 -175 144c0 94 84 137 176 137c107 0 174 -58 180 -158h-57z" />
    <glyph glyph-name="scaron.ss03" horiz-adv-x="493" 
d="M322 685h64l-90 -125h-70l-90 125h64l61 -82zM373 351c-5 70 -45 106 -123 106c-67 0 -115 -27 -115 -82c0 -73 85 -83 159 -105c92 -27 149 -65 149 -141c0 -86 -74 -139 -183 -139c-99 0 -192 44 -206 181h57c5 -96 72 -130 152 -130c88 0 123 42 123 87
c0 49 -41 74 -137 100c-84 23 -175 47 -175 144c0 94 84 137 176 137c107 0 174 -58 180 -158h-57z" />
    <glyph glyph-name="scedilla.ss03" horiz-adv-x="493" 
d="M443 129c0 -77 -59 -127 -149 -137c35 -23 56 -55 56 -92c0 -52 -42 -100 -124 -100h-44v50h36c50 0 75 21 75 55c0 31 -27 65 -58 86c-89 7 -168 54 -181 180h57c5 -96 72 -130 152 -130c88 0 123 42 123 87c0 49 -41 74 -137 100c-84 23 -175 47 -175 144
c0 94 84 137 176 137c107 0 174 -58 180 -158h-57c-5 70 -45 106 -123 106c-67 0 -115 -27 -115 -82c0 -73 85 -83 159 -105c92 -27 149 -65 149 -141z" />
    <glyph glyph-name="scircumflex.ss03" horiz-adv-x="493" 
d="M386 560h-64l-61 82l-61 -82h-64l90 125h70zM373 351c-5 70 -45 106 -123 106c-67 0 -115 -27 -115 -82c0 -73 85 -83 159 -105c92 -27 149 -65 149 -141c0 -86 -74 -139 -183 -139c-99 0 -192 44 -206 181h57c5 -96 72 -130 152 -130c88 0 123 42 123 87
c0 49 -41 74 -137 100c-84 23 -175 47 -175 144c0 94 84 137 176 137c107 0 174 -58 180 -158h-57z" />
    <glyph glyph-name="scommaaccent.ss02" horiz-adv-x="493" 
d="M124 148c5 -70 52 -106 130 -106c67 0 108 22 108 77c0 73 -85 83 -159 105c-92 27 -149 64 -149 146c0 86 74 139 183 139c99 0 192 -44 206 -181h-57c-5 93 -72 130 -152 130c-88 0 -123 -42 -123 -87c0 -59 41 -79 137 -105c84 -23 175 -54 175 -147
c0 -89 -79 -129 -171 -129c-107 0 -179 56 -185 158h57zM246 -62c29 0 48 -23 48 -63c0 -56 -30 -95 -94 -107v31c27 7 49 25 49 49c-33 0 -47 20 -47 45s18 45 44 45z" />
    <glyph glyph-name="scommaaccent.ss03" horiz-adv-x="493" 
d="M294 270c92 -27 149 -65 149 -141c0 -86 -74 -139 -183 -139c-99 0 -192 44 -206 181h57c5 -96 72 -130 152 -130c88 0 123 42 123 87c0 49 -41 74 -137 100c-84 23 -175 47 -175 144c0 94 84 137 176 137c107 0 174 -58 180 -158h-57c-5 70 -45 106 -123 106
c-67 0 -115 -27 -115 -82c0 -73 85 -83 159 -105zM219 -138v70h76v-48c0 -80 -18 -111 -86 -122v30c39 10 46 27 46 70h-36z" />
    <glyph glyph-name="scommaaccent.ss03.ss02" horiz-adv-x="493" 
d="M373 351c-5 70 -45 106 -123 106c-67 0 -115 -27 -115 -82c0 -73 85 -83 159 -105c92 -27 149 -65 149 -141c0 -86 -74 -139 -183 -139c-99 0 -192 44 -206 181h57c5 -96 72 -130 152 -130c88 0 123 42 123 87c0 49 -41 74 -137 100c-84 23 -175 47 -175 144
c0 94 84 137 176 137c107 0 174 -58 180 -158h-57zM255 -62c29 0 48 -23 48 -63c0 -56 -30 -95 -94 -107v31c27 7 49 25 49 49c-33 0 -47 20 -47 45s18 45 44 45z" />
    <glyph glyph-name="semicolon.ss02" horiz-adv-x="195" 
d="M94 410c-30 0 -50 22 -50 50s20 50 50 50s50 -22 50 -50s-20 -50 -50 -50zM91 90c32 0 54 -25 54 -70c0 -62 -34 -106 -105 -119v34c30 8 55 28 54 55c-36 0 -52 22 -52 50s20 50 49 50z" />
    <glyph glyph-name="seven.dnom" horiz-adv-x="327" 
d="M42 360h254v-33l-168 -327h-58l164 316h-192v44z" />
    <glyph glyph-name="seven.dnom.ss06" horiz-adv-x="327" 
d="M296 360v-33l-168 -327h-58l164 316h-142v-59h-50v103h254z" />
    <glyph glyph-name="seven.numr" horiz-adv-x="327" 
d="M42 700h254v-33l-168 -327h-58l164 316h-192v44z" />
    <glyph glyph-name="seven.numr.ss06" horiz-adv-x="327" 
d="M296 700v-33l-168 -327h-58l164 316h-142v-59h-50v103h254z" />
    <glyph glyph-name="seven.ss06" horiz-adv-x="564" 
d="M511 700v-46l-324 -654h-75l323 644h-320v-119h-61v175h457z" />
    <glyph glyph-name="seven.ss07" horiz-adv-x="538" 
d="M73 620h412v-42l-291 -578h-69l289 568h-341v52z" />
    <glyph glyph-name="seven.ss07.ss06" horiz-adv-x="538" 
d="M485 620v-42l-291 -578h-69l289 568h-283v-113h-58v165h412z" />
    <glyph glyph-name="seven.tf" horiz-adv-x="640" 
d="M78 700h457v-46l-324 -654h-75l323 644h-381v56z" />
    <glyph glyph-name="seven.tf.ss06" horiz-adv-x="564" 
d="M511 700v-46l-324 -654h-75l323 644h-320v-119h-61v175h457z" />
    <glyph glyph-name="seven.tf.ss07" horiz-adv-x="590" 
d="M92 620h412v-42l-291 -578h-69l289 568h-341v52z" />
    <glyph glyph-name="seven.tf.ss07.ss06" horiz-adv-x="590" 
d="M504 620v-42l-291 -578h-69l289 568h-283v-113h-58v165h412z" />
    <glyph glyph-name="seveneighths.ss03" horiz-adv-x="777" 
d="M0 0l586 700h67l-586 -700h-67zM42 700h254v-33l-168 -327h-58l164 316h-192v44zM644 190c42 -13 82 -41 82 -94c0 -63 -58 -106 -144 -106s-144 43 -144 106c0 53 40 81 82 94c-34 12 -67 36 -67 80c0 58 58 95 129 95s129 -37 129 -95c0 -44 -33 -68 -67 -80zM582 323
c-49 0 -79 -24 -79 -56c0 -49 72 -59 79 -60c7 1 79 11 79 60c0 32 -30 56 -79 56zM582 32c60 0 93 30 93 68c0 56 -82 71 -93 71s-93 -15 -93 -72c0 -36 33 -67 93 -67z" />
    <glyph glyph-name="seveneighths.ss06" horiz-adv-x="791" 
d="M0 0l586 700h67l-586 -700h-67zM296 700v-33l-168 -327h-58l164 316h-142v-59h-50v103h254zM658 165c34 -12 67 -36 67 -80c0 -58 -58 -95 -129 -95s-129 37 -129 95c0 44 33 68 67 80c-42 13 -82 41 -82 94c0 63 58 106 144 106s144 -43 144 -106c0 -53 -40 -81 -82 -94
zM596 323c-60 0 -93 -31 -93 -67c0 -57 82 -72 93 -72s93 15 93 71c0 38 -33 68 -93 68zM517 88c0 -32 30 -56 79 -56s79 24 79 56c0 49 -72 59 -79 60c-7 -1 -79 -11 -79 -60z" />
    <glyph glyph-name="seveneighths.ss06.ss03" horiz-adv-x="777" 
d="M0 0l586 700h67l-586 -700h-67zM296 700v-33l-168 -327h-58l164 316h-142v-59h-50v103h254zM644 190c42 -13 82 -41 82 -94c0 -63 -58 -106 -144 -106s-144 43 -144 106c0 53 40 81 82 94c-34 12 -67 36 -67 80c0 58 58 95 129 95s129 -37 129 -95c0 -44 -33 -68 -67 -80
zM582 323c-49 0 -79 -24 -79 -56c0 -49 72 -59 79 -60c7 1 79 11 79 60c0 32 -30 56 -79 56zM582 32c60 0 93 30 93 68c0 56 -82 71 -93 71s-93 -15 -93 -72c0 -36 33 -67 93 -67z" />
    <glyph glyph-name="six.dnom" horiz-adv-x="363" 
d="M191 232c69 0 124 -45 124 -121c0 -71 -50 -121 -130 -121c-83 0 -141 57 -141 181c0 126 53 194 148 194c74 0 120 -52 127 -112h-47c-4 28 -24 69 -83 69c-69 0 -98 -65 -98 -145c15 27 47 55 100 55zM185 32c45 0 83 30 83 80c0 51 -39 79 -82 79
c-44 0 -83 -28 -83 -79c0 -52 40 -80 82 -80z" />
    <glyph glyph-name="six.numr" horiz-adv-x="363" 
d="M191 572c69 0 124 -45 124 -121c0 -71 -50 -121 -130 -121c-83 0 -141 57 -141 181c0 126 53 194 148 194c74 0 120 -52 127 -112h-47c-4 28 -24 69 -83 69c-69 0 -98 -65 -98 -145c15 27 47 55 100 55zM185 372c45 0 83 30 83 80c0 51 -39 79 -82 79
c-44 0 -83 -28 -83 -79c0 -52 40 -80 82 -80z" />
    <glyph glyph-name="six.ss07" horiz-adv-x="581" 
d="M298 400c114 0 203 -77 203 -208c0 -115 -75 -202 -206 -202c-132 0 -223 95 -223 303c0 212 74 337 232 337c119 0 190 -89 202 -187h-57c-7 46 -40 133 -150 133c-121 0 -175 -112 -173 -283c24 57 80 107 172 107zM295 42c86 0 151 61 151 153c0 97 -69 152 -150 152
c-82 0 -151 -56 -151 -150c0 -98 71 -155 150 -155z" />
    <glyph glyph-name="six.tf" horiz-adv-x="640" 
d="M334 451c126 0 224 -87 224 -234c0 -129 -83 -227 -227 -227c-146 0 -246 107 -246 340c0 238 81 380 255 380c132 0 210 -100 223 -210h-61c-8 52 -45 152 -167 152c-134 0 -194 -126 -192 -321c26 64 90 120 191 120zM331 46c95 0 168 70 168 174
c0 111 -77 173 -167 173c-92 0 -168 -64 -168 -170c0 -112 79 -177 167 -177z" />
    <glyph glyph-name="six.tf.ss07" horiz-adv-x="590" 
d="M307 400c114 0 203 -77 203 -208c0 -115 -75 -202 -206 -202c-132 0 -223 95 -223 303c0 212 74 337 232 337c119 0 190 -89 202 -187h-57c-7 46 -40 133 -150 133c-121 0 -175 -112 -173 -283c24 57 80 107 172 107zM304 42c86 0 151 61 151 153c0 97 -69 152 -150 152
c-82 0 -151 -56 -151 -150c0 -98 71 -155 150 -155z" />
    <glyph glyph-name="sterling.ss07" horiz-adv-x="546" 
d="M233 53h243v-53h-412v43c137 10 188 62 188 124c0 30 -13 54 -31 76h-131v53h80c-37 38 -73 82 -73 156c0 109 77 178 183 178c101 0 173 -53 185 -183h-57c-7 78 -40 130 -127 130c-79 0 -126 -52 -126 -126c0 -70 47 -112 90 -155h175v-53h-130c13 -20 22 -43 22 -70
c0 -49 -27 -92 -79 -120z" />
    <glyph glyph-name="tcaron.ss02" horiz-adv-x="364" 
d="M309 710c31 0 52 -23 52 -63c0 -56 -33 -95 -100 -107v31c28 7 52 25 51 49c-34 0 -49 20 -49 45s19 45 46 45zM191 156c0 -72 29 -104 86 -104h55v-52h-63c-88 0 -138 56 -138 146v302h-95v52h95v120l60 10v-130h120v-52h-120v-292z" />
    <glyph glyph-name="three.dnom" horiz-adv-x="356" 
d="M244 169c34 -12 58 -39 58 -78c0 -51 -42 -101 -122 -101c-76 0 -124 46 -130 113h50c5 -50 42 -69 80 -69c49 0 72 31 72 62c0 33 -25 57 -76 57h-33v39h35c54 0 85 26 85 66c0 42 -35 64 -82 64c-50 0 -88 -25 -94 -81h-48c7 79 58 124 141 124c75 0 134 -38 134 -106
c0 -47 -29 -77 -70 -90z" />
    <glyph glyph-name="three.dnom.ss03" horiz-adv-x="356" 
d="M244 186c41 -13 70 -43 70 -90c0 -68 -59 -106 -134 -106c-83 0 -134 45 -141 124h48c6 -56 44 -81 94 -81c47 0 82 22 82 64c0 40 -31 66 -85 66h-35v39h33c51 0 76 24 76 57c0 31 -23 62 -72 62c-38 0 -75 -19 -80 -69h-50c6 67 54 113 130 113c80 0 122 -50 122 -101
c0 -39 -24 -66 -58 -78z" />
    <glyph glyph-name="three.numr" horiz-adv-x="356" 
d="M244 509c34 -12 58 -39 58 -78c0 -51 -42 -101 -122 -101c-76 0 -124 46 -130 113h50c5 -50 42 -69 80 -69c49 0 72 31 72 62c0 33 -25 57 -76 57h-33v39h35c54 0 85 26 85 66c0 42 -35 64 -82 64c-50 0 -88 -25 -94 -81h-48c7 79 58 124 141 124c75 0 134 -38 134 -106
c0 -47 -29 -77 -70 -90z" />
    <glyph glyph-name="three.numr.ss03" horiz-adv-x="356" 
d="M244 526c41 -13 70 -43 70 -90c0 -68 -59 -106 -134 -106c-83 0 -134 45 -141 124h48c6 -56 44 -81 94 -81c47 0 82 22 82 64c0 40 -31 66 -85 66h-35v39h33c51 0 76 24 76 57c0 31 -23 62 -72 62c-38 0 -75 -19 -80 -69h-50c6 67 54 113 130 113c80 0 122 -50 122 -101
c0 -39 -24 -66 -58 -78z" />
    <glyph glyph-name="three.ss03" horiz-adv-x="619" 
d="M414 362c72 -26 129 -85 129 -176c0 -130 -110 -196 -235 -196c-130 0 -229 71 -243 225h60c11 -117 88 -168 188 -168c93 0 166 48 166 138c0 86 -65 146 -175 146h-64v57h64c102 0 154 52 154 127c0 67 -48 138 -150 138c-78 0 -152 -42 -163 -146h-62
c14 128 101 203 223 203c135 0 215 -94 215 -195c0 -78 -46 -129 -107 -153z" />
    <glyph glyph-name="three.ss07" horiz-adv-x="561" 
d="M377 299c56 -21 98 -66 98 -136c0 -89 -72 -173 -195 -173c-111 0 -190 68 -202 182h57c10 -92 77 -129 147 -129c91 0 134 62 134 121c0 66 -46 112 -138 112h-58v52h58c99 0 153 52 153 125c0 82 -68 124 -153 124c-80 0 -155 -45 -165 -148h-56
c13 137 108 201 217 201c114 0 217 -59 217 -178c0 -78 -49 -130 -114 -153z" />
    <glyph glyph-name="three.ss07.ss03" horiz-adv-x="561" 
d="M377 321c65 -23 114 -75 114 -153c0 -119 -99 -178 -213 -178c-127 0 -208 64 -221 201h56c10 -103 71 -148 169 -148c85 0 149 42 149 124c0 73 -54 125 -153 125h-58v52h58c92 0 138 46 138 112c0 59 -43 121 -134 121c-70 0 -137 -37 -147 -129h-57
c12 114 91 182 202 182c123 0 195 -84 195 -173c0 -70 -42 -115 -98 -136z" />
    <glyph glyph-name="three.tf" horiz-adv-x="640" 
d="M420 337c62 -27 110 -83 110 -162c0 -101 -80 -185 -213 -185c-134 0 -211 75 -225 203h62c11 -104 75 -146 165 -146c100 0 148 61 148 128c0 75 -52 137 -154 137h-64v57h64c110 0 171 58 171 140c0 96 -70 144 -162 144c-101 0 -182 -56 -188 -168h-60
c4 149 112 225 243 225c124 0 231 -66 231 -202c0 -89 -56 -146 -128 -171z" />
    <glyph glyph-name="three.tf.ss03" horiz-adv-x="640" 
d="M423 362c72 -26 129 -85 129 -176c0 -130 -110 -196 -235 -196c-130 0 -229 71 -243 225h60c11 -117 88 -168 188 -168c93 0 166 48 166 138c0 86 -65 146 -175 146h-64v57h64c102 0 154 52 154 127c0 67 -48 138 -150 138c-78 0 -152 -42 -163 -146h-62
c14 128 101 203 223 203c135 0 215 -94 215 -195c0 -78 -46 -129 -107 -153z" />
    <glyph glyph-name="three.tf.ss07" horiz-adv-x="590" 
d="M391 299c56 -21 98 -66 98 -136c0 -89 -72 -173 -195 -173c-111 0 -190 68 -202 182h57c10 -92 77 -129 147 -129c91 0 134 62 134 121c0 66 -46 112 -138 112h-58v52h58c99 0 153 52 153 125c0 82 -68 124 -153 124c-80 0 -155 -45 -165 -148h-56
c13 137 108 201 217 201c114 0 217 -59 217 -178c0 -78 -49 -130 -114 -153z" />
    <glyph glyph-name="three.tf.ss07.ss03" horiz-adv-x="590" 
d="M391 321c65 -23 114 -75 114 -153c0 -119 -99 -178 -213 -178c-127 0 -208 64 -221 201h56c10 -103 71 -148 169 -148c85 0 149 42 149 124c0 73 -54 125 -153 125h-58v52h58c92 0 138 46 138 112c0 59 -43 121 -134 121c-70 0 -137 -37 -147 -129h-57
c12 114 91 182 202 182c123 0 195 -84 195 -173c0 -70 -42 -115 -98 -136z" />
    <glyph glyph-name="threeeighths.ss03" horiz-adv-x="883" 
d="M244 526c41 -13 70 -43 70 -90c0 -68 -59 -106 -134 -106c-83 0 -134 45 -141 124h48c6 -56 44 -81 94 -81c47 0 82 22 82 64c0 40 -31 66 -85 66h-35v39h33c51 0 76 24 76 57c0 31 -23 62 -72 62c-38 0 -75 -19 -80 -69h-50c6 67 54 113 130 113c80 0 122 -50 122 -101
c0 -39 -24 -66 -58 -78zM106 0l586 700h67l-586 -700h-67zM750 190c42 -13 82 -41 82 -94c0 -63 -58 -106 -144 -106s-144 43 -144 106c0 53 40 81 82 94c-34 12 -67 36 -67 80c0 58 58 95 129 95s129 -37 129 -95c0 -44 -33 -68 -67 -80zM688 323c-49 0 -79 -24 -79 -56
c0 -49 72 -59 79 -60c7 1 79 11 79 60c0 32 -30 56 -79 56zM688 32c60 0 93 30 93 68c0 56 -82 71 -93 71s-93 -15 -93 -72c0 -36 33 -67 93 -67z" />
    <glyph glyph-name="threequarters.ss03" horiz-adv-x="802" 
d="M244 526c41 -13 70 -43 70 -90c0 -68 -59 -106 -134 -106c-83 0 -134 45 -141 124h48c6 -56 44 -81 94 -81c47 0 82 22 82 64c0 40 -31 66 -85 66h-35v39h33c51 0 76 24 76 57c0 31 -23 62 -72 62c-38 0 -75 -19 -80 -69h-50c6 67 54 113 130 113c80 0 122 -50 122 -101
c0 -39 -24 -66 -58 -78zM106 0l586 700h67l-586 -700h-67zM771 116v-42h-59v-74h-49v74h-179v32l161 254h67v-244h59zM541 116h122v199z" />
    <glyph glyph-name="two.dnom" horiz-adv-x="356" 
d="M307 0h-258v33l95 76c57 46 103 85 103 145c0 39 -26 67 -67 67c-54 0 -74 -43 -71 -97h-51c-5 71 32 141 123 141c75 0 118 -48 118 -112c0 -69 -48 -117 -115 -170l-51 -40h174v-43z" />
    <glyph glyph-name="two.numr" horiz-adv-x="356" 
d="M307 340h-258v33l95 76c57 46 103 85 103 145c0 39 -26 67 -67 67c-54 0 -74 -43 -71 -97h-51c-5 71 32 141 123 141c75 0 118 -48 118 -112c0 -69 -48 -117 -115 -170l-51 -40h174v-43z" />
    <glyph glyph-name="two.ss07" horiz-adv-x="546" 
d="M483 0h-416v42l169 145c88 76 172 148 172 260c0 77 -53 131 -132 131c-100 0 -139 -76 -131 -176h-60c-11 112 48 228 192 228c122 0 191 -82 191 -188c0 -123 -89 -209 -210 -310l-96 -80h321v-52z" />
    <glyph glyph-name="two.tf" horiz-adv-x="640" 
d="M542 0h-461l-1 46l189 165c98 85 192 167 192 294c0 88 -60 149 -149 149c-112 0 -155 -86 -146 -199h-65c-12 125 53 255 212 255c136 0 212 -92 212 -211c0 -139 -99 -237 -235 -352l-107 -91h359v-56z" />
    <glyph glyph-name="two.tf.ss07" horiz-adv-x="590" 
d="M496 0h-416v42l169 145c88 76 172 148 172 260c0 77 -53 131 -132 131c-100 0 -139 -76 -131 -176h-60c-11 112 48 228 192 228c122 0 191 -82 191 -188c0 -123 -89 -209 -210 -310l-96 -80h321v-52z" />
    <glyph glyph-name="udieresis.ss02" 
d="M187 572c-27 0 -45 20 -45 45s18 45 45 45s45 -20 45 -45s-18 -45 -45 -45zM377 572c-27 0 -45 20 -45 45s18 45 45 45s45 -20 45 -45s-18 -45 -45 -45zM426 500h59v-500h-59v166c-34 -104 -93 -176 -197 -176c-95 0 -151 61 -151 188v322h60v-296
c0 -112 29 -163 101 -163c93 0 187 121 187 303v156z" />
    <glyph glyph-name="uni00AD.case" horiz-adv-x="521" 
d="M70 387h381v-52h-381v52z" />
    <glyph glyph-name="uni00B3.ss03" horiz-adv-x="356" 
d="M244 596c41 -13 70 -43 70 -90c0 -68 -59 -106 -134 -106c-83 0 -134 45 -141 124h48c6 -56 44 -81 94 -81c47 0 82 22 82 64c0 40 -31 66 -85 66h-35v39h33c51 0 76 24 76 57c0 31 -23 62 -72 62c-38 0 -75 -19 -80 -69h-50c6 67 54 113 130 113c80 0 122 -50 122 -101
c0 -39 -24 -66 -58 -78z" />
    <glyph glyph-name="uni00B9.ss06" horiz-adv-x="323" 
d="M218 451h75v-41h-239v41h115v214c-28 -22 -68 -35 -124 -37v40c60 3 131 27 131 102h42v-319z" />
    <glyph glyph-name="uni01CE.ss01" horiz-adv-x="566" 
d="M314 560h-70l-90 125h64l61 -82l61 82h64zM426 500h60v-500h-60v81c-14 -29 -60 -91 -160 -91c-131 0 -211 103 -211 256c0 163 92 264 216 264c72 0 131 -37 155 -93v83zM270 46c101 0 156 77 156 208c0 123 -51 201 -151 201c-110 0 -159 -101 -159 -214
c0 -114 49 -195 154 -195z" />
    <glyph glyph-name="uni01CF.ss06" horiz-adv-x="405" 
d="M241 767h-77l-99 138h70l68 -91l67 91h70zM335 700v-57h-100v-586h100v-57h-265v57h100v586h-100v57h265z" />
    <glyph glyph-name="uni021A.ss02" horiz-adv-x="635" 
d="M588 700v-58h-238v-642h-65v642h-238v58h541zM315 -78c32 0 54 -25 54 -70c0 -61 -34 -104 -104 -117v33c30 8 54 28 53 55c-35 0 -51 22 -51 49c0 28 20 50 48 50z" />
    <glyph glyph-name="uni021B.ss02" horiz-adv-x="364" 
d="M277 52h55v-52h-63c-88 0 -138 56 -138 146v302h-95v52h95v120l60 10v-130h120v-52h-120v-292c0 -72 29 -104 86 -104zM232 -62c29 0 48 -23 48 -63c0 -56 -30 -95 -94 -107v31c27 7 49 25 49 49c-33 0 -47 20 -47 45s18 45 44 45z" />
    <glyph glyph-name="uni0226.ss02" horiz-adv-x="644" 
d="M322 787c-33 0 -55 24 -55 55c0 30 22 55 55 55s55 -25 55 -55c0 -31 -22 -55 -55 -55zM546 0l-67 187h-314l-67 -187h-68l255 700h74l255 -700h-68zM186 245h272l-136 377z" />
    <glyph glyph-name="uni0227.ss01" horiz-adv-x="566" 
d="M317 674v-78h-76v78h76zM426 500h60v-500h-60v81c-14 -29 -60 -91 -160 -91c-131 0 -211 103 -211 256c0 163 92 264 216 264c72 0 131 -37 155 -93v83zM270 46c101 0 156 77 156 208c0 123 -51 201 -151 201c-110 0 -159 -101 -159 -214c0 -114 49 -195 154 -195z" />
    <glyph glyph-name="uni0227.ss01.ss02" horiz-adv-x="566" 
d="M279 585c-30 0 -50 22 -50 50s20 50 50 50s50 -22 50 -50s-20 -50 -50 -50zM426 500h60v-500h-60v81c-14 -29 -60 -91 -160 -91c-131 0 -211 103 -211 256c0 163 92 264 216 264c72 0 131 -37 155 -93v83zM270 46c101 0 156 77 156 208c0 123 -51 201 -151 201
c-110 0 -159 -101 -159 -214c0 -114 49 -195 154 -195z" />
    <glyph glyph-name="uni0227.ss02" horiz-adv-x="539" 
d="M269 585c-30 0 -50 22 -50 50s20 50 50 50s50 -22 50 -50s-20 -50 -50 -50zM280 509c99 0 181 -52 181 -157v-352h-60v104c-20 -45 -76 -114 -179 -114c-87 0 -161 49 -161 144c0 85 58 123 189 144c99 16 151 24 151 82c0 56 -51 97 -124 97c-87 0 -129 -46 -135 -127
h-58c4 100 62 179 196 179zM231 42c95 0 170 71 170 183v47c-34 -19 -83 -31 -137 -41c-88 -16 -145 -36 -145 -100c0 -62 53 -89 112 -89z" />
    <glyph glyph-name="uni0232.ss04" horiz-adv-x="649" 
d="M473 850v-57h-297v57h297zM614 700l-257 -403v-297h-65v297l-257 403h77l213 -331l212 331h77z" />
    <glyph glyph-name="uni0233.ss01" horiz-adv-x="556" 
d="M412 637v-52h-270v52h270zM416 500h60v-501c0 -145 -70 -229 -201 -229c-134 0 -189 87 -194 182h56c5 -57 30 -128 139 -128c114 0 140 84 140 185v147c-32 -94 -90 -166 -191 -166c-93 0 -147 61 -147 188v322h60v-296c0 -112 31 -163 96 -163c88 0 146 91 182 213v246
z" />
    <glyph glyph-name="uni1EA0.ss02" horiz-adv-x="644" 
d="M614 0h-68l-67 187h-314l-67 -187h-68l255 700h74zM186 245h272l-136 377zM322 -97c33 0 55 -25 55 -55c0 -31 -22 -55 -55 -55s-55 24 -55 55c0 30 22 55 55 55z" />
    <glyph glyph-name="uni1EA1.ss01" horiz-adv-x="566" 
d="M426 500h60v-500h-60v81c-14 -29 -60 -91 -160 -91c-131 0 -211 103 -211 256c0 163 92 264 216 264c72 0 131 -37 155 -93v83zM270 46c101 0 156 77 156 208c0 123 -51 201 -151 201c-110 0 -159 -101 -159 -214c0 -114 49 -195 154 -195zM247 -174v78h76v-78h-76z" />
    <glyph glyph-name="uni1EA1.ss01.ss02" horiz-adv-x="566" 
d="M426 500h60v-500h-60v81c-14 -29 -60 -91 -160 -91c-131 0 -211 103 -211 256c0 163 92 264 216 264c72 0 131 -37 155 -93v83zM270 46c101 0 156 77 156 208c0 123 -51 201 -151 201c-110 0 -159 -101 -159 -214c0 -114 49 -195 154 -195zM285 -97c30 0 50 -22 50 -50
s-20 -50 -50 -50s-50 22 -50 50s20 50 50 50z" />
    <glyph glyph-name="uni1EA1.ss02" horiz-adv-x="539" 
d="M280 509c99 0 181 -52 181 -157v-352h-60v104c-20 -45 -76 -114 -179 -114c-87 0 -161 49 -161 144c0 85 58 123 189 144c99 16 151 24 151 82c0 56 -51 97 -124 97c-87 0 -129 -46 -135 -127h-58c4 100 62 179 196 179zM231 42c95 0 170 71 170 183v47
c-34 -19 -83 -31 -137 -41c-88 -16 -145 -36 -145 -100c0 -62 53 -89 112 -89zM273 -97c30 0 50 -22 50 -50s-20 -50 -50 -50s-50 22 -50 50s20 50 50 50z" />
    <glyph glyph-name="uni1EB8.ss02" horiz-adv-x="575" 
d="M500 642h-345v-257h325v-58h-325v-269h345v-58h-410v700h410v-58zM285 -97c33 0 55 -25 55 -55c0 -31 -22 -55 -55 -55s-55 24 -55 55c0 30 22 55 55 55z" />
    <glyph glyph-name="uni1EB9.ss02" horiz-adv-x="560" 
d="M442 158h55c-8 -88 -78 -168 -205 -168c-154 0 -237 118 -237 260c0 143 82 259 228 259c138 0 213 -105 213 -260v-16h-380c6 -114 74 -191 177 -191c80 0 135 46 149 116zM284 457c-105 0 -158 -78 -167 -172h320c-7 92 -48 172 -153 172zM285 -97c30 0 50 -22 50 -50
s-20 -50 -50 -50s-50 22 -50 50s20 50 50 50z" />
    <glyph glyph-name="uni1ECA.ss02" horiz-adv-x="245" 
d="M155 0h-65v700h65v-700zM122 -207c-33 0 -55 24 -55 55c0 30 22 55 55 55s55 -25 55 -55c0 -31 -22 -55 -55 -55z" />
    <glyph glyph-name="uni1ECA.ss06" horiz-adv-x="405" 
d="M335 643h-100v-586h100v-57h-265v57h100v586h-100v57h265v-57zM160 -194v85h84v-85h-84z" />
    <glyph glyph-name="uni1ECA.ss06.ss02" horiz-adv-x="405" 
d="M335 643h-100v-586h100v-57h-265v57h100v586h-100v57h265v-57zM202 -97c33 0 55 -25 55 -55c0 -31 -22 -55 -55 -55s-55 24 -55 55c0 30 22 55 55 55z" />
    <glyph glyph-name="uni1ECC.ss02" horiz-adv-x="776" 
d="M388 -10c-201 0 -321 142 -321 360s120 360 321 360s321 -142 321 -360s-120 -360 -321 -360zM388 48c158 0 256 119 256 302s-98 302 -256 302s-256 -119 -256 -302s98 -302 256 -302zM388 -207c-33 0 -55 24 -55 55c0 30 22 55 55 55s55 -25 55 -55
c0 -31 -22 -55 -55 -55z" />
    <glyph glyph-name="uni1ECD.ss02" horiz-adv-x="574" 
d="M287 -10c-143 0 -232 111 -232 259c0 149 89 260 232 260s232 -111 232 -260c0 -148 -89 -259 -232 -259zM287 41c111 0 173 92 173 208c0 117 -62 208 -173 208s-173 -91 -173 -208c0 -116 62 -208 173 -208zM287 -197c-30 0 -50 22 -50 50s20 50 50 50s50 -22 50 -50
s-20 -50 -50 -50z" />
    <glyph glyph-name="uni1EE4.ss02" horiz-adv-x="704" 
d="M87 700h65v-401c0 -166 62 -251 200 -251s200 85 200 251v401h65v-410c0 -191 -84 -300 -265 -300s-265 109 -265 300v410zM352 -207c-33 0 -55 24 -55 55c0 30 22 55 55 55s55 -25 55 -55c0 -31 -22 -55 -55 -55z" />
    <glyph glyph-name="uni1EE5.ss02" 
d="M426 500h59v-500h-59v166c-34 -104 -93 -176 -197 -176c-95 0 -151 61 -151 188v322h60v-296c0 -112 29 -163 101 -163c93 0 187 121 187 303v156zM296 -97c30 0 50 -22 50 -50s-20 -50 -50 -50s-50 22 -50 50s20 50 50 50z" />
    <glyph glyph-name="uni2077.ss06" horiz-adv-x="327" 
d="M296 770v-33l-168 -327h-58l164 316h-142v-59h-50v103h254z" />
    <glyph glyph-name="uni2078.ss03" horiz-adv-x="390" 
d="M257 600c42 -13 82 -41 82 -94c0 -63 -58 -106 -144 -106s-144 43 -144 106c0 53 40 81 82 94c-34 12 -67 36 -67 80c0 58 58 95 129 95s129 -37 129 -95c0 -44 -33 -68 -67 -80zM195 733c-49 0 -79 -24 -79 -56c0 -49 72 -59 79 -60c7 1 79 11 79 60c0 32 -30 56 -79 56
zM195 442c60 0 93 30 93 68c0 56 -82 71 -93 71s-93 -15 -93 -72c0 -36 33 -67 93 -67z" />
    <glyph glyph-name="uni2081.ss06" horiz-adv-x="323" 
d="M218 -29h75v-41h-239v41h115v214c-28 -22 -68 -35 -124 -37v40c60 3 131 27 131 102h42v-319z" />
    <glyph glyph-name="uni2083.ss03" horiz-adv-x="356" 
d="M244 116c41 -13 70 -43 70 -90c0 -68 -59 -106 -134 -106c-83 0 -134 45 -141 124h48c6 -56 44 -81 94 -81c47 0 82 22 82 64c0 40 -31 66 -85 66h-35v39h33c51 0 76 24 76 57c0 31 -23 62 -72 62c-38 0 -75 -19 -80 -69h-50c6 67 54 113 130 113c80 0 122 -50 122 -101
c0 -39 -24 -66 -58 -78z" />
    <glyph glyph-name="uni2087.ss06" horiz-adv-x="327" 
d="M296 290v-33l-168 -327h-58l164 316h-142v-59h-50v103h254z" />
    <glyph glyph-name="uni2088.ss03" horiz-adv-x="390" 
d="M257 120c42 -13 82 -41 82 -94c0 -63 -58 -106 -144 -106s-144 43 -144 106c0 53 40 81 82 94c-34 12 -67 36 -67 80c0 58 58 95 129 95s129 -37 129 -95c0 -44 -33 -68 -67 -80zM195 253c-49 0 -79 -24 -79 -56c0 -49 72 -59 79 -60c7 1 79 11 79 60c0 32 -30 56 -79 56
zM195 -38c60 0 93 30 93 68c0 56 -82 71 -93 71s-93 -15 -93 -72c0 -36 33 -67 93 -67z" />
    <glyph glyph-name="uni2153.ss03" horiz-adv-x="800" 
d="M210 700v-360h-49v255c-28 -22 -68 -35 -124 -37v40c60 3 131 27 131 102h42zM66 0l586 700h67l-586 -700h-67zM688 186c41 -13 70 -43 70 -90c0 -68 -59 -106 -134 -106c-83 0 -134 45 -141 124h48c6 -56 44 -81 94 -81c47 0 82 22 82 64c0 40 -31 66 -85 66h-35v39h33
c51 0 76 24 76 57c0 31 -23 62 -72 62c-38 0 -75 -19 -80 -69h-50c6 67 54 113 130 113c80 0 122 -50 122 -101c0 -39 -24 -66 -58 -78z" />
    <glyph glyph-name="uni2153.ss06" horiz-adv-x="871" 
d="M218 381h75v-41h-239v41h115v214c-28 -22 -68 -35 -124 -37v40c60 3 131 27 131 102h42v-319zM102 0l586 700h67l-586 -700h-67zM759 169c34 -12 58 -39 58 -78c0 -51 -42 -101 -122 -101c-76 0 -124 46 -130 113h50c5 -50 42 -69 80 -69c49 0 72 31 72 62
c0 33 -25 57 -76 57h-33v39h35c54 0 85 26 85 66c0 42 -35 64 -82 64c-50 0 -88 -25 -94 -81h-48c7 79 58 124 141 124c75 0 134 -38 134 -106c0 -47 -29 -77 -70 -90z" />
    <glyph glyph-name="uni2153.ss06.ss03" horiz-adv-x="836" 
d="M218 381h75v-41h-239v41h115v214c-28 -22 -68 -35 -124 -37v40c60 3 131 27 131 102h42v-319zM102 0l586 700h67l-586 -700h-67zM724 186c41 -13 70 -43 70 -90c0 -68 -59 -106 -134 -106c-83 0 -134 45 -141 124h48c6 -56 44 -81 94 -81c47 0 82 22 82 64
c0 40 -31 66 -85 66h-35v39h33c51 0 76 24 76 57c0 31 -23 62 -72 62c-38 0 -75 -19 -80 -69h-50c6 67 54 113 130 113c80 0 122 -50 122 -101c0 -39 -24 -66 -58 -78z" />
    <glyph glyph-name="uni2154.ss03" horiz-adv-x="872" 
d="M307 340h-258v33l95 76c57 46 103 85 103 145c0 39 -26 67 -67 67c-54 0 -74 -43 -71 -97h-51c-5 71 32 141 123 141c75 0 118 -48 118 -112c0 -69 -48 -117 -115 -170l-51 -40h174v-43zM138 0l586 700h67l-586 -700h-67zM760 186c41 -13 70 -43 70 -90
c0 -68 -59 -106 -134 -106c-83 0 -134 45 -141 124h48c6 -56 44 -81 94 -81c47 0 82 22 82 64c0 40 -31 66 -85 66h-35v39h33c51 0 76 24 76 57c0 31 -23 62 -72 62c-38 0 -75 -19 -80 -69h-50c6 67 54 113 130 113c80 0 122 -50 122 -101c0 -39 -24 -66 -58 -78z" />
    <glyph glyph-name="uni2460.ss06" horiz-adv-x="850" 
d="M425 -10c-202 0 -358 156 -358 360s156 360 358 360s358 -156 358 -360s-156 -360 -358 -360zM425 34c175 0 306 141 306 316s-131 316 -306 316s-306 -141 -306 -316s131 -316 306 -316zM470 220h75v-41h-239v41h115v214c-28 -22 -68 -35 -124 -37v40
c60 3 131 27 131 102h42v-319z" />
    <glyph glyph-name="uni2462.ss03" horiz-adv-x="850" 
d="M425 -10c-202 0 -358 156 -358 360s156 360 358 360s358 -156 358 -360s-156 -360 -358 -360zM425 34c175 0 306 141 306 316s-131 316 -306 316s-306 -141 -306 -316s131 -316 306 -316zM490 359c41 -13 70 -43 70 -90c0 -68 -59 -106 -134 -106c-83 0 -134 45 -141 124
h48c6 -56 44 -81 94 -81c47 0 82 22 82 64c0 40 -31 66 -85 66h-35v39h33c51 0 76 24 76 57c0 31 -23 62 -72 62c-38 0 -75 -19 -80 -69h-50c6 67 54 113 130 113c80 0 122 -50 122 -101c0 -39 -24 -66 -58 -78z" />
    <glyph glyph-name="uni2466.ss06" horiz-adv-x="850" 
d="M425 -10c-202 0 -358 156 -358 360s156 360 358 360s358 -156 358 -360s-156 -360 -358 -360zM425 34c175 0 306 141 306 316s-131 316 -306 316s-306 -141 -306 -316s131 -316 306 -316zM562 516v-33l-168 -327h-58l164 316h-142v-59h-50v103h254z" />
    <glyph glyph-name="uni2467.ss03" horiz-adv-x="850" 
d="M425 -10c-202 0 -358 156 -358 360s156 360 358 360s358 -156 358 -360s-156 -360 -358 -360zM425 34c175 0 306 141 306 316s-131 316 -306 316s-306 -141 -306 -316s131 -316 306 -316zM487 363c42 -13 82 -41 82 -94c0 -63 -58 -106 -144 -106s-144 43 -144 106
c0 53 40 81 82 94c-34 12 -67 36 -67 80c0 58 58 95 129 95s129 -37 129 -95c0 -44 -33 -68 -67 -80zM425 496c-49 0 -79 -24 -79 -56c0 -49 72 -59 79 -60c7 1 79 11 79 60c0 32 -30 56 -79 56zM332 272c0 -36 33 -67 93 -67s93 30 93 68c0 56 -82 71 -93 71
s-93 -15 -93 -72z" />
    </font>
</defs>
</svg>
