<svg xmlns="http://www.w3.org/2000/svg" width="29" height="23" viewBox="0 0 29 23">
  <path fill="#111" d="M7,21.779186 L23.7303541,5.04883189 C23.7957364,4.98344952 23.8613921,4.98372385 23.9273232,5.04965488 L25.1437446,6.26607634 C25.2096757,6.33200737 25.20995,6.39766308 25.1445676,6.46304545 L8.41421356,23.1933995 L20.6186631,23.1933995 C20.7111277,23.1933995 20.7573593,23.2400191 20.7573593,23.3332597 L20.7573593,25.0535394 C20.7573593,25.1467799 20.7111277,25.1933995 20.6186631,25.1933995 L5.13869626,25.1933995 C5.04623162,25.1933995 5,25.1467799 5,25.0535394 L5,23.3332597 L5,9.57473646 C5,9.48227182 5.04661958,9.4360402 5.13986014,9.4360402 L6.86013986,9.4360402 C6.95338042,9.4360402 7,9.48227182 7,9.57473646 L7,21.779186 Z" transform="scale(-1 1) rotate(45 5.328 -22.143)"/>
</svg>
