<svg xmlns="http://www.w3.org/2000/svg" width="28" height="23" viewBox="0 0 28 23">
  <path fill="#111" d="M187.267767,181.546953 L203.998121,164.816599 C204.063503,164.751216 204.129159,164.751491 204.19509,164.817422 L205.411512,166.033843 C205.477443,166.099774 205.477717,166.16543 205.412335,166.230812 L188.681981,182.961166 L200.88643,182.961166 C200.978895,182.961166 201.025126,183.007786 201.025126,183.101027 L201.025126,184.821306 C201.025126,184.914547 200.978895,184.961166 200.88643,184.961166 L185.406463,184.961166 C185.313999,184.961166 185.267767,184.914547 185.267767,184.821306 L185.267767,183.101027 L185.267767,169.342503 C185.267767,169.250039 185.314387,169.203807 185.407627,169.203807 L187.127907,169.203807 C187.221147,169.203807 187.267767,169.250039 187.267767,169.342503 L187.267767,181.546953 Z" transform="rotate(45 301.623 -125.122)"/>
</svg>
